<ttFont>
<head>
    <!-- Most of this table will be recalculated by the compiler -->
    <tableVersion value="1.0"/>
    <fontRevision value="1.0"/>
    <checkSumAdjustment value="0xc39e3af0"/>
    <magicNumber value="0x5f0f3cf5"/>
    <flags value="00000000 00000011"/>
    <unitsPerEm value="2048"/>
    <created value="Thu Aug 15 19:06:22 2019"/>
    <modified value="Fri Aug 16 02:18:56 2019"/>
    <xMin value="-460"/>
    <yMin value="-526"/>
    <xMax value="3225"/>
    <yMax value="1967"/>
<macStyle value="00000000 00000000"/>
    <lowestRecPPEM value="3"/>
    <fontDirectionHint value="2"/>
    <indexToLocFormat value="0"/>
    <glyphDataFormat value="0"/>
  </head>
          <CharString index="0">
            -1106 vlineto
            -88 -19 -23 -120 -19 vhcurveto
            -39 return
          </CharString>
          <CharString index="1">
            rmoveto
            -362 -42 0 -36 56 -17 rlineto
            return
          </CharString>
          <CharString index="2">
            56 -18 7 -13 -57 vvcurveto
            -661 102 callsubr
            return
          </CharString>
          <CharString index="3">
            457 -349 285 return
          </CharString>
          <CharString index="4">
            rmoveto
            65 callsubr
            return
          </CharString>
          <CharString index="5">
            306 -226 198 -289 -294 -227 -208 -301 return
          </CharString>
          <CharString index="6">
            471 39 vlineto
            -96 16 -13 16 67 vvcurveto
            return
          </CharString>
          <CharString index="7">
            -388 93 callsubr
            82 callsubr
            307 -36 callgsubr
            68 callsubr
            endchar
          </CharString>
          <CharString index="8">
            47 callsubr
            endchar
          </CharString>
          <CharString index="9">
            rmoveto
            -16 callsubr
            60 callsubr
            endchar
          </CharString>
          <CharString index="10">
            rmoveto
            293 228 210 300 return
          </CharString>
          <CharString index="11">
            154 callsubr
            endchar
          </CharString>
          <CharString index="12">
            rmoveto
            -29 callsubr
            1097 vlineto
            -36 callsubr
            endchar
          </CharString>
          <CharString index="13">
            rmoveto
            -307 212 -200 283 return
          </CharString>
          <CharString index="14">
            -81 callsubr
            endchar
          </CharString>
          <CharString index="15">
            53 callsubr
            endchar
          </CharString>
          <CharString index="16">
            54 -18 8 -13 -30 callgsubr
            193 -54 callgsubr
            return
          </CharString>
          <CharString index="17">
            rmoveto
            -46 callgsubr
            221 callsubr
            endchar
          </CharString>
          <CharString index="18">
            1093 rmoveto
            347 353 rlineto
            7 return
          </CharString>
          <CharString index="19">
            56 callsubr
            endchar
          </CharString>
          <CharString index="20">
            55 -18 8 -13 -57 vvcurveto
            return
          </CharString>
          <CharString index="21">
            1534 rmoveto
            330 271 rlineto
            5 return
          </CharString>
          <CharString index="22">
            -67 -54 -51 -66 -65 54 -50 67 hvcurveto
            return
          </CharString>
          <CharString index="23">
            78 callsubr
            endchar
          </CharString>
          <CharString index="24">
            119 19 vhcurveto
            39 -544 37 callsubr
            return
          </CharString>
          <CharString index="25">
            rmoveto
            1106 vlineto
            88 21 23 return
          </CharString>
          <CharString index="26">
            481 39 vlineto
            -101 17 -18 18 70 vvcurveto
            return
          </CharString>
          <CharString index="27">
            rmoveto
            -360 -42 0 -36 56 -17 rlineto
            return
          </CharString>
          <CharString index="28">
            vlineto
            -68 -15 -18 -104 -16 vhcurveto
            -39 return
          </CharString>
          <CharString index="29">
            -97 callgsubr
            48 47 59 59 -48 46 -61 hvcurveto
            endchar
          </CharString>
          <CharString index="30">
            566 39 vlineto
            -131 18 -20 29 97 vvcurveto
            return
          </CharString>
          <CharString index="31">
            493 39 vlineto
            -116 17 -15 19 77 vvcurveto
            return
          </CharString>
          <CharString index="32">
            rmoveto
            328 -794 -74 -148 -122 -191 -90 -101 rlinecurve
            -3 191 vlineto
            155 443 102 249 208 512 61 151 28 26 83 16 rlinecurve
            40 -328 -40 vlineto
            117 -17 18 -29 -49 -137 rrcurveto
            -178 -492 -182 498 -48 132 16 29 117 16 rlinecurve
            40 -510 -40 vlineto
            81 -16 27 -24 49 -120 rrcurveto
            endchar
          </CharString>
          <CharString index="33">
            112 18 vhcurveto
            40 -537 37 callsubr
            return
          </CharString>
          <CharString index="34">
            410 1486 -106 callsubr
            -59 callsubr
            -40 callsubr
            return
          </CharString>
          <CharString index="35">
            -39 hlineto
            120 -19 19 -23 -88 vvcurveto
            return
          </CharString>
          <CharString index="36">
            169 rmoveto
            1106 vlineto
            88 return
          </CharString>
          <CharString index="37">
            rmoveto
            318 -538 rlineto
            -479 vlineto
            -97 -21 -29 -130 -18 vhcurveto
            -39 -77 callsubr
            157 callsubr
            -17 callgsubr
            endchar
          </CharString>
          <CharString index="38">
            rmoveto
            67 53 48 62 63 -53 49 -67 -66 -53 -49 -63 -62 53 -48 66 hvcurveto
            endchar
          </CharString>
          <CharString index="39">
            -359 rlineto
            37 hlineto
            49 234 84 58 256 18 54 3 rcurveline
            return
          </CharString>
          <CharString index="40">
            1163 rmoveto
            67 54 50 65 66 -54 51 -67 return
          </CharString>
          <CharString index="41">
            1598 rmoveto
            504 116 -504 hlineto
            return
          </CharString>
          <CharString index="42">
            vlineto
            90 89 callgsubr
            19 -20 -86 vvcurveto
            return
          </CharString>
          <CharString index="43">
            -516 -670 516 vlineto
            85 21 20 return
          </CharString>
          <CharString index="44">
            408 988 -80 callsubr
            return
          </CharString>
          <CharString index="45">
            -59 -46 -44 -58 -57 46 -46 59 hvcurveto
            return
          </CharString>
          <CharString index="46">
            rmoveto
            520 123 -520 hlineto
            endchar
          </CharString>
          <CharString index="47">
            -252 vlineto
            -128 -275 rlineto
            return
          </CharString>
          <CharString index="48">
            56 -19 7 -12 -57 vvcurveto
            return
          </CharString>
          <CharString index="49">
            rmoveto
            31 callgsubr
          </CharString>
          <CharString index="50">
            1569 rmoveto
            58 47 46 57 58 -47 44 -58 return
          </CharString>
          <CharString index="51">
            -35 callsubr
            -118 -73 -107 -54 vhcurveto
            return
          </CharString>
          <CharString index="52">
            421 hmoveto
            67 54 50 65 66 -54 51 -67 return
          </CharString>
          <CharString index="53">
            -1215 42 callsubr
            return
          </CharString>
          <CharString index="54">
            1567 rmoveto
            61 48 47 59 return
          </CharString>
          <CharString index="55">
            -252 vlineto
            -145 -360 rlineto
            return
          </CharString>
          <CharString index="56">
            -251 vlineto
            -128 -275 rlineto
            return
          </CharString>
          <CharString index="57">
            -43 callsubr
            endchar
          </CharString>
          <CharString index="58">
            rmoveto
            -9 -296 rlineto
            37 hlineto
            42 -79 callgsubr
            798 vlineto
            7 324 rlineto
            -37 hlineto
            return
          </CharString>
          <CharString index="59">
            -208 117 -80 148 110 98 52 52 38 vhcurveto
            86 callgsubr
            return
          </CharString>
          <CharString index="60">
            rmoveto
            -61 -48 -46 -59 -59 48 -47 61 60 49 47 59 59 -49 46 -60 hvcurveto
            endchar
          </CharString>
          <CharString index="61">
            -670 vlineto
            -303 -40 -137 -157 -137 vhcurveto
            return
          </CharString>
          <CharString index="62">
            1251 1444 rmoveto
            -1196 hlineto
            -14 return
          </CharString>
          <CharString index="63">
            -23 callsubr
            -218 141 -50 0 return
          </CharString>
          <CharString index="64">
            537 39 vlineto
            -112 19 -21 20 85 vvcurveto
            return
          </CharString>
          <CharString index="65">
            433 1444 13 callsubr
            return
          </CharString>
          <CharString index="66">
            30 8 31 hhcurveto
            61 46 -28 -49 -48 return
          </CharString>
          <CharString index="67">
            -1159 102 callsubr
            return
          </CharString>
          <CharString index="68">
            1534 -41 callgsubr
            return
          </CharString>
          <CharString index="69">
            rmoveto
            220 8 callgsubr
          </CharString>
          <CharString index="70">
            rmoveto
            -161 120 -102 162 -32 vhcurveto
            -168 -26 -104 -79 -115 vvcurveto
            -118 -1 118 -73 167 hhcurveto
            -227 -18 -106 -81 -109 vvcurveto
            -146 188 -95 285 269 229 141 217 1 vhcurveto
            182 -136 101 -255 vhcurveto
            -171 hlineto
            -115 -59 33 64 56 45 38 79 17 hvcurveto
            -7 42 36 -4 37 hhcurveto
            230 199 122 201 114 -65 91 -103 43 hvcurveto
            276 -17 0 75 -331 -20 rlineto
            22 -58 -72 15 -80 hhcurveto
            -239 -193 -129 -200 hvcurveto
            240 10 rmoveto
            164 68 106 122 125 71 -115 -164 -165 -72 -104 -118 -120 -76 111 167 vhcurveto
            -75 -906 rmoveto
            97 57 68 115 15 vhcurveto
            172 hlineto
            160 69 -62 -107 -133 -123 -83 -176 -172 -102 87 118 hvcurveto
            endchar
          </CharString>
          <CharString index="71">
            18 397 rlineto
            -38 hlineto
            -56 -269 -85 -59 -295 -14 rrcurveto
            -237 -9 0 671 254 -6 125 -5 27 -48 29 -151 rlinecurve
            34 465 -34 hlineto
            -31 -152 -26 -47 -124 -5 rrcurveto
            -254 -5 0 635 201 -8 279 -12 89 -62 55 -231 rlinecurve
            37 hlineto
            return
          </CharString>
          <CharString index="72">
            639 -65 callgsubr
            -516 vlineto
            -67 -13 -17 -96 -15 vhcurveto
            -39 471 39 vlineto
            36 callgsubr
            return
          </CharString>
          <CharString index="73">
            -310 -169 332 380 400 178 262 296 -24 callgsubr
          </CharString>
          <CharString index="74">
            260 103 261 -103 0 43 -244 89 callsubr
            return
          </CharString>
          <CharString index="75">
            1093 rmoveto
            50 hlineto
            -140 360 rlineto
            -261 -7 hlineto
            return
          </CharString>
          <CharString index="76">
            1854 rmoveto
            -92 -67 -47 -56 -31 hvcurveto
            -32 vlineto
            24 return
          </CharString>
          <CharString index="77">
            1567 rmoveto
            61 49 47 59 59 -49 45 -61 return
          </CharString>
          <CharString index="78">
            -1050 -72 callsubr
            -107 callsubr
            return
          </CharString>
          <CharString index="79">
            555 39 vlineto
            -131 18 -20 29 97 vvcurveto
            return
          </CharString>
          <CharString index="80">
            -67 callgsubr
            -250 -172 rlineto
            return
          </CharString>
          <CharString index="81">
            46 19 53 hhcurveto
            68 44 -34 -53 -58 return
          </CharString>
          <CharString index="82">
            -58 -47 -44 -58 -57 47 -46 58 hvcurveto
            return
          </CharString>
          <CharString index="83">
            -71 -58 -54 -70 -69 58 -54 71 hvcurveto
            return
          </CharString>
          <CharString index="84">
            1828 rmoveto
            -219 -141 return
          </CharString>
          <CharString index="85">
            -251 vlineto
            -145 -360 rlineto
            return
          </CharString>
          <CharString index="86">
            rmoveto
            158 110 90 141 return
          </CharString>
          <CharString index="87">
            -161 -106 callsubr
            return
          </CharString>
          <CharString index="88">
            21 23 -83 callsubr
            return
          </CharString>
          <CharString index="89">
            rmoveto
            277 -780 100 0 281 758 271 -758 99 0 273 744 56 155 31 26 81 15 rlinecurve
            40 -314 -40 vlineto
            105 -16 17 -30 -45 -142 rrcurveto
            -159 -491 -163 496 -45 137 15 32 102 14 rlinecurve
            40 -468 -40 vlineto
            101 -15 13 -31 -43 -136 rrcurveto
            -164 -497 -157 496 -43 137 12 31 107 15 rlinecurve
            40 -498 -40 vlineto
            82 -17 33 -23 43 -120 rrcurveto
            endchar
          </CharString>
          <CharString index="90">
            rmoveto
            -456 320 -295 441 200 202 58 88 115 vhcurveto
            388 vlineto
            92 20 22 116 12 vhcurveto
            39 -520 -39 vlineto
            125 -13 18 -21 -92 vvcurveto
            -402 vlineto
            -45 -53 -96 -30 -114 hhcurveto
            -312 -167 331 381 400 178 262 300 229 145 -150 -241 54 hvcurveto
            36 hlineto
            -12 349 rlineto
            54 -77 -153 45 -234 hhcurveto
            -420 -341 -259 -478 hvcurveto
            endchar
          </CharString>
          <CharString index="91">
            -436 1201 -139 0 -422 -1157 -72 -199 -33 -37 -105 -17 rlinecurve
            -39 387 39 vlineto
            -142 21 -17 44 62 183 rrcurveto
            75 222 471 0 89 -257 52 -151 -23 -45 -130 -17 rlinecurve
            -39 return
          </CharString>
          <CharString index="92">
            rmoveto
            -466 329 -287 433 206 178 53 53 72 vhcurveto
            12 350 rlineto
            -49 callgsubr
            return
          </CharString>
          <CharString index="93">
            1589 459 163 39 callsubr
            73 callsubr
            return
          </CharString>
          <CharString index="94">
            17 414 rlineto
            -37 hlineto
            -64 -282 -92 -67 -273 -12 return
          </CharString>
          <CharString index="95">
            1453 rmoveto
            -229 -7 hlineto
            322 -353 rlineto
            return
          </CharString>
          <CharString index="96">
            1155 rmoveto
            71 58 54 69 70 -58 54 -71 return
          </CharString>
          <CharString index="97">
            204 -275 127 0 204 275 rlineto
            return
          </CharString>
          <CharString index="98">
            rmoveto
            130 90 67 102 102 -82 63 -112 -82 return
          </CharString>
          <CharString index="99">
            rmoveto
            50 38 33 45 43 -38 33 -50 hvcurveto
            -7 hlineto
            return
          </CharString>
          <CharString index="100">
            1198 rmoveto
            558 136 -558 hlineto
            return
          </CharString>
          <CharString index="101">
            317 hmoveto
            58 47 46 57 58 -47 44 -58 return
          </CharString>
          <CharString index="102">
            217 -142 51 0 6 callsubr
            return
          </CharString>
          <CharString index="103">
            hmoveto
            50 38 33 45 43 -38 33 -50 hvcurveto
            return
          </CharString>
          <CharString index="104">
            -76 -56 -68 -35 hvcurveto
            -36 vlineto
            28 27 return
          </CharString>
          <CharString index="105">
            rmoveto
            519 123 -519 hlineto
            endchar
          </CharString>
          <CharString index="106">
            1534 rmoveto
            219 142 return
          </CharString>
          <CharString index="107">
            1477 rmoveto
            -236 -191 return
          </CharString>
          <CharString index="108">
            1149 38 callgsubr
            return
          </CharString>
          <CharString index="109">
            260 103 260 -103 0 43 return
          </CharString>
          <CharString index="110">
            -41 -40 -52 -51 41 -39 52 hvcurveto
            return
          </CharString>
          <CharString index="111">
            rmoveto
            146 25 135 120 return
          </CharString>
          <CharString index="112">
            1651 91 721 rmoveto
            return
          </CharString>
          <CharString index="113">
            -204 85 callsubr
            return
          </CharString>
          <CharString index="114">
            678 158 269 rmoveto
            return
          </CharString>
          <CharString index="115">
            21 23 118 19 vhcurveto
            39 return
          </CharString>
          <CharString index="116">
            -44 -29 -64 -54 -49 19 25 return
          </CharString>
          <CharString index="117">
            rmoveto
            52 34 callsubr
            return
          </CharString>
          <CharString index="118">
            rmoveto
            385 -1201 133 0 377 1195 366 -1195 134 0 375 1158 63 198 36 37 105 17 rlinecurve
            39 -385 -39 vlineto
            141 -20 13 -44 -53 -183 rrcurveto
            -259 -890 -266 930 -46 159 11 30 123 18 rlinecurve
            39 -539 -39 vlineto
            132 -22 18 -29 -49 -168 rrcurveto
            -262 -917 -275 927 -42 148 17 44 131 17 rlinecurve
            39 -573 -39 vlineto
            95 -15 42 -31 52 -163 rrcurveto
            endchar
          </CharString>
          <CharString index="119">
            rmoveto
            560 vlineto
            130 -1 434 -722 rlineto
            351 37 hlineto
            -68 22 -47 42 -131 217 rrcurveto
            -355 601 245 262 141 148 74 51 110 25 rlinecurve
            39 -412 -39 vlineto
            136 -16 1 -47 -109 -130 rrcurveto
            -371 -440 -129 -1 rlineto
            510 40 callsubr
            -107 callsubr
            -50 callsubr
          </CharString>
          <CharString index="120">
            rmoveto
            -391 -39 hlineto
            105 -23 29 -33 -106 vvcurveto
            -11 -981 -2 -166 -19 -38 -125 -19 rlinecurve
            -39 379 39 vlineto
            -129 17 -20 38 -2 168 rrcurveto
            -18 1010 884 -1272 162 0 11 1182 2 166 19 38 125 19 rlinecurve
            39 -378 -39 vlineto
            129 -17 18 -38 4 -168 19 -881 rcurveline
            return
          </CharString>
          <CharString index="121">
            -172 -7 rcurveline
            1216 vlineto
            97 20 28 -53 callgsubr
            -107 callsubr
            vlineto
            return
          </CharString>
          <CharString index="122">
            176 140 137 242 238 -142 141 -172 -176 -140 -137 -243 -237 142 -141 172 hvcurveto
            return
          </CharString>
          <CharString index="123">
            -40 vlineto
            102 -16 17 -19 -70 vvcurveto
            -688 102 callsubr
            return
          </CharString>
          <CharString index="124">
            -993 vlineto
            -348 -69 -162 -210 -139 vhcurveto
            17 -34 rlineto
            337 149 190 159 348 vvcurveto
            endchar
          </CharString>
          <CharString index="125">
            17 397 rlineto
            -37 170 callsubr
            -1055 vlineto
            -18 -37 callgsubr
            65 callgsubr
            endchar
          </CharString>
          <CharString index="126">
            rmoveto
            169 137 67 96 66 hvcurveto
            151 callsubr
            -306 212 -201 279 hvcurveto
            endchar
          </CharString>
          <CharString index="127">
            rmoveto
            66 53 48 62 63 -53 49 -66 -67 -53 -49 -63 -62 53 -48 67 hvcurveto
            endchar
          </CharString>
          <CharString index="128">
            1199 390 988 -106 callsubr
            -91 callsubr
            return
          </CharString>
          <CharString index="129">
            1137 1080 hmoveto
            -13 callsubr
            14 callsubr
            return
          </CharString>
          <CharString index="130">
            52 vhcurveto
            -178 vlineto
            360 41 0 35 -56 17 rlineto
            -56 19 -7 return
          </CharString>
          <CharString index="131">
            24 -33 62 42 rlineto
            267 176 87 115 319 vvcurveto
            endchar
          </CharString>
          <CharString index="132">
            1534 rmoveto
            329 271 rlineto
            5 -51 callsubr
            return
          </CharString>
          <CharString index="133">
            rmoveto
            90 60 63 125 -2 hvcurveto
            -42 hlineto
            -57 -1 -28 -20 return
          </CharString>
          <CharString index="134">
            1810 rmoveto
            -226 -6 hlineto
            300 -271 rlineto
            return
          </CharString>
          <CharString index="135">
            1155 rmoveto
            72 57 54 69 70 -57 54 -72 -71 return
          </CharString>
          <CharString index="136">
            130 callsubr
            -121 0 -225 -360 rlineto
            return
          </CharString>
          <CharString index="137">
            59 -48 45 -61 -61 -49 -45 -59 -59 49 -47 61 hvcurveto
            return
          </CharString>
          <CharString index="138">
            83 85 48 -106 -244 -241 -45 -88 -83 hvcurveto
            return
          </CharString>
          <CharString index="139">
            -217 141 -51 0 -10 callsubr
            return
          </CharString>
          <CharString index="140">
            1093 rmoveto
            237 191 234 -191 return
          </CharString>
          <CharString index="141">
            41 39 51 52 -41 40 -52 hvcurveto
            -7 hlineto
            -52 return
          </CharString>
          <CharString index="142">
            -40 -40 -52 -51 40 -39 52 hvcurveto
            320 hmoveto
            return
          </CharString>
          <CharString index="143">
            1458 747 110 callsubr
            return
          </CharString>
          <CharString index="144">
            -39 vlineto
            120 -19 19 -23 -88 vvcurveto
            return
          </CharString>
          <CharString index="145">
            -61 -48 -45 -59 -59 48 -47 61 hvcurveto
            return
          </CharString>
          <CharString index="146">
            rmoveto
            550 670 -550 vlineto
            -86 return
          </CharString>
          <CharString index="147">
            vlineto
            85 21 20 -74 callsubr
            return
          </CharString>
          <CharString index="148">
            vlineto
            -88 -20 -23 -120 -19 vhcurveto
            -39 return
          </CharString>
          <CharString index="149">
            vlineto
            -97 -20 -29 -130 -18 vhcurveto
            -39 return
          </CharString>
          <CharString index="150">
            1215 100 callgsubr
            return
          </CharString>
          <CharString index="151">
            -251 vlineto
            -146 -360 rlineto
            return
          </CharString>
          <CharString index="152">
            82 488 -94 callsubr
            return
          </CharString>
          <CharString index="153">
            -121 -75 -107 -53 vhcurveto
            endchar
          </CharString>
          <CharString index="154">
            rmoveto
            151 122 66 90 42 hvcurveto
            -99 19 83 -52 106 hhcurveto
            73 63 21 24 34 hvcurveto
            36 vlineto
            -3 -11 -15 -3 -16 hhcurveto
            -59 -43 36 87 hvcurveto
            499 vlineto
            216 -156 96 -241 -237 -165 -100 -129 -66 54 -49 65 67 53 50 65 64 -49 49 -59 3 vhcurveto
            31 49 65 17 70 hhcurveto
            152 94 -70 -188 hvcurveto
            -105 vlineto
            -200 -42 rlineto
            -284 -60 -111 -94 -149 vvcurveto
            -144 119 -97 165 vhcurveto
            -41 281 rmoveto
            118 62 75 196 44 vhcurveto
            94 21 rlineto
            -347 vlineto
            -61 -36 -62 -32 -81 hhcurveto
            -98 -75 66 116 hvcurveto
            return
          </CharString>
          <CharString index="155">
            rmoveto
            -135 -200 -45 -38 -102 -17 rrcurveto
            -39 389 39 vlineto
            -142 21 -2 41 109 180 rrcurveto
            229 367 270 -430 71 -113 -3 -44 -130 -22 rlinecurve
            -39 571 39 vlineto
            -91 25 -44 34 -80 128 rrcurveto
            -343 546 265 387 130 191 46 38 101 17 rlinecurve
            39 -388 -39 vlineto
            142 -21 2 -41 -107 -175 rrcurveto
            -218 -352 -258 410 -76 123 4 35 134 21 rlinecurve
            39 -563 -39 vlineto
            90 -25 38 -36 79 -127 330 -524 rcurveline
            endchar
          </CharString>
          <CharString index="156">
            rmoveto
            -406 277 -165 307 360 198 222 335 3 vhcurveto
            7 883 rlineto
            -3 19 22 -3 20 hhcurveto
            144 83 61 102 89 -66 83 -97 40 hvcurveto
            -40 hlineto
            21 -25 16 -52 -54 vvcurveto
            -119 -88 -93 -185 vhcurveto
            -84 -39 hlineto
            144 -21 17 -22 1 -126 5 -693 rcurveline
            -295 2 -160 -177 -251 hhcurveto
            -240 -170 148 332 hvcurveto
            719 vlineto
            93 20 21 141 21 vhcurveto
            39 -573 -39 vlineto
            126 -21 21 -21 -93 vvcurveto
            endchar
          </CharString>
          <CharString index="157">
            rmoveto
            -403 -39 hlineto
            106 -19 29 -37 -4 -105 rrcurveto
            -38 -992 -8 -157 -20 -38 -124 -18 rlinecurve
            -39 375 39 vlineto
            -127 19 -18 37 3 159 rrcurveto
            11 1028 484 -1282 114 0 81 256 380 1022 33 -1111 3 -90 -23 -22 -114 -16 rlinecurve
            -39 538 39 vlineto
            -119 17 -18 22 -3 91 rrcurveto
            -36 1106 -2 88 22 24 114 18 rlinecurve
            39 -412 vlineto
            -397 -1155 rlineto
            endchar
          </CharString>
          <CharString index="158">
            rmoveto
            269 -226 146 -395 vhcurveto
            -542 -72 callsubr
            -107 callsubr
            -28 callsubr
            404 138 vlineto
            345 276 146 296 hvcurveto
            -282 -13 rmoveto
            -219 -125 -150 -266 -11 vhcurveto
            -86 -3 0 765 86 -3 rlineto
            270 -11 121 -152 -216 vvcurveto
            endchar
          </CharString>
          <CharString index="159">
            329 -185 243 -250 108 vhcurveto
            -7 35 39 -5 40 hhcurveto
            172 118 60 120 92 -70 84 -100 39 hvcurveto
            -40 hlineto
            21 -25 16 -54 -53 vvcurveto
            -124 -85 -89 -164 vhcurveto
            -85 -87 24 -112 176 callsubr
            -36 callgsubr
            68 callsubr
            endchar
          </CharString>
          <CharString index="160">
            172 138 66 99 66 vhcurveto
            -1 39 rlineto
            -55 -53 -84 -40 -108 hhcurveto
            -216 -149 173 268 -14 hvcurveto
            638 153 callsubr
            -418 -4 rlineto
            231 86 133 144 vhcurveto
            return
          </CharString>
          <CharString index="161">
            13 57 vvcurveto
            1313 vlineto
            -363 -41 0 -36 57 -17 rlineto
            55 -19 7 -12 -57 vvcurveto
            -431 vlineto
            74 -44 -95 49 -120 hhcurveto
            -256 -208 -199 -316 hvcurveto
            return
          </CharString>
          <CharString index="162">
            569 vlineto
            49 49 104 31 100 hhcurveto
            46 46 -7 -7 22 hvcurveto
            11 17 10 33 34 vvcurveto
            65 -34 55 -77 -89 -82 -77 -163 -108 vhcurveto
            return
          </CharString>
          <CharString index="163">
            360 41 0 36 -56 16 rlineto
            -55 19 -8 12 58 vvcurveto
            816 vlineto
            -362 -42 0 -36 57 -17 rlineto
            55 12 callgsubr
            return
          </CharString>
          <CharString index="164">
            rmoveto
            -365 -42 0 -36 57 -17 rlineto
            57 -19 8 -12 -30 callgsubr
            192 -54 callgsubr
            194 callsubr
            endchar
          </CharString>
          <CharString index="165">
            1209 66 callsubr
            74 113 23 callsubr
            54 callsubr
            251 25 rmoveto
            -22 callgsubr
            return
          </CharString>
          <CharString index="166">
            1477 rmoveto
            -237 -191 -234 191 -50 0 224 -360 122 0 224 360 rlineto
            return
          </CharString>
          <CharString index="167">
            576 39 vlineto
            -101 17 -35 37 -57 155 rrcurveto
            -823 318 rmoveto
            213 631 219 -631 rlineto
            return
          </CharString>
          <CharString index="168">
            644 vlineto
            255 -13 0 76 -255 -13 rlineto
            225 -24 vlineto
            -339 -257 rlineto
            -31 121 vlineto
            return
          </CharString>
          <CharString index="169">
            -65 -122 -120 -86 65 94 vhcurveto
            4 -42 vlineto
            -2 -15 -1 -17 -16 vvcurveto
            return
          </CharString>
          <CharString index="170">
            53 40 39 51 52 -40 40 -53 hvcurveto
            -6 hlineto
            -52 3 callsubr
            return
          </CharString>
          <CharString index="171">
            -29 -44 -49 -40 -44 -75 -47 hvcurveto
            42 hlineto
            155 -35 callgsubr
            return
          </CharString>
          <CharString index="172">
            -457 349 -286 387 442 291 332 414 return
          </CharString>
          <CharString index="173">
            82 480 rmoveto
            -318 187 -181 216 146 125 return
          </CharString>
          <CharString index="174">
            1534 rmoveto
            49 hlineto
            -121 275 rlineto
            -260 -5 hlineto
            return
          </CharString>
          <CharString index="175">
            -124 -285 -306 -278 -171 297 404 vhcurveto
            return
          </CharString>
          <CharString index="176">
            -23 11 25 -36 hvcurveto
            -29 19 rlineto
            35 -50 -41 21 -53 hhcurveto
            -92 return
          </CharString>
          <CharString index="177">
            1448 rmoveto
            147 vlineto
            -521 -198 rlineto
            -41 vlineto
            return
          </CharString>
          <CharString index="178">
            15 20 -27 hvcurveto
            -1 -38 rlineto
            -50 32 76 -36 90 hhcurveto
            return
          </CharString>
          <CharString index="179">
            -6 -13 41 hvcurveto
            31 -9 rlineto
            -14 43 42 -9 47 hhcurveto
            return
          </CharString>
          <CharString index="180">
            -19 -20 -113 -18 vhcurveto
            -39 -106 callgsubr
            return
          </CharString>
          <CharString index="181">
            hhcurveto
            -28 -29 7 12 -40 hvcurveto
            -32 10 rlineto
            13 -44 return
          </CharString>
          <CharString index="182">
            1555 rmoveto
            93 70 66 181 -8 hvcurveto
            return
          </CharString>
          <CharString index="183">
            1152 rmoveto
            97 73 71 194 -8 hvcurveto
            return
          </CharString>
          <CharString index="184">
            -35 callsubr
            -121 -75 -107 -53 vhcurveto
            return
          </CharString>
          <CharString index="185">
            544 39 vlineto
            -119 19 -21 23 88 vvcurveto
            return
          </CharString>
          <CharString index="186">
            113 106 62 112 105 -90 66 -108 return
          </CharString>
          <CharString index="187">
            -31 hvcurveto
            -37 vlineto
            -49 32 77 -38 88 hhcurveto
            endchar
          </CharString>
          <CharString index="188">
            -32 hvcurveto
            -37 vlineto
            -49 33 76 -38 89 hhcurveto
            endchar
          </CharString>
          <CharString index="189">
            vhcurveto
            295 15 rmoveto
            389 124 284 return
          </CharString>
          <CharString index="190">
            rmoveto
            130 91 67 102 102 -83 63 -112 return
          </CharString>
          <CharString index="191">
            rmoveto
            93 61 53 106 -1 hvcurveto
            -44 hlineto
            -47 -2 return
          </CharString>
          <CharString index="192">
            275 -127 0 -204 -275 rlineto
            return
          </CharString>
          <CharString index="193">
            4 19 hhcurveto
            61 47 -29 -50 -51 -46 -30 return
          </CharString>
          <CharString index="194">
            -26 -31 -44 hhcurveto
            -30 -25 12 28 -37 hvcurveto
            return
          </CharString>
          <CharString index="195">
            -69 -66 -181 7 -60 callgsubr
            return
          </CharString>
          <CharString index="196">
            203 -34 0 -243 -203 rlineto
            return
          </CharString>
          <CharString index="197">
            59 -48 45 -61 38 callsubr
            return
          </CharString>
          <CharString index="198">
            -28 -40 hhcurveto
            -28 69 callsubr
            return
          </CharString>
          <CharString index="199">
            3 callsubr
            320 hmoveto
            52 return
          </CharString>
          <CharString index="200">
            -442 -290 -331 -414 return
          </CharString>
          <CharString index="201">
            -125 -159 1 -36 rlineto
            5 return
          </CharString>
          <CharString index="202">
            -124 89 -122 163 vhcurveto
            return
          </CharString>
          <CharString index="203">
            -118 19 -21 23 88 vvcurveto
            endchar
          </CharString>
          <CharString index="204">
            597 -19 -97 callsubr
            return
          </CharString>
          <CharString index="205">
            -39 -41 -28 hvcurveto
            -36 vlineto
            8 17 return
          </CharString>
          <CharString index="206">
            -41 -40 -51 -52 41 -39 52 hvcurveto
            return
          </CharString>
          <CharString index="207">
            -57 -39 -41 -28 hvcurveto
            -36 vlineto
            8 return
          </CharString>
          <CharString index="208">
            rmoveto
            522 111 -522 hlineto
            return
          </CharString>
          <CharString index="209">
            vlineto
            -70 -17 -18 -102 -17 vhcurveto
            -39 return
          </CharString>
          <CharString index="210">
            hlineto
            -61 -6 -89 -40 -123 hhcurveto
            return
          </CharString>
          <CharString index="211">
            rmoveto
            287 234 167 264 205 -123 142 -248 87 hvcurveto
            -116 43 rlineto
            -176 63 -98 80 142 vvcurveto
            139 98 99 186 182 129 -128 -227 52 vhcurveto
            38 hlineto
            -12 321 rlineto
            48 -65 -136 43 -187 hhcurveto
            -294 -220 -145 -256 -201 131 -140 237 -83 hvcurveto
            118 -41 rlineto
            189 -68 86 -91 -141 vvcurveto
            -161 -118 -104 -173 -206 -174 134 263 -58 vhcurveto
            -37 hlineto
            14 -348 rlineto
            -59 92 162 -47 206 hhcurveto
            return
          </CharString>
          <CharString index="212">
            rmoveto
            -243 355 187 253 82 113 34 27 89 20 rlinecurve
            40 -335 -40 vlineto
            111 -16 16 -23 -66 -104 rrcurveto
            -149 -225 -152 223 -67 102 12 33 117 10 rlinecurve
            40 -495 -40 vlineto
            65 -12 34 -28 59 -86 rrcurveto
            239 -350 -187 -254 -86 -117 -35 -28 -93 -23 rlinecurve
            -39 338 39 vlineto
            -103 16 -22 26 68 108 rrcurveto
            150 228 156 -229 69 -106 -13 -32 -117 -11 rlinecurve
            -39 499 39 vlineto
            -67 14 -35 28 -60 88 rrcurveto
            endchar
          </CharString>
          <CharString index="213">
            rmoveto
            -151 106 -88 178 -57 vhcurveto
            78 -26 rlineto
            126 -40 55 -52 -90 vvcurveto
            -92 -77 -68 -122 -139 -135 108 188 -40 vhcurveto
            -37 hlineto
            11 -272 rlineto
            -45 68 131 -33 144 hhcurveto
            213 189 109 189 160 -100 95 -179 57 hvcurveto
            -78 25 rlineto
            -119 39 -67 44 88 vvcurveto
            89 71 62 123 129 100 -91 -167 33 vhcurveto
            38 hlineto
            -5 253 rlineto
            30 -50 -107 30 -140 hhcurveto
            -234 -164 -107 -187 hvcurveto
            return
          </CharString>
          <CharString index="214">
            318 -187 180 -216 -145 -125 -72 -112 -52 vhcurveto
            1 675 -362 -42 0 -36 57 -17 rlineto
            55 -19 6 -12 -57 vvcurveto
            -1303 111 vlineto
            111 124 rlineto
            -82 43 103 -60 132 hhcurveto
            258 210 198 317 hvcurveto
            -251 -26 rmoveto
            -257 -114 -161 -170 -86 -73 47 59 -30 vhcurveto
            616 vlineto
            71 40 69 40 94 hhcurveto
            157 113 -157 -258 hvcurveto
            return
          </CharString>
          <CharString index="215">
            rmoveto
            -89 -76 -38 -42 -38 hvcurveto
            93 callgsubr
            -62 -6 -251 -67 vvcurveto
            -229 129 -148 235 246 206 215 362 273 -87 164 -130 -92 -56 -83 -109 27 vhcurveto
            147 -35 95 -154 -193 vvcurveto
            -212 -103 -111 -150 -147 -77 99 186 vhcurveto
            72 7 240 45 vvcurveto
            169 -69 80 -133 vhcurveto
            endchar
          </CharString>
          <CharString index="216">
            1673 836 -22 rmoveto
            410 336 336 409 409 -336 336 -410 -409 -336 -336 -409 -409 336 -336 409 hvcurveto
            39 vmoveto
            -384 -317 318 388 388 316 318 385 385 316 -318 -388 -388 -317 -318 -384 hvcurveto
            return
          </CharString>
          <CharString index="217">
            rmoveto
            451 -356 246 -520 vhcurveto
            -527 -72 callsubr
            -107 callsubr
            -57 callgsubr
            -293 -21 -59 callgsubr
            47 callgsubr
            return
          </CharString>
          <CharString index="218">
            rmoveto
            93 60 53 106 hvcurveto
            -44 hlineto
            -47 -2 -29 -19 -46 74 callsubr
            -42 9 -47 hhcurveto
            -92 -61 -54 -105 -50 callgsubr
            return
          </CharString>
          <CharString index="219">
            rmoveto
            229 -200 124 -292 13 vhcurveto
            226 15 200 105 201 vvcurveto
            227 -224 116 -360 vhcurveto
            -560 -72 callsubr
            -107 callsubr
            196 callsubr
            endchar
          </CharString>
          <CharString index="220">
            rmoveto
            10 -723 rlineto
            -187 3 94 -86 149 hhcurveto
            112 96 53 73 50 hvcurveto
            40 vlineto
            -23 -29 -43 -17 -57 hhcurveto
            -96 -56 59 123 1 hvcurveto
            83 10 440 8 165 vhcurveto
            endchar
          </CharString>
          <CharString index="221">
            -49 -39 -33 -43 -45 -34 callgsubr
            45 43 -39 33 -49 hvcurveto
            -44 callgsubr
            endchar
          </CharString>
          <CharString index="222">
            387 698 rmoveto
            175 141 137 243 237 -142 141 -173 -175 -141 -137 -242 -238 142 -141 173 hvcurveto
            return
          </CharString>
          <CharString index="223">
            1283 rmoveto
            -112 118 -69 142 142 118 69 113 112 -117 71 -143 -143 -117 -71 -113 vhcurveto
            return
          </CharString>
          <CharString index="224">
            49 39 33 45 43 -39 33 -49 hvcurveto
            -44 callgsubr
            return
          </CharString>
          <CharString index="225">
            -8 hvcurveto
            -42 103 callsubr
            -122 -90 40 61 -6 hvcurveto
            -42 hlineto
            -141 -8 110 -90 158 hhcurveto
            endchar
          </CharString>
          <CharString index="226">
            -40 vlineto
            111 -18 21 -20 -83 vvcurveto
            -1233 -547 1233 vlineto
            83 21 20 112 18 vhcurveto
            40 return
          </CharString>
          <CharString index="227">
            9 hvcurveto
            45 hlineto
            100 4 27 31 43 hhcurveto
            31 24 -12 -27 37 hvcurveto
            31 -22 rlineto
            -38 53 44 -22 return
          </CharString>
          <CharString index="228">
            376 1445 rmoveto
            -73 hlineto
            -211 -116 0 -27 118 33 15 callgsubr
            return
          </CharString>
          <CharString index="229">
            rmoveto
            130 91 67 102 102 -82 63 -112 -82 100 callsubr
            17 31 8 31 hhcurveto
            return
          </CharString>
          <CharString index="230">
            rmoveto
            -84 -48 107 244 241 44 87 83 85 48 -107 -243 -242 -45 -87 -83 hvcurveto
            return
          </CharString>
          <CharString index="231">
            267 86 268 -86 0 36 -251 172 -34 0 -250 -172 rlineto
            endchar
          </CharString>
          <CharString index="232">
            1478 164 1281 rmoveto
            -46 callgsubr
            221 callsubr
            return
          </CharString>
          <CharString index="233">
            -44 -51 -83 -54 hvcurveto
            48 hlineto
            176 68 64 68 84 vvcurveto
            84 -76 59 -107 vhcurveto
            return
          </CharString>
          <CharString index="234">
            -234 191 -51 0 225 -360 121 0 225 360 rlineto
            return
          </CharString>
          <CharString index="235">
            21 47 hhcurveto
            27 28 -8 -14 40 hvcurveto
            30 -11 rlineto
            -15 42 42 -12 45 hhcurveto
            return
          </CharString>
          <CharString index="236">
            rmoveto
            77 63 63 77 77 -63 62 -77 -76 -63 -62 -77 -77 63 -63 76 hvcurveto
            return
          </CharString>
          <CharString index="237">
            1093 rmoveto
            236 191 234 -191 51 0 -225 360 return
          </CharString>
          <CharString index="238">
            0 260 1448 rmoveto
            147 vlineto
            -520 -198 rlineto
            -41 vlineto
            return
          </CharString>
          <CharString index="239">
            51 hlineto
            210 360 rmoveto
            -214 -7 hlineto
            240 -353 rlineto
            return
          </CharString>
          <CharString index="240">
            1534 rmoveto
            49 hlineto
            -121 275 rlineto
            -261 -5 hlineto
            return
          </CharString>
          <CharString index="241">
            1448 rmoveto
            521 -92 0 41 -521 198 rlineto
            return
          </CharString>
          <CharString index="242">
            1093 rmoveto
            346 353 rlineto
            7 -22 callsubr
            return
          </CharString>
          <CharString index="243">
            1093 rmoveto
            49 hlineto
            -140 360 rlineto
            -260 -7 hlineto
            return
          </CharString>
          <CharString index="244">
            rmoveto
            220 353 rlineto
            7 -220 vlineto
            -48 -360 rlineto
            return
          </CharString>
          <CharString index="245">
            -698 rmoveto
            76 hlineto
            841 1444 rlineto
            -75 hlineto
            return
          </CharString>
          <CharString index="246">
            -18 -1 -18 -19 vvcurveto
            -140 97 -140 185 vhcurveto
            return
          </CharString>
          <CharString index="247">
            -41 9 -47 hhcurveto
            -92 -62 -54 -105 -52 callgsubr
            return
          </CharString>
          <CharString index="248">
            -244 203 -33 0 -243 -203 rlineto
            endchar
          </CharString>
          <CharString index="249">
            70 66 181 -8 hvcurveto
            -44 hlineto
            -91 -5 -25 -28 return
          </CharString>
          <CharString index="250">
            52 41 39 52 51 -41 40 -52 hvcurveto
            -7 hlineto
            -52 return
          </CharString>
          <CharString index="251">
            rmoveto
            90 68 64 175 -8 hvcurveto
            -42 hlineto
            -90 -4 return
          </CharString>
          <CharString index="252">
            rmoveto
            186 137 101 196 19 hvcurveto
            -191 64 183 -106 198 hhcurveto
            169 136 72 90 65 hvcurveto
            40 vlineto
            -54 -54 -82 -39 -108 hhcurveto
            -212 -150 174 270 -13 hvcurveto
            628 hlineto
            2 16 2 22 22 vvcurveto
            237 -151 164 -253 -134 -114 -53 -88 -73 vhcurveto
            97 -54 -126 44 -140 hhcurveto
            -226 -154 -102 -121 -65 52 -49 66 68 52 50 66 60 -46 46 -58 5 hvcurveto
            29 48 63 18 72 hhcurveto
            145 110 -84 -202 hvcurveto
            -72 vlineto
            -196 -36 rlineto
            -291 -53 -118 -111 -153 vvcurveto
            -150 120 -90 168 vhcurveto
            764 960 rmoveto
            126 56 -126 -179 -19 -1 -17 -1 -15 hvcurveto
            -407 -4 rlineto
            229 89 131 138 vhcurveto
            -647 -859 rmoveto
            -98 -66 66 115 120 69 83 183 39 hvcurveto
            112 24 rlineto
            -191 vlineto
            -182 -95 -74 -105 vhcurveto
            endchar
          </CharString>
          <CharString index="253">
            rmoveto
            -953 hlineto
            -593 -1151 -104 -202 -46 -34 -101 -18 rlinecurve
            -39 396 39 vlineto
            -132 20 -23 43 92 189 rrcurveto
            171 344 439 0 3 -472 rlineto
            -86 -20 -20 -112 -18 vhcurveto
            -39 1034 vlineto
            16 397 rlineto
            -37 hlineto
            -55 -269 -79 -58 -285 -15 rrcurveto
            -212 -9 -5 671 222 -6 125 -5 27 -48 29 -151 rlinecurve
            34 hlineto
            -3 465 rlineto
            -34 hlineto
            -29 -152 -26 -47 -123 -5 rrcurveto
            -222 -5 -4 635 178 -8 270 -13 84 -61 57 -231 rlinecurve
            37 hlineto
            -934 312 rmoveto
            60 hlineto
            4 -705 rlineto
            -412 hlineto
            endchar
          </CharString>
          <CharString index="254">
            rmoveto
            237 -197 150 -394 vhcurveto
            -554 -39 hlineto
            120 -18 19 -21 -91 vvcurveto
            -1106 vlineto
            -87 -19 -21 -120 -22 vhcurveto
            -39 537 39 vlineto
            -112 20 -21 21 83 vvcurveto
            500 201 vlineto
            337 -663 rlineto
            330 37 hlineto
            -58 18 -43 37 -111 213 -208 411 rcurveline
            174 45 119 124 172 vvcurveto
            -269 -16 rmoveto
            -209 -137 -112 -215 -8 vhcurveto
            -120 -4 0 690 96 -3 rlineto
            269 -10 107 -147 -197 vvcurveto
            return
          </CharString>
          <CharString index="255">
            rmoveto
            315 -188 183 -217 -147 -124 -75 -112 -50 vhcurveto
            180 vlineto
            -360 -42 0 -36 56 -17 rlineto
            -87 callsubr
            -1124 -79 callsubr
            -76 callsubr
            413 vlineto
            -73 43 95 -51 120 hhcurveto
            256 210 201 315 hvcurveto
            -252 -26 rmoveto
            -253 -113 -165 -169 -85 -76 45 60 -29 vhcurveto
            616 vlineto
            72 40 68 40 94 hhcurveto
            158 112 -161 -254 hvcurveto
            endchar
          </CharString>
          <CharString index="256">
            1370 459 163 rmoveto
            560 vlineto
            130 -1 434 -722 rlineto
            351 37 hlineto
            -68 22 -47 42 -131 217 rrcurveto
            -355 601 245 262 141 148 74 51 110 25 rlinecurve
            39 -412 -39 vlineto
            136 -16 1 -47 -109 -130 rrcurveto
            -371 -440 -129 -1 rlineto
            510 40 callsubr
            -107 callsubr
            -43 callsubr
            return
          </CharString>
          <CharString index="257">
            321 37 hlineto
            -62 15 -45 38 -83 145 rrcurveto
            -254 434 96 89 140 126 52 30 105 23 rlinecurve
            40 -382 -40 vlineto
            114 -20 8 -39 -82 -88 rrcurveto
            -220 -241 -106 -3 0 940 -362 -42 0 -36 56 -17 rlineto
            -59 callsubr
            -40 callsubr
            -101 callsubr
            360 vlineto
            107 -2 rlineto
            return
          </CharString>
          <CharString index="258">
            41 vlineto
            -55 -54 -85 -38 -106 hhcurveto
            -203 -162 164 280 235 125 158 197 70 59 -20 -34 41 hvcurveto
            1 -4 -5 0 -5 hhcurveto
            -63 -51 -52 -66 -66 52 -53 67 65 54 52 71 124 -117 109 -223 -297 -218 -214 -293 return
          </CharString>
          <CharString index="259">
            rmoveto
            91 67 64 175 -7 hvcurveto
            -42 hlineto
            -90 -4 -31 callgsubr
            -29 20 rlineto
            33 -49 -41 21 -51 hhcurveto
            -90 -68 -64 -175 8 hvcurveto
            42 hlineto
            90 4 25 28 40 hhcurveto
            29 22 -11 -24 35 hvcurveto
            28 -21 rlineto
            -34 50 41 -20 50 hhcurveto
            endchar
          </CharString>
          <CharString index="260">
            hlineto
            2 14 3 23 21 vvcurveto
            240 -153 166 -260 -290 -186 -213 -294 vhcurveto
            475 453 rmoveto
            128 62 -128 -179 -21 -1 -17 -1 -15 hvcurveto
            return
          </CharString>
          <CharString index="261">
            -307 225 -198 290 hvcurveto
            6 55 rmoveto
            -156 -103 181 280 271 92 173 160 156 103 -181 -280 -271 -92 -173 -160 hvcurveto
            return
          </CharString>
          <CharString index="262">
            rmoveto
            162 113 76 120 -8 hvcurveto
            -44 hlineto
            -52 -5 -92 -42 callgsubr
            -43 hlineto
            -120 -8 112 -76 162 hhcurveto
            511 -1294 -98 callsubr
          </CharString>
          <CharString index="263">
            -47 hhcurveto
            -27 -28 7 14 -40 hvcurveto
            -30 12 rlineto
            15 -42 -42 11 -45 hhcurveto
            -89 -61 -63 -125 2 hvcurveto
            42 hlineto
            57 1 28 128 callsubr
            endchar
          </CharString>
          <CharString index="264">
            495 vlineto
            289 481 115 192 39 36 96 18 rlinecurve
            39 -376 -39 vlineto
            137 -19 10 -44 -96 -178 rrcurveto
            return
          </CharString>
          <CharString index="265">
            1581 rmoveto
            163 88 122 124 -98 callgsubr
            -86 -65 -121 -121 -86 65 94 vhcurveto
            4 -41 vlineto
            return
          </CharString>
          <CharString index="266">
            rmoveto
            1020 vlineto
            88 20 23 119 19 vhcurveto
            39 -543 -39 vlineto
            119 -19 20 -23 -88 vvcurveto
            17 callsubr
          </CharString>
          <CharString index="267">
            64 121 121 86 -65 -93 vhcurveto
            -4 42 vlineto
            2 14 1 17 16 vvcurveto
            124 -89 123 -163 vhcurveto
            return
          </CharString>
          <CharString index="268">
            1130 rmoveto
            185 98 140 140 19 -2 18 -3 18 hvcurveto
            -45 -5 hlineto
            -105 -96 -72 -137 return
          </CharString>
          <CharString index="269">
            -15 18 70 vvcurveto
            688 vlineto
            70 15 18 104 17 vhcurveto
            40 -471 -40 vlineto
            95 -14 14 -17 -67 vvcurveto
            return
          </CharString>
          <CharString index="270">
            1152 rmoveto
            97 72 71 194 -8 hvcurveto
            -45 hlineto
            -100 -4 -27 -31 -44 hhcurveto
            -30 -24 12 28 return
          </CharString>
          <CharString index="271">
            -173 -747 rmoveto
            -61 -49 -46 -59 -59 49 -47 61 60 49 47 59 59 -49 46 -60 hvcurveto
            endchar
          </CharString>
          <CharString index="272">
            14 22 -27 hvcurveto
            38 32 31 39 40 -33 29 -39 -42 -32 -30 -41 -83 96 -69 136 hvcurveto
            endchar
          </CharString>
          <CharString index="273">
            -40 hlineto
            101 -16 18 -19 -70 vvcurveto
            -688 vlineto
            -70 -18 -18 -101 -17 vhcurveto
            -39 -76 callsubr
            return
          </CharString>
          <CharString index="274">
            1567 rmoveto
            60 49 47 59 59 -49 45 -60 -61 -49 -45 -59 -59 49 -47 61 hvcurveto
            return
          </CharString>
          <CharString index="275">
            408 246 50 -246 213 vlineto
            -243 -28 rlineto
            -185 -120 vlineto
            endchar
          </CharString>
          <CharString index="276">
            72 105 vhcurveto
            5 -45 vlineto
            -3 -18 -2 -18 -19 vvcurveto
            -140 98 -140 184 vhcurveto
            return
          </CharString>
          <CharString index="277">
            hlineto
            -61 -274 -94 -53 -334 -14 rrcurveto
            -290 -10 797 1361 rlineto
            37 return
          </CharString>
          <CharString index="278">
            1907 rmoveto
            -77 -54 -35 -34 -30 hvcurveto
            -29 vlineto
            13 20 38 11 42 hhcurveto
            58 return
          </CharString>
          <CharString index="279">
            -25 -62 -16 hvcurveto
            34 -22 rlineto
            122 22 65 35 67 vvcurveto
            67 -75 40 -85 vhcurveto
            return
          </CharString>
          <CharString index="280">
            -31 22 rlineto
            37 -53 -43 23 -56 hhcurveto
            -97 -72 -71 -195 8 hvcurveto
            45 hlineto
            100 return
          </CharString>
          <CharString index="281">
            -38 -212 -66 -51 -184 -8 rrcurveto
            -211 -8 530 895 rlineto
            37 vlineto
            return
          </CharString>
          <CharString index="282">
            -44 -51 -84 -54 hvcurveto
            49 hlineto
            175 68 64 68 84 vvcurveto
            84 -75 59 -107 vhcurveto
            return
          </CharString>
          <CharString index="283">
            hhcurveto
            93 callsubr
            hvcurveto
            295 15 rmoveto
            389 124 284 307 return
          </CharString>
          <CharString index="284">
            436 rmoveto
            270 -222 150 -368 vhcurveto
            -172 405 hlineto
            97 return
          </CharString>
          <CharString index="285">
            4 hlineto
            105 96 72 136 136 97 -72 -105 vhcurveto
            -4 45 vlineto
            3 17 return
          </CharString>
          <CharString index="286">
            rmoveto
            71 57 54 69 70 -57 54 -71 -72 -57 -54 -70 -69 57 -54 72 hvcurveto
            return
          </CharString>
          <CharString index="287">
            -226 86 -185 133 -129 vhcurveto
            -129 -145 40 -36 129 146 rlineto
            -108 132 168 -60 177 hhcurveto
            442 291 332 414 226 -86 185 -134 128 hvcurveto
            129 145 -39 36 -130 -146 rlineto
            108 -131 -169 60 -177 176 callsubr
            157 123 -96 -157 78 vhcurveto
            -723 -814 rlineto
            -43 110 -23 135 149 vvcurveto
            879 -27 rmoveto
            -389 -125 -285 -305 -158 -124 96 157 -77 vhcurveto
            722 815 rlineto
            44 -111 23 -134 -149 vvcurveto
            endchar
          </CharString>
          <CharString index="288">
            rmoveto
            291 227 209 300 149 -54 124 -88 87 hvcurveto
            90 97 -38 35 -91 -98 rlineto
            70 -88 -115 39 -128 hhcurveto
            -291 -226 -208 -300 -151 54 -125 90 -87 hvcurveto
            -86 -93 37 -34 87 94 rlineto
            -69 88 115 -39 126 hhcurveto
            -255 516 rmoveto
            270 94 174 160 97 77 -69 -117 45 vhcurveto
            -446 -483 rlineto
            -18 64 -9 76 85 vvcurveto
            262 -462 rmoveto
            -96 -76 67 115 -45 hvcurveto
            446 482 rlineto
            17 -63 10 -74 -83 vvcurveto
            -270 -95 -174 -161 vhcurveto
            endchar
          </CharString>
          <CharString index="289">
            rmoveto
            153 93 91 190 99 hvcurveto
            -199 46 65 -77 123 hhcurveto
            81 71 42 58 42 hvcurveto
            36 vlineto
            -13 -17 -24 -7 -23 hhcurveto
            -68 -48 51 253 -70 hvcurveto
            -20 71 233 499 rlineto
            -234 hlineto
            -22 -103 -27 -111 -31 -111 rrcurveto
            225 -68 -101 118 -197 hhcurveto
            -253 -166 -220 -290 -330 176 -173 187 hvcurveto
            -104 525 rmoveto
            266 68 164 117 107 49 -108 -241 45 vhcurveto
            46 -238 rlineto
            -175 -64 -68 -92 -101 hhcurveto
            -123 -76 163 261 hvcurveto
            endchar
          </CharString>
          <CharString index="290">
            rmoveto
            -275 135 -158 188 171 111 140 162 38 vhcurveto
            -170 26 105 -132 187 hhcurveto
            219 162 220 321 280 -114 192 -138 -96 -57 -86 -112 36 hvcurveto
            158 -36 119 -162 -210 vvcurveto
            -176 -74 -106 -124 -138 -80 126 281 vhcurveto
            200 -221 -200 vlineto
            -297 -64 -108 -115 -115 -66 118 224 235 71 191 135 91 vhcurveto
            -25 26 rlineto
            -268 -69 -166 -231 -279 vvcurveto
            endchar
          </CharString>
          <CharString index="291">
            rmoveto
            228 157 95 134 78 hvcurveto
            39 vlineto
            -69 -66 -125 -49 -144 -1 rrcurveto
            -155 -102 57 100 101 93 61 197 hvcurveto
            87 hlineto
            -32 162 rlineto
            -48 hlineto
            -217 -96 58 106 94 80 67 163 93 81 -16 -36 54 hvcurveto
            -53 -3 -48 -42 -64 vvcurveto
            -54 42 -54 70 59 51 48 65 119 -119 93 -262 -288 -137 -121 -154 -146 130 -99 211 -6 vhcurveto
            -239 -7 -125 -85 -137 vvcurveto
            -158 152 -101 233 vhcurveto
            endchar
          </CharString>
          <CharString index="292">
            65 44 97 hhcurveto
            126 70 -77 -155 hvcurveto
            -516 vlineto
            -67 -12 -17 -97 -15 vhcurveto
            -39 462 39 vlineto
            -97 15 -12 17 67 vvcurveto
            563 vlineto
            30 -3 28 -5 25 vhcurveto
            63 39 69 39 95 hhcurveto
            127 72 -77 -155 hvcurveto
            -516 vlineto
            -67 -12 -16 -97 -16 vhcurveto
            -39 471 39 vlineto
            -102 17 -17 18 70 vvcurveto
            542 vlineto
            208 -131 101 -192 -151 -125 -75 -109 -54 vhcurveto
            120 -37 -114 64 -151 hhcurveto
            -156 -115 -76 -106 -53 hvcurveto
            return
          </CharString>
          <CharString index="293">
            -452 342 -285 383 -6 vhcurveto
            -97 -76 -63 -96 -101 vvcurveto
            -109 83 -74 111 86 74 45 66 27 vhcurveto
            39 vlineto
            -20 -17 -28 -15 -34 hhcurveto
            -74 -58 82 106 60 14 56 24 38 hvcurveto
            421 18 275 325 402 vvcurveto
            -104 callsubr
            -388 93 callsubr
            82 callsubr
            307 -36 callgsubr
            -125 -285 -305 -278 -171 297 404 vhcurveto
            endchar
          </CharString>
          <CharString index="294">
            rmoveto
            87 69 35 51 22 hvcurveto
            -54 11 54 -29 63 hhcurveto
            45 39 12 61 callgsubr
            239 vlineto
            120 -89 53 -147 -143 -93 -56 -71 -40 34 -30 42 43 32 31 41 33 -21 26 -29 8 vhcurveto
            10 22 27 5 29 hhcurveto
            82 48 -36 -92 hvcurveto
            -50 vlineto
            -109 -22 rlineto
            -160 -31 -61 -52 -76 vvcurveto
            -74 64 -51 92 vhcurveto
            8 151 rmoveto
            58 32 36 92 20 vhcurveto
            42 9 rlineto
            -165 vlineto
            -27 -16 -30 -15 -38 hhcurveto
            -47 -35 30 54 hvcurveto
            endchar
          </CharString>
          <CharString index="295">
            rmoveto
            336 vlineto
            110 -2 288 -472 rlineto
            318 37 hlineto
            -62 16 -39 41 -95 157 rrcurveto
            -246 394 95 103 139 143 50 25 101 21 rlinecurve
            40 -368 -40 vlineto
            113 -20 8 -36 -85 -98 rrcurveto
            -220 -260 -107 -2 rlineto
            318 vlineto
            84 callgsubr
            -101 callsubr
            endchar
          </CharString>
          <CharString index="296">
            rmoveto
            -80 65 -63 88 155 91 123 260 132 vhcurveto
            434 859 70 140 30 24 117 21 rlinecurve
            39 -396 -39 vlineto
            163 -21 12 -20 -68 -144 rrcurveto
            -303 -636 -333 654 -65 129 3 22 159 16 rlinecurve
            39 -587 -39 vlineto
            108 -19 30 -23 61 -115 rrcurveto
            488 -922 -68 -133 -54 -86 -64 -45 rlinecurve
            7 17 4 18 20 vvcurveto
            79 -62 65 -77 -79 -61 -63 -77 vhcurveto
            endchar
          </CharString>
          <CharString index="297">
            223 -119 166 -174 66 hvcurveto
            -9 42 49 -6 50 hhcurveto
            160 106 60 104 89 -68 81 -98 40 hvcurveto
            -40 hlineto
            20 -25 18 -53 -53 vvcurveto
            -115 -1 -86 -81 -156 -71 -61 17 -97 hhcurveto
            -284 -226 -211 -298 -308 217 -197 298 hvcurveto
            6 55 rmoveto
            -162 -97 183 276 273 87 173 165 162 97 -183 -277 -273 -87 -172 -165 hvcurveto
            return
          </CharString>
          <CharString index="298">
            252 hlineto
            66 -8 694 -1 vvcurveto
            73 28 67 45 96 hhcurveto
            137 69 -81 -233 -259 -5 -326 -10 -438 hvcurveto
            252 hlineto
            -5 1069 rlineto
            292 -1 -139 94 -191 hhcurveto
            -160 -110 -82 -111 -35 hvcurveto
            120 -10 -71 67 -111 hhcurveto
            -83 -69 -36 -44 -40 hvcurveto
            -39 vlineto
            9 12 20 6 24 hhcurveto
            72 39 -44 -133 -2 hvcurveto
            -97 -12 -442 -6 -169 vhcurveto
            endchar
          </CharString>
          <CharString index="299">
            298 698 rmoveto
            152 138 80 147 112 -85 84 -132 13 hvcurveto
            116 16 77 62 85 vvcurveto
            96 -86 62 -133 -141 -93 -74 53 callgsubr
            -67 -75 -68 -53 -149 -19 hvcurveto
            -32 vlineto
            2 12 19 1 17 hhcurveto
            108 78 -64 -104 -99 -69 -62 -89 -44 -39 15 22 -27 hvcurveto
            38 32 31 38 41 -33 29 -39 -42 -32 -30 -41 -83 96 -70 136 hvcurveto
            return
          </CharString>
          <CharString index="300">
            -31 hhcurveto
            -76 -63 95 125 46 10 47 17 37 hvcurveto
            270 21 205 203 284 vvcurveto
            -102 callsubr
            -306 223 -197 288 -2 vhcurveto
            -95 -85 -51 -93 -97 vvcurveto
            -114 87 -70 103 vhcurveto
            -34 514 rmoveto
            -156 -103 181 280 271 92 173 160 156 103 -181 -280 -271 -92 -173 -160 hvcurveto
            endchar
          </CharString>
          <CharString index="301">
            367 41 0 35 -60 17 rlineto
            -58 18 -8 13 58 vvcurveto
            780 vlineto
            -2 15 17 -1 18 hhcurveto
            102 80 50 95 hvcurveto
            1 88 -72 85 -100 37 rrcurveto
            -40 hlineto
            20 -24 17 -52 -53 vvcurveto
            -119 -86 -81 -230 -20 vhcurveto
            -106 -10 0 -35 56 -17 rlineto
            58 -19 7 -12 -57 vvcurveto
            -606 vlineto
            -64 -38 -69 -45 -93 hhcurveto
            -132 -74 78 158 hvcurveto
            return
          </CharString>
          <CharString index="302">
            rmoveto
            762 vlineto
            249 -13 0 76 -249 -12 rlineto
            250 vlineto
            157 51 63 86 16 15 -2 -5 14 vhcurveto
            -41 -10 -30 -37 -47 vvcurveto
            -57 43 -42 56 55 44 43 56 90 -74 71 -150 -188 -140 -123 -235 vhcurveto
            -161 vlineto
            -119 -44 rlineto
            -31 119 -760 -79 callsubr
            -76 callsubr
            endchar
          </CharString>
          <CharString index="303">
            560 vlineto
            336 314 128 286 hvcurveto
            -337 668 rmoveto
            -192 -110 -101 -195 -1 vhcurveto
            -164 -1 0 611 105 -3 rlineto
            262 -8 102 -128 -177 vvcurveto
            55 -683 rmoveto
            -219 -151 -123 -268 -8 vhcurveto
            -105 -3 0 695 164 -2 rlineto
            233 -3 127 -137 -200 vvcurveto
            return
          </CharString>
          <CharString index="304">
            rmoveto
            280 221 199 310 313 -203 192 -295 -284 -222 -198 -311 -312 205 -193 298 hvcurveto
            4 55 rmoveto
            -156 -89 191 272 271 82 171 158 152 90 -191 -272 -271 -82 -171 -155 hvcurveto
            endchar
          </CharString>
          <CharString index="305">
            436 -1201 138 0 422 1157 72 199 33 37 105 17 rlinecurve
            39 -387 -39 vlineto
            143 -21 16 -44 -61 -183 rrcurveto
            -306 -911 -328 946 -52 151 24 45 128 17 rlinecurve
            39 -575 -39 vlineto
            101 -17 35 -37 56 -155 rrcurveto
            return
          </CharString>
          <CharString index="306">
            309 -780 101 0 293 743 61 154 27 27 83 16 rlinecurve
            40 -326 -40 vlineto
            116 -17 18 -29 -48 -142 rrcurveto
            -179 -508 -185 513 -47 138 17 28 119 17 rlinecurve
            40 -515 -40 vlineto
            82 -16 27 -26 47 -118 rrcurveto
            return
          </CharString>
          <CharString index="307">
            70 17 19 101 16 vhcurveto
            40 -469 -40 vlineto
            95 -14 12 -17 -67 vvcurveto
            -790 -366 790 vlineto
            67 12 18 95 13 vhcurveto
            40 -458 -40 vlineto
            95 -13 12 -18 -67 vvcurveto
            -790 -367 790 vlineto
            67 12 17 95 14 vhcurveto
            40 -469 16 callsubr
            return
          </CharString>
          <CharString index="308">
            1582 rmoveto
            180 109 108 116 65 -45 44 -58 -60 95 callgsubr
            -40 -74 -37 -95 hhcurveto
            -96 -74 37 53 -41 hvcurveto
            -3 9 10 -2 11 hhcurveto
            52 44 43 56 56 -43 45 -59 -58 -45 -44 -65 -116 109 -108 181 hvcurveto
            return
          </CharString>
          <CharString index="309">
            rmoveto
            183 -139 104 -305 vhcurveto
            -149 235 hlineto
            78 15 18 116 16 vhcurveto
            40 -493 16 callsubr
            526 vlineto
            259 66 callgsubr
            79 -95 -150 vvcurveto
            -146 -98 -89 -148 -6 vhcurveto
            -100 -4 rlineto
            496 vlineto
            endchar
          </CharString>
          <CharString index="310">
            rmoveto
            169 129 109 157 159 -126 102 -169 -170 -128 -109 -156 -159 126 -103 169 hvcurveto
            3 39 rmoveto
            -74 -47 86 142 138 41 84 76 74 47 -88 -142 -137 -41 -83 -76 hvcurveto
            endchar
          </CharString>
          <CharString index="311">
            1252 -747 rmoveto
            16 397 rlineto
            -36 170 callsubr
            -1056 vlineto
            -17 -37 callgsubr
            346 13 rrcurveto
            263 9 -796 -1361 rlineto
            -37 vlineto
            -450 726 -59 callgsubr
            47 callgsubr
            endchar
          </CharString>
          <CharString index="312">
            1123 rmoveto
            181 102 113 114 67 -45 45 -60 -60 -43 -46 -57 -58 45 -43 53 11 11 2 3 9 hvcurveto
            -52 -38 -69 62 callgsubr
            44 43 58 57 -42 46 -60 -61 -45 -45 -67 -114 102 -113 182 hvcurveto
            return
          </CharString>
          <CharString index="313">
            1347 1265 414 rmoveto
            229 -200 124 -292 13 vhcurveto
            226 15 200 105 201 vvcurveto
            227 -224 116 -360 vhcurveto
            -560 -72 callsubr
            -107 callsubr
            196 callsubr
            return
          </CharString>
          <CharString index="314">
            -233 -332 -269 -111 -211 -231 -70 vhcurveto
            -294 600 vlineto
            48 369 rlineto
            -32 hlineto
            -71 -169 -147 -40 -349 -2 rrcurveto
            107 vlineto
            355 48 213 236 311 vvcurveto
            340 -293 265 return
          </CharString>
          <CharString index="315">
            523 vlineto
            218 -5 124 -5 26 -48 28 -151 rlinecurve
            35 464 -35 hlineto
            -30 -152 -26 -46 -122 -5 rrcurveto
            -218 -6 0 646 180 -8 269 -13 86 -60 53 -232 rlinecurve
            37 hlineto
            endchar
          </CharString>
          <CharString index="316">
            1555 rmoveto
            92 70 66 181 -7 hvcurveto
            -45 hlineto
            -91 -5 -25 -28 -40 hhcurveto
            -29 -23 11 25 -35 hvcurveto
            -29 19 rlineto
            35 -50 -42 21 -52 hhcurveto
            -93 -69 -66 -181 7 hvcurveto
            45 hlineto
            91 5 26 29 40 hhcurveto
            return
          </CharString>
          <CharString index="317">
            -473 rmoveto
            91 79 38 61 35 hvcurveto
            38 vlineto
            -23 -20 -35 -12 -39 hhcurveto
            -57 -52 43 83 89 53 87 142 100 hvcurveto
            -44 -1 rlineto
            -241 -116 -91 -112 -113 vvcurveto
            -101 78 -61 101 vhcurveto
            endchar
          </CharString>
          <CharString index="318">
            -165 9 -624 rcurveline
            -306 5 -165 -182 -249 hhcurveto
            -239 -170 154 338 hvcurveto
            712 vlineto
            88 20 23 120 19 vhcurveto
            39 -537 -39 vlineto
            111 -19 21 -20 -85 vvcurveto
            return
          </CharString>
          <CharString index="319">
            1066 609 1381 rmoveto
            91 59 -14 callgsubr
            -60 -63 -124 1 hvcurveto
            43 hlineto
            56 1 28 22 46 hhcurveto
            27 29 -8 -15 39 hvcurveto
            31 -11 rlineto
            -15 41 42 -11 45 hhcurveto
            return
          </CharString>
          <CharString index="320">
            134 -420 vlineto
            125 93 201 140 78 81 1 104 rlinecurve
            114 -88 79 -138 -139 -91 -72 -120 -34 vhcurveto
            26 -11 rlineto
            64 26 53 43 76 hhcurveto
            81 51 -52 return
          </CharString>
          <CharString index="321">
            0 112 42 callgsubr
            -47 hhcurveto
            -27 -28 7 15 -40 hvcurveto
            -30 11 rlineto
            15 -42 -42 11 -45 hhcurveto
            -89 -61 -63 -124 2 hvcurveto
            42 hlineto
            56 1 28 33 callgsubr
            return
          </CharString>
          <CharString index="322">
            rmoveto
            175 141 137 242 238 -142 141 -173 -175 -141 -137 -243 -237 142 -141 173 hvcurveto
            3 39 rmoveto
            -84 -48 107 244 return
          </CharString>
          <CharString index="323">
            1283 rmoveto
            -112 117 -69 142 143 117 69 113 112 -117 71 -143 -142 -117 -71 -113 vhcurveto
            164 37 callgsubr
            return
          </CharString>
          <CharString index="324">
            264 1475 rmoveto
            -71 -48 -53 -72 -1 hvcurveto
            -50 9 -34 28 -122 vhcurveto
            65 -278 34 0 67 278 rlineto
            28 121 8 35 50 vvcurveto
            72 -48 53 -71 vhcurveto
            return
          </CharString>
          <CharString index="325">
            156 80 70 -26 -41 46 vhcurveto
            -4 -4 1 -3 hhcurveto
            -61 -50 -49 -66 -65 51 -51 66 64 54 51 67 146 -153 98 -211 -232 -228 -122 -274 return
          </CharString>
          <CharString index="326">
            -28 20 rlineto
            33 -50 -40 21 -52 hhcurveto
            -90 -67 -64 -175 7 hvcurveto
            42 hlineto
            90 4 25 28 41 hhcurveto
            28 22 -11 -24 35 hvcurveto
            29 -21 rlineto
            -34 49 41 -20 51 hhcurveto
            endchar
          </CharString>
          <CharString index="327">
            hlineto
            14 hlineto
            179 465 16 -543 1 -46 -13 -11 -61 -9 rlinecurve
            -29 327 88 callgsubr
            13 13 61 9 rlinecurve
            29 -266 vlineto
            -185 -537 rlineto
            return
          </CharString>
          <CharString index="328">
            363 193 227 342 6 vhcurveto
            8 637 3 164 19 39 119 17 rlinecurve
            40 -372 -39 vlineto
            130 -20 19 -37 3 211 callsubr
            return
          </CharString>
          <CharString index="329">
            -24 -28 -41 hhcurveto
            -28 -23 11 25 -35 hvcurveto
            -28 20 rlineto
            33 -50 -40 21 -51 hhcurveto
            -90 -68 -64 -175 8 hvcurveto
            42 hlineto
            90 4 24 28 41 hhcurveto
            28 23 -11 -24 return
          </CharString>
        <CharString name=".notdef">
          2048 160 -494 rmoveto
          90 2444 -90 hlineto
          -56 callgsubr
          409 -2444 rmoveto
          90 2444 -90 hlineto
          -56 callgsubr
          -56 callgsubr
          endchar
        </CharString>
        <CharString name=".null">
          0 endchar
        </CharString>
        <CharString name="A">
          1377 1195 248 -98 callsubr
        </CharString>
        <CharString name="AE">
          1909 1782 1444 146 callsubr
        </CharString>
        <CharString name="AEacute">
          1909 1174 -86 callsubr
          -51 callsubr
          657 -91 146 callsubr
        </CharString>
        <CharString name="AEmacron">
          1909 974 -66 callsubr
          808 -270 146 callsubr
        </CharString>
        <CharString name="Aacute">
          1377 633 25 callsubr
          612 -1287 -98 callsubr
        </CharString>
        <CharString name="Abreve">
          1377 684 1581 rmoveto
          163 89 122 124 16 -1 17 -3 15 hvcurveto
          -41 -4 hlineto
          -94 -86 62 callsubr
          95 callsubr
          511 -1333 -98 callsubr
        </CharString>
        <CharString name="Abreveacute">
          1377 951 1843 rmoveto
          124 vlineto
          -534 -167 rlineto
          -36 vlineto
          267 -222 155 callsubr
        </CharString>
        <CharString name="Abrevecyrillic">
          1377 684 1582 rmoveto
          180 110 108 116 65 -45 44 -59 -59 95 callgsubr
          -41 -73 -37 -96 hhcurveto
          -96 -73 37 53 -41 hvcurveto
          -3 9 10 -2 11 hhcurveto
          52 44 43 56 56 -43 45 -59 -59 -44 -44 -65 -116 109 -108 180 hvcurveto
          511 -1334 -98 callsubr
        </CharString>
        <CharString name="Abrevedotbelow">
          1377 684 1581 rmoveto
          163 89 122 124 16 -1 17 -3 15 hvcurveto
          -41 -4 hlineto
          -94 -86 62 callsubr
          95 callsubr
          511 -1333 rmoveto
          -16 callsubr
          60 callsubr
          164 callsubr
        </CharString>
        <CharString name="Abrevegrave">
          1377 418 -70 callgsubr
          266 -425 155 callsubr
        </CharString>
        <CharString name="Abrevehookabove">
          1377 676 25 callgsubr
          61 37 -23 -36 -36 -32 -25 -65 -16 hvcurveto
          36 -22 rlineto
          127 23 68 34 67 vvcurveto
          67 -77 40 -90 vhcurveto
          8 -416 155 callsubr
        </CharString>
        <CharString name="Abrevetilde">
          1377 799 1794 84 callsubr
          -29 -19 -46 74 callsubr
          140 callsubr
          -7 -12 41 hvcurveto
          31 70 callgsubr
          113 76 120 -8 hvcurveto
          -44 hlineto
          -52 -5 -92 -42 callgsubr
          -43 hlineto
          -120 -8 112 -76 162 hhcurveto
          511 -1294 -98 callsubr
        </CharString>
        <CharString name="Acaron">
          1377 914 -44 callsubr
          -10 callsubr
          233 -1580 -98 callsubr
        </CharString>
        <CharString name="Acircumflex">
          1377 476 -39 callsubr
          -203 85 callsubr
          766 -1286 -98 callsubr
        </CharString>
        <CharString name="Acircumflexacute">
          1377 951 1821 -101 callgsubr
          1 -240 rmoveto
          -27 callsubr
          778 -1291 -98 callsubr
        </CharString>
        <CharString name="Acircumflexdotbelow">
          1377 476 -39 callsubr
          -203 85 callsubr
          766 -1286 rmoveto
          -16 callsubr
          60 callsubr
          164 callsubr
        </CharString>
        <CharString name="Acircumflexgrave">
          1377 418 1821 -102 callgsubr
          -443 vmoveto
          -27 callsubr
          778 -1291 -98 callsubr
        </CharString>
        <CharString name="Acircumflexhookabove">
          1377 912 171 callsubr
          36 -23 -35 -36 -32 172 callsubr
          -494 -404 rmoveto
          -27 callsubr
          778 -1291 -98 callsubr
        </CharString>
        <CharString name="Acircumflextilde">
          1377 799 77 callgsubr
          -29 -18 -46 -48 callgsubr
          -41 10 -47 hhcurveto
          -92 -62 -54 -106 -52 callgsubr
          72 callsubr
          -381 -269 rmoveto
          -27 callsubr
          778 -1291 -98 callsubr
        </CharString>
        <CharString name="Acyrillic">
          1377 1195 248 -98 callsubr
        </CharString>
        <CharString name="Adblgrave">
          1377 497 27 callsubr
          52 -71 callgsubr
          50 hlineto
          309 -1285 -98 callsubr
        </CharString>
        <CharString name="Adieresis">
          1377 526 1569 rmoveto
          -61 callgsubr
          -6 callsubr
          -25 callsubr
          352 -1321 -98 callsubr
        </CharString>
        <CharString name="Adieresismacron">
          1377 417 -38 callgsubr
          122 -351 -8 callsubr
          -49 -39 -33 -43 -45 39 -33 49 hvcurveto
          304 -4 callsubr
          -44 callgsubr
          366 -1314 -98 callsubr
        </CharString>
        <CharString name="Adotaccent">
          1377 684 -30 callsubr
          38 callsubr
          511 -1319 -98 callsubr
        </CharString>
        <CharString name="Adotbelow">
          1377 1195 248 rmoveto
          -16 callsubr
          60 callsubr
          164 callsubr
        </CharString>
        <CharString name="Adotmacron">
          1377 417 1796 rmoveto
          535 94 -535 hlineto
          3 callgsubr
          511 -1309 -98 callsubr
        </CharString>
        <CharString name="Agrave">
          1377 758 1534 rmoveto
          48 hlineto
          -121 275 rlineto
          -260 -5 hlineto
          770 -1556 -98 callsubr
        </CharString>
        <CharString name="Ahookabove">
          1377 710 -31 callsubr
          -13 callgsubr
          485 -1606 -98 callsubr
        </CharString>
        <CharString name="Ainvertedbreve">
          1377 683 1875 rmoveto
          -163 -88 -69 callgsubr
          -62 callgsubr
          90 callgsubr
          512 -1627 -98 callsubr
        </CharString>
        <CharString name="Alphagreek">
          1377 1195 248 -98 callsubr
        </CharString>
        <CharString name="Alphatonosgreek">
          1377 1195 248 rmoveto
          -16 callsubr
          576 39 vlineto
          -101 17 -35 37 -57 155 rrcurveto
          -960 836 137 callsubr
          185 -518 rmoveto
          213 631 219 -631 rlineto
          endchar
        </CharString>
        <CharString name="Amacron">
          1377 433 -66 callsubr
          762 -1466 -98 callsubr
        </CharString>
        <CharString name="Aogonek">
          1377 1113 -478 rmoveto
          88 73 45 66 27 hvcurveto
          39 vlineto
          50 callgsubr
          255 39 hlineto
          -101 17 -35 37 -57 155 rrcurveto
          -16 callsubr
          278 vlineto
          -103 -79 -67 -104 -110 vvcurveto
          -111 83 -74 110 vhcurveto
          -741 1044 rmoveto
          213 631 219 -631 rlineto
          endchar
        </CharString>
        <CharString name="Aring">
          1377 449 1721 rmoveto
          -102 108 -63 127 128 107 63 102 102 -106 65 -129 -128 -107 -65 -102 vhcurveto
          149 hmoveto
          73 35 53 51 51 35 -53 -73 -74 -35 -51 -51 -51 -35 51 74 vhcurveto
          597 -1473 -98 callsubr
        </CharString>
        <CharString name="Aringacute">
          1377 951 1826 rmoveto
          125 vlineto
          -534 -168 rlineto
          -36 vlineto
          290 81 callgsubr
          -46 hlineto
          -123 -83 -35 -55 -54 83 -35 123 hvcurveto
          39 31 rmoveto
          -32 hlineto
          -43 -25 24 34 35 25 23 43 hvcurveto
          32 hlineto
          44 24 -23 -35 -34 -25 -24 -43 hvcurveto
          495 -1317 -98 callsubr
        </CharString>
        <CharString name="Aringbelow">
          1377 1195 248 rmoveto
          -16 callsubr
          60 callsubr
          -433 -853 rmoveto
          -105 117 -64 143 142 117 63 107 103 -117 66 -142 -143 -117 -65 -105 vhcurveto
          164 hmoveto
          75 38 54 58 57 38 -54 -74 -78 -38 -50 -57 -58 -38 51 76 vhcurveto
          endchar
        </CharString>
        <CharString name="Atilde">
          1377 794 209 callsubr
          28 23 -12 -25 -104 callgsubr
          401 -1307 -98 callsubr
        </CharString>
        <CharString name="B">
          1347 1265 414 112 callsubr
        </CharString>
        <CharString name="Bdotaccent">
          1347 667 -30 callsubr
          -60 -49 -45 -59 -59 49 -47 60 hvcurveto
          598 -1153 112 callsubr
        </CharString>
        <CharString name="Bdotbelow">
          206 callsubr
          -315 -580 -78 callsubr
        </CharString>
        <CharString name="Becyrillic">
          1285 1221 415 rmoveto
          250 -214 154 -382 vhcurveto
          -166 579 hlineto
          192 -6 281 -9 77 -46 53 -234 rlinecurve
          37 hlineto
          -15 341 rlineto
          -1029 -72 callsubr
          -107 callsubr
          572 vlineto
          371 223 158 257 hvcurveto
          -282 -4 rmoveto
          -214 -116 -137 -252 -9 vhcurveto
          -112 -4 0 723 112 -3 rlineto
          248 -9 120 -137 -210 vvcurveto
          endchar
        </CharString>
        <CharString name="Betagreek">
          1347 1265 414 112 callsubr
        </CharString>
        <CharString name="Blinebelow">
          206 callsubr
          -575 -746 -61 callsubr
        </CharString>
        <CharString name="C">
          1405 91 731 -15 callsubr
          -34 callsubr
        </CharString>
        <CharString name="Cacute">
          1405 795 -86 callsubr
          -60 callsubr
          -654 -804 -15 callsubr
          -34 callsubr
        </CharString>
        <CharString name="Ccaron">
          1405 1076 -23 callsubr
          32 callsubr
          -1033 -1097 -15 callsubr
          -34 callsubr
        </CharString>
        <CharString name="Ccedilla">
          1405 91 731 rmoveto
          -456 316 -285 420 -11 vhcurveto
          -123 -156 -33 callgsubr
          -85 callgsubr
          -50 71 callsubr
          -105 callgsubr
          69 90 rlineto
          194 4 166 51 69 50 12 350 rcurveline
          -49 callgsubr
          -34 callsubr
        </CharString>
        <CharString name="Ccedillaacute">
          1405 795 -86 callsubr
          -60 callsubr
          -654 -804 rmoveto
          -456 316 -285 420 -11 vhcurveto
          -123 -156 -33 callgsubr
          -85 callgsubr
          -50 71 callsubr
          -105 callgsubr
          69 90 rlineto
          194 4 166 51 69 50 12 350 rcurveline
          -49 callgsubr
          -34 callsubr
        </CharString>
        <CharString name="Ccircumflex">
          1405 639 -1 callsubr
          -5 callsubr
          -500 -803 -15 callsubr
          -34 callsubr
        </CharString>
        <CharString name="Cdotaccent">
          1405 847 167 callsubr
          -756 -836 -15 callsubr
          -34 callsubr
        </CharString>
        <CharString name="Checyrillic">
          1515 1321 -71 callsubr
          8 callsubr
          -536 -39 vlineto
          113 -18 19 -20 -86 vvcurveto
          -581 vlineto
          -37 -80 -93 -19 -110 hhcurveto
          -230 -106 127 250 hvcurveto
          260 vlineto
          86 20 20 112 18 vhcurveto
          39 -529 -39 vlineto
          113 -18 20 -20 -86 vvcurveto
          -251 vlineto
          -310 204 -147 314 150 126 31 46 89 vhcurveto
          -468 vlineto
          -97 -20 -28 -131 -18 vhcurveto
          -39 555 39 vlineto
          96 callsubr
        </CharString>
        <CharString name="Chigreek">
          1364 283 294 48 callsubr
        </CharString>
        <CharString name="D">
          1540 36 callsubr
          endchar
        </CharString>
        <CharString name="Dbar">
          1540 55 714 rmoveto
          139 -545 hlineto
          -88 -19 -23 -120 -19 vhcurveto
          -39 530 vlineto
          473 400 263 484 451 -356 246 -520 hvcurveto
          -527 -72 callsubr
          -509 -139 vlineto
          1110 -40 -59 callgsubr
          rlineto
          668 296 52 -296 632 vlineto
          91 -3 393 -12 223 -262 -1 -395 rlinecurve
          endchar
        </CharString>
        <CharString name="Dcaron">
          1540 967 -44 callsubr
          203 -275 128 0 203 275 rlineto
          444 -1081 110 callsubr
          endchar
        </CharString>
        <CharString name="Dcircumflexbelow">
          1540 36 callsubr
          -673 -1174 -38 callsubr
        </CharString>
        <CharString name="Dcommaaccent">
          1540 36 callsubr
          -460 -1179 83 callsubr
          -81 -57 98 callsubr
          30 8 32 hhcurveto
          60 46 -28 -49 -48 9 callsubr
          80 callsubr
        </CharString>
        <CharString name="Ddotaccent">
          1540 737 -53 callsubr
          90 callsubr
          721 -820 110 callsubr
          endchar
        </CharString>
        <CharString name="Ddotbelow">
          1540 36 callsubr
          -453 -907 -47 callsubr
        </CharString>
        <CharString name="Decyrillic">
          1449 1406 51 rmoveto
          -184 1210 hlineto
          97 20 29 130 18 vhcurveto
          39 -1168 -39 vlineto
          138 -19 47 -40 -4 -148 rrcurveto
          -6 -177 -12 -426 -51 -346 -143 -198 rlinecurve
          -149 hlineto
          -8 -392 rlineto
          43 hlineto
          285 69 77 56 252 hhcurveto
          517 hlineto
          259 70 -65 -276 66 hvcurveto
          44 hlineto
          -456 392 rmoveto
          -708 hlineto
          132 198 51 330 11 442 10 372 rcurveline
          504 hlineto
          endchar
        </CharString>
        <CharString name="Deltagreek">
          1285 46 hmoveto
          1193 130 hlineto
          -528 1320 -137 0 -528 -1319 rlineto
          80 40 rmoveto
          424 1042 396 -1042 rlineto
          endchar
        </CharString>
        <CharString name="Djecyrillic">
          1696 -45 callsubr
          -27 callgsubr
          516 vlineto
          38 62 84 21 96 hhcurveto
          209 131 -156 -284 3 hvcurveto
          1 -279 -108 -250 -199 -125 21 -34 rcurveline
          325 135 224 251 319 vvcurveto
          330 -219 169 -286 -153 -117 -36 -49 -74 vhcurveto
          654 76 callgsubr
        </CharString>
        <CharString name="Dlinebelow">
          1540 36 callsubr
          -713 -1073 -2 callsubr
        </CharString>
        <CharString name="Dzecyrillic">
          1177 569 -22 104 callsubr
          endchar
        </CharString>
        <CharString name="Dzhecyrillic">
          1578 1384 1275 rmoveto
          88 8 callsubr
          -537 -39 vlineto
          112 -19 34 callgsubr
          19 vhcurveto
          39 -537 37 callsubr
          -107 callsubr
          525 vlineto
          118 25 -39 -289 45 hvcurveto
          43 hlineto
          289 45 25 39 117 hhcurveto
          525 39 hlineto
          96 callsubr
        </CharString>
        <CharString name="E">
          1229 1105 1444 -95 callsubr
        </CharString>
        <CharString name="Eacute">
          1229 588 -86 callsubr
          -60 callsubr
          567 -91 -95 callsubr
        </CharString>
        <CharString name="Ebreve">
          1229 640 158 callsubr
          -2 -15 -2 -43 callgsubr
          465 -137 -95 callsubr
        </CharString>
        <CharString name="Ecaron">
          1229 869 -23 callsubr
          32 callsubr
          188 -384 -95 callsubr
        </CharString>
        <CharString name="Ecedilla">
          1229 606 -453 -39 callgsubr
          -13 -14 -1 -2 -12 hvcurveto
          79 103 rlineto
          8 485 vlineto
          -36 callsubr
          -15 359 rlineto
          -29 callsubr
          566 vlineto
          -140 -177 1 -36 rlineto
          5 11 20 86 callsubr
          -61 -47 -50 71 callsubr
          endchar
        </CharString>
        <CharString name="Ecedillabreve">
          1229 640 158 callsubr
          -2 -15 -2 -43 callgsubr
          -34 -2034 -39 callgsubr
          -13 -14 -1 -2 -12 hvcurveto
          79 103 rlineto
          8 485 vlineto
          -36 callsubr
          -15 359 rlineto
          -29 callsubr
          566 vlineto
          -140 -177 1 -36 rlineto
          5 11 20 86 callsubr
          -61 -47 -50 71 callsubr
          endchar
        </CharString>
        <CharString name="Ecircumflex">
          1229 432 -1 callsubr
          -5 callsubr
          721 -90 -95 callsubr
        </CharString>
        <CharString name="Ecircumflexacute">
          1229 906 1821 -101 callgsubr
          1 -240 rmoveto
          -67 callgsubr
          -249 -172 rlineto
          732 -95 -95 callsubr
        </CharString>
        <CharString name="Ecircumflexbelow">
          1229 1105 1444 rmoveto
          -29 callsubr
          1097 vlineto
          -36 callsubr
          -706 -1533 -38 callsubr
        </CharString>
        <CharString name="Ecircumflexdotbelow">
          1229 432 -1 callsubr
          -5 callsubr
          721 -90 rmoveto
          -29 callsubr
          1097 vlineto
          -36 callsubr
          -487 -1266 -78 callsubr
        </CharString>
        <CharString name="Ecircumflexgrave">
          1229 373 1821 -102 callgsubr
          -443 vmoveto
          -67 callgsubr
          -249 -172 rlineto
          732 -95 -95 callsubr
        </CharString>
        <CharString name="Ecircumflexhookabove">
          1229 867 1907 rmoveto
          -77 -54 -35 -34 -29 hvcurveto
          -29 vlineto
          13 20 37 11 42 hhcurveto
          59 35 -23 -35 -36 -31 -25 -63 -16 hvcurveto
          35 -22 rlineto
          121 22 66 35 67 vvcurveto
          67 -76 40 -85 vhcurveto
          -494 -404 rmoveto
          -67 callgsubr
          -249 -172 rlineto
          732 -95 -95 callsubr
        </CharString>
        <CharString name="Ecircumflextilde">
          1229 755 1772 rmoveto
          92 61 54 106 -1 hvcurveto
          -44 hlineto
          -48 -1 -29 -18 -47 hhcurveto
          -28 -28 7 11 -41 hvcurveto
          -31 11 rlineto
          12 -44 -42 10 -47 hhcurveto
          -92 -61 -54 -106 -50 callgsubr
          -90 callgsubr
          41 -9 48 hhcurveto
          -382 -269 rmoveto
          -67 callgsubr
          -249 -172 rlineto
          732 -95 -95 callsubr
        </CharString>
        <CharString name="Ecyrillic">
          1422 91 731 -15 callsubr
          -300 -169 312 366 -10 hvcurveto
          681 -12 0 75 -681 -13 rlineto
          391 5 177 255 292 hhcurveto
          -24 callgsubr
        </CharString>
        <CharString name="Edblgrave">
          1229 452 27 callsubr
          53 hlineto
          204 -68 callgsubr
          264 -89 -95 callsubr
        </CharString>
        <CharString name="Edieresis">
          1229 482 -57 callsubr
          -62 callsubr
          316 hmoveto
          59 46 46 57 58 -46 44 -59 -58 -46 -44 -58 -57 46 -46 58 hvcurveto
          307 -125 -95 callsubr
        </CharString>
        <CharString name="Edotaccent">
          1229 640 -53 callsubr
          30 callsubr
          465 -123 -95 callsubr
        </CharString>
        <CharString name="Edotbelow">
          1229 1105 1444 rmoveto
          -29 callsubr
          1097 vlineto
          -36 callsubr
          -487 -1266 -78 callsubr
        </CharString>
        <CharString name="Efcyrillic">
          1882 71 719 rmoveto
          -305 289 -189 457 -11 vhcurveto
          -52 vlineto
          -98 -21 -29 -131 -17 vhcurveto
          -40 552 40 vlineto
          -130 17 -21 29 98 vvcurveto
          52 vlineto
          475 11 270 189 308 vvcurveto
          301 -269 195 -476 11 vhcurveto
          53 vlineto
          98 21 29 130 17 vhcurveto
          40 -552 -40 vlineto
          131 -17 21 -29 -98 vvcurveto
          -53 vlineto
          -496 -11 -250 -195 -304 vvcurveto
          283 7 rmoveto
          230 124 206 339 16 vhcurveto
          -912 vlineto
          -319 17 -144 207 236 vvcurveto
          1175 -6 rmoveto
          -232 -133 -206 -330 -16 vhcurveto
          911 vlineto
          326 -16 137 -207 -234 vvcurveto
          endchar
        </CharString>
        <CharString name="Egrave">
          1229 713 133 callsubr
          725 -360 -95 callsubr
        </CharString>
        <CharString name="Ehookabove">
          1229 666 -31 callsubr
          25 40 16 48 hhcurveto
          61 39 64 callsubr
          439 -410 -95 callsubr
        </CharString>
        <CharString name="Einvertedbreve">
          1229 639 1875 rmoveto
          -164 -88 -123 -124 -16 2 -17 2 -14 hvcurveto
          41 4 hlineto
          94 86 160 callsubr
          466 -431 -95 callsubr
        </CharString>
        <CharString name="Elcyrillic">
          1457 11 callgsubr
          497 -1224 hlineto
          -89 -21 -22 -118 -19 vhcurveto
          -39 543 39 vlineto
          -118 19 -21 22 89 vvcurveto
          1106 vlineto
          90 21 21 118 19 vhcurveto
          39 -1150 -39 vlineto
          141 -18 42 -50 -18 callgsubr
          endchar
        </CharString>
        <CharString name="Emacron">
          1229 388 -66 callsubr
          717 -270 -95 callsubr
        </CharString>
        <CharString name="Emacronacute">
          1229 906 -3 callgsubr
          733 -243 -95 callsubr
        </CharString>
        <CharString name="Emacrongrave">
          1229 373 -70 callgsubr
          -1 -374 rmoveto
          535 94 -535 hlineto
          733 -243 -95 callsubr
        </CharString>
        <CharString name="Emcyrillic">
          1797 481 1444 50 callsubr
        </CharString>
        <CharString name="Encyrillic">
          -14 callsubr
          1106 -65 callsubr
          -64 callsubr
          -74 callsubr
          -107 callsubr
          -50 callsubr
        </CharString>
        <CharString name="Eogonek">
          1229 982 -478 rmoveto
          87 73 45 66 28 hvcurveto
          -1 39 rlineto
          50 callgsubr
          151 hlineto
          -36 callsubr
          -15 359 rlineto
          -29 callsubr
          903 vlineto
          -103 -79 -67 -104 -110 vvcurveto
          -111 83 -74 111 vhcurveto
          endchar
        </CharString>
        <CharString name="Epsilongreek">
          1229 1105 1444 -95 callsubr
        </CharString>
        <CharString name="Epsilontonosgreek">
          1517 1392 1444 rmoveto
          -1050 -39 hlineto
          120 -19 20 -23 -88 vvcurveto
          -1106 41 callsubr
          1098 vlineto
          17 397 rlineto
          -37 hlineto
          -57 -269 -84 -59 -295 -14 rrcurveto
          -237 -9 0 671 253 -6 125 -5 28 -48 28 -151 rlinecurve
          34 465 -34 hlineto
          -31 -152 -25 -47 -125 -5 rrcurveto
          -253 -5 0 635 200 -8 280 -12 88 -62 55 -231 rlinecurve
          37 hlineto
          -1356 -1 137 callsubr
          endchar
        </CharString>
        <CharString name="Ercyrillic">
          1299 1218 1029 51 callsubr
        </CharString>
        <CharString name="Ereversedcyrillic">
          1431 118 92 rmoveto
          -61 81 185 -53 182 hhcurveto
          448 325 292 469 438 -317 289 -450 -213 -155 -49 -60 -77 hvcurveto
          -13 -290 rlineto
          37 hlineto
          220 52 139 123 219 hhcurveto
          294 184 -252 -395 7 hvcurveto
          -675 13 0 -75 675 11 rlineto
          -371 -9 -174 -307 -308 hhcurveto
          -192 -165 95 254 -58 hvcurveto
          -37 hlineto
          endchar
        </CharString>
        <CharString name="Escyrillic">
          1405 91 731 -15 callsubr
          -34 callsubr
        </CharString>
        <CharString name="Etagreek">
          -14 callsubr
          1106 -65 callsubr
          -64 callsubr
          -74 callsubr
          -107 callsubr
          -50 callsubr
        </CharString>
        <CharString name="Etatonosgreek">
          1876 747 163 39 callsubr
          -20 -20 -113 -18 vhcurveto
          -39 -106 callgsubr
          1106 vlineto
          90 89 callgsubr
          20 -20 -86 vvcurveto
          -64 callsubr
          111 18 vhcurveto
          40 -537 -39 vlineto
          120 -19 20 -23 -88 vvcurveto
          -1106 41 callsubr
          537 39 vlineto
          -111 19 -21 20 85 vvcurveto
          -696 921 137 callsubr
          endchar
        </CharString>
        <CharString name="Etilde">
          1229 749 75 callsubr
          -44 hlineto
          -91 -5 -26 91 callsubr
          88 callsubr
          -103 callgsubr
          356 -111 -95 callsubr
        </CharString>
        <CharString name="Etildebelow">
          1229 1105 1444 rmoveto
          -29 callsubr
          1097 vlineto
          -36 callsubr
          -379 -1486 152 callsubr
        </CharString>
        <CharString name="F">
          1125 1070 1444 rmoveto
          -1015 -72 callsubr
          -107 callsubr
          -28 callsubr
          208 callsubr
        </CharString>
        <CharString name="Fdotaccent">
          1125 614 -53 callsubr
          30 callsubr
          456 -123 rmoveto
          -1015 -72 callsubr
          -107 callsubr
          -28 callsubr
          208 callsubr
        </CharString>
        <CharString name="G">
          1530 91 729 -17 callsubr
        </CharString>
        <CharString name="Gacute">
          1530 792 -86 callsubr
          -51 callsubr
          -652 -806 -17 callsubr
        </CharString>
        <CharString name="Gammagreek">
          1118 1061 1444 rmoveto
          -1006 -72 callsubr
          -107 callsubr
          -28 callsubr
          1215 vlineto
          179 -6 271 -9 78 -56 50 -224 rlinecurve
          37 hlineto
          endchar
        </CharString>
        <CharString name="Gbreve">
          1530 844 1581 rmoveto
          163 88 122 124 -98 callgsubr
          -85 62 callsubr
          95 callsubr
          -753 -852 -17 callsubr
        </CharString>
        <CharString name="Gcaron">
          1530 1074 -23 callsubr
          -218 141 -51 0 -10 callsubr
          -1030 -1099 -17 callsubr
        </CharString>
        <CharString name="Gcircumflex">
          1530 636 -39 callsubr
          6 callsubr
          -497 -805 -17 callsubr
        </CharString>
        <CharString name="Gcommaaccent">
          1530 91 729 rmoveto
          -456 320 -295 441 200 202 58 88 115 vhcurveto
          388 vlineto
          92 20 22 116 12 vhcurveto
          39 -520 -39 vlineto
          125 -13 18 -21 -92 vvcurveto
          -402 vlineto
          -45 -53 -96 -30 -114 hhcurveto
          -312 -167 331 381 400 178 262 300 229 145 -150 -241 54 hvcurveto
          36 hlineto
          -12 349 rlineto
          54 -77 -153 45 -234 hhcurveto
          -420 -341 -259 -478 hvcurveto
          749 -1182 83 callsubr
          -81 -57 98 callsubr
          30 8 32 hhcurveto
          60 46 -28 -49 -48 9 callsubr
          80 callsubr
        </CharString>
        <CharString name="Gdotaccent">
          1530 844 -53 callsubr
          90 callsubr
          -753 -838 -17 callsubr
        </CharString>
        <CharString name="Geacutecyrillic">
          1119 561 25 callsubr
          550 -91 rmoveto
          -1006 -72 callsubr
          -107 callsubr
          -28 callsubr
          22 callgsubr
        </CharString>
        <CharString name="Gecyrillic">
          1119 1061 1444 rmoveto
          -1006 -72 callsubr
          -107 callsubr
          -28 callsubr
          22 callgsubr
        </CharString>
        <CharString name="Germandbls">
          1438 459 hmoveto
          1398 vlineto
          204 -8 rlineto
          277 -10 113 -131 -162 vvcurveto
          -144 -81 -98 -163 -28 vhcurveto
          -158 vlineto
          218 -58 113 -136 -175 vvcurveto
          -161 -90 -96 -127 -140 -109 128 219 -40 vhcurveto
          -37 -331 hlineto
          -35 53 124 -35 151 hhcurveto
          220 211 141 253 228 -131 177 -226 65 hvcurveto
          174 16 128 100 161 vvcurveto
          197 -180 127 -390 vhcurveto
          -676 -39 hlineto
          120 -18 19 -22 -88 vvcurveto
          -1110 vlineto
          -88 -19 -22 -120 -18 vhcurveto
          -39 vlineto
          endchar
        </CharString>
        <CharString name="Geupturncyrillic">
          1089 1033 1394 rmoveto
          13 382 rlineto
          -43 hlineto
          -279 -77 -63 -53 -294 hhcurveto
          -514 -72 callsubr
          -107 callsubr
          -28 callsubr
          1211 vlineto
          endchar
        </CharString>
        <CharString name="Gmacron">
          1530 592 -66 callsubr
          -501 -985 -17 callsubr
        </CharString>
        <CharString name="H">
          -14 callsubr
          1106 -65 callsubr
          -64 callsubr
          -74 callsubr
          -107 callsubr
          -50 callsubr
        </CharString>
        <CharString name="Hacyrillic">
          1364 283 294 48 callsubr
        </CharString>
        <CharString name="Hardsigncyrillic">
          1539 1461 177 callsubr
          21 29 131 18 vhcurveto
          39 -796 vlineto
          -14 -341 rlineto
          37 hlineto
          44 228 70 53 223 11 20 1 rcurveline
          -1214 vlineto
          -97 -20 -28 -130 -18 vhcurveto
          -39 593 vlineto
          374 209 179 257 hvcurveto
          -282 -7 rmoveto
          -221 -110 -148 -246 -9 vhcurveto
          -124 -4 0 761 117 -2 rlineto
          239 -5 124 -144 -228 vvcurveto
          endchar
        </CharString>
        <CharString name="Hbar">
          -14 callsubr
          887 140 52 -140 167 -65 callsubr
          -173 -670 173 40 callsubr
          -167 -139 -52 139 -887 vlineto
          -88 -19 -23 -120 -19 vhcurveto
          -39 -43 callsubr
          602 vmoveto
          291 670 -291 vlineto
          endchar
        </CharString>
        <CharString name="Hbrevebelow">
          -14 callsubr
          1106 -65 callsubr
          -64 callsubr
          -74 callsubr
          -107 callsubr
          -43 callsubr
          336 -600 rmoveto
          -78 callgsubr
          -89 -65 -127 -127 -89 10 callgsubr
        </CharString>
        <CharString name="Hcaron">
          1589 1024 -23 callsubr
          27 callgsubr
          -613 -1665 39 callsubr
          73 callsubr
          1106 -65 callsubr
          -64 callsubr
          -74 callsubr
          -107 callsubr
          -50 callsubr
        </CharString>
        <CharString name="Hcedilla">
          -14 callsubr
          1106 -65 callsubr
          -64 callsubr
          -74 callsubr
          -107 callsubr
          249 75 callgsubr
          -92 callgsubr
          14 21 -27 hvcurveto
          -38 vlineto
          -50 32 75 -36 90 hhcurveto
          79 callsubr
          -14 -14 -1 -3 -13 hvcurveto
          81 112 rlineto
          236 39 hlineto
          -112 19 -21 20 85 vvcurveto
          endchar
        </CharString>
        <CharString name="Hcircumflex">
          1589 587 -39 callsubr
          6 callsubr
          -80 -1371 39 callsubr
          73 callsubr
          1106 -65 callsubr
          -64 callsubr
          -74 callsubr
          -107 callsubr
          -50 callsubr
        </CharString>
        <CharString name="Hdieresis">
          1589 637 1569 rmoveto
          58 47 45 58 58 -47 44 -58 -58 -47 -44 -58 -58 47 -45 58 hvcurveto
          317 hmoveto
          58 47 45 58 58 -47 44 -58 -59 -46 -44 -58 -58 46 -45 59 hvcurveto
          -495 -1406 39 callsubr
          73 callsubr
          1106 -65 callsubr
          -64 callsubr
          -74 callsubr
          -107 callsubr
          -50 callsubr
        </CharString>
        <CharString name="Hdotaccent">
          1589 795 -53 callsubr
          58 -48 46 -61 -61 -49 -46 -58 -59 49 -47 61 hvcurveto
          -336 -1404 39 callsubr
          73 callsubr
          1106 -65 callsubr
          -64 callsubr
          -74 callsubr
          -107 callsubr
          -50 callsubr
        </CharString>
        <CharString name="Hdotbelow">
          -14 callsubr
          1106 -65 callsubr
          -64 callsubr
          -74 callsubr
          -107 callsubr
          -43 callsubr
          336 -344 -47 callsubr
        </CharString>
        <CharString name="I">
          654 459 -71 callsubr
          -19 callsubr
          -107 callsubr
          -84 callsubr
        </CharString>
        <CharString name="IAcyrillic">
          1361 147 1039 rmoveto
          -199 139 -108 191 -43 vhcurveto
          -231 -385 -126 -207 -36 -40 -63 -20 rlinecurve
          -37 313 vlineto
          387 656 rlineto
          173 -493 hlineto
          -83 -19 -21 -113 -20 vhcurveto
          -39 536 39 vlineto
          -117 22 -22 21 87 vvcurveto
          1104 vlineto
          90 22 23 117 17 vhcurveto
          41 -573 vlineto
          -370 -208 -148 -257 hvcurveto
          271 9 rmoveto
          214 123 124 244 8 vhcurveto
          109 4 0 -696 -120 2 rlineto
          -213 5 -143 128 211 vvcurveto
          endchar
        </CharString>
        <CharString name="IJ">
          1308 459 -71 callsubr
          -19 callsubr
          -107 callsubr
          78 callsubr
          654 86 159 callsubr
        </CharString>
        <CharString name="IJacute">
          1308 275 -64 callgsubr
          704 -1 rmoveto
          330 271 rlineto
          5 -60 callsubr
          -420 -1366 -82 callsubr
          -83 callsubr
          -107 callsubr
          78 callsubr
          654 86 159 callsubr
        </CharString>
        <CharString name="IUcyrillic">
          2252 459 163 rmoveto
          550 244 vlineto
          -455 4 344 -280 382 hhcurveto
          439 288 329 417 1 hvcurveto
          459 1 -348 283 -384 hhcurveto
          -425 -282 -306 -395 -19 hvcurveto
          -245 516 hlineto
          85 21 20 -74 callsubr
          -107 callsubr
          -43 callsubr
          982 -128 rmoveto
          -276 -171 294 407 391 123 282 305 275 173 -293 -407 hvcurveto
          -391 -1 -124 -283 -304 hhcurveto
          endchar
        </CharString>
        <CharString name="Iacute">
          654 275 -64 callgsubr
          234 -1366 -82 callsubr
          -83 callsubr
          -107 callsubr
          -84 callsubr
        </CharString>
        <CharString name="Ibreve">
          654 327 1581 rmoveto
          163 88 122 124 -98 callgsubr
          -86 -65 -121 -121 -85 65 94 vhcurveto
          4 -42 vlineto
          -2 -15 -1 -17 -16 vvcurveto
          95 callsubr
          132 -1412 -82 callsubr
          -83 callsubr
          -107 callsubr
          -84 callsubr
        </CharString>
        <CharString name="Icaron">
          654 556 -23 callsubr
          32 callsubr
          -145 -1659 -82 callsubr
          -83 callsubr
          -107 callsubr
          -84 callsubr
        </CharString>
        <CharString name="Icircumflex">
          654 119 -39 callsubr
          6 callsubr
          388 -1365 -82 callsubr
          -83 callsubr
          -107 callsubr
          -84 callsubr
        </CharString>
        <CharString name="Icyrillic">
          654 459 -71 callsubr
          -19 callsubr
          -107 callsubr
          -84 callsubr
        </CharString>
        <CharString name="Idblgrave">
          654 139 27 callsubr
          53 -71 callgsubr
          49 hlineto
          -69 -1364 -82 callsubr
          -83 callsubr
          -107 callsubr
          -84 callsubr
        </CharString>
        <CharString name="Idieresis">
          654 169 -57 callsubr
          -25 callsubr
          -6 callsubr
          -62 callsubr
          -27 -1400 -82 callsubr
          -83 callsubr
          -107 callsubr
          -84 callsubr
        </CharString>
        <CharString name="Idieresisacute">
          654 594 1842 -40 callgsubr
          123 -202 -8 callsubr
          -50 -38 -33 -43 -45 38 -33 50 hvcurveto
          303 -4 callsubr
          -6 hlineto
          -50 -38 -33 -43 -45 38 -33 50 hvcurveto
          -13 -1393 -82 callsubr
          -83 callsubr
          -107 callsubr
          -84 callsubr
        </CharString>
        <CharString name="Idotaccent">
          654 327 -53 callsubr
          30 callsubr
          132 -1398 -82 callsubr
          -83 callsubr
          -107 callsubr
          -84 callsubr
        </CharString>
        <CharString name="Idotbelow">
          654 459 -71 callsubr
          -19 callsubr
          -107 callsubr
          78 callsubr
          -132 -350 -78 callsubr
        </CharString>
        <CharString name="Iecyrillic">
          1229 1105 1444 -95 callsubr
        </CharString>
        <CharString name="Igrave">
          654 400 67 callsubr
          391 -1635 -82 callsubr
          -83 callsubr
          -107 callsubr
          -84 callsubr
        </CharString>
        <CharString name="Ihookabove">
          654 353 -31 callsubr
          25 40 16 48 hhcurveto
          61 39 64 callsubr
          106 -1685 -82 callsubr
          -83 callsubr
          -107 callsubr
          -84 callsubr
        </CharString>
        <CharString name="Iicyrillic">
          1609 459 163 rmoveto
          65 vlineto
          691 909 rlineto
          -974 vlineto
          -86 -20 -20 -113 -18 vhcurveto
          -39 -106 callgsubr
          1106 vlineto
          90 89 callgsubr
          20 -20 -86 vvcurveto
          -64 vlineto
          -691 -909 rlineto
          973 40 callsubr
          -107 callsubr
          -50 callsubr
        </CharString>
        <CharString name="Iinvertedbreve">
          654 326 1875 rmoveto
          -164 -87 -69 callgsubr
          85 160 callsubr
          133 -1706 -82 callsubr
          -83 callsubr
          -107 callsubr
          -84 callsubr
        </CharString>
        <CharString name="Iishortcyrillic">
          1609 804 201 callsubr
          -345 -1419 rmoveto
          65 vlineto
          691 909 rlineto
          -974 vlineto
          -86 -20 -20 -113 -18 vhcurveto
          -39 -106 callgsubr
          1106 vlineto
          90 89 callgsubr
          20 -20 -86 vvcurveto
          -64 vlineto
          -691 -909 rlineto
          973 40 callsubr
          -107 callsubr
          -50 callsubr
        </CharString>
        <CharString name="Imacron">
          654 75 -66 callsubr
          384 -1545 -82 callsubr
          -83 callsubr
          -107 callsubr
          -84 callsubr
        </CharString>
        <CharString name="Iocyrillic">
          1229 482 -57 callsubr
          -62 callsubr
          316 hmoveto
          59 46 46 57 58 -46 44 -59 -58 -46 -44 -58 -57 46 -46 58 hvcurveto
          307 -125 -95 callsubr
        </CharString>
        <CharString name="Iogonek">
          654 459 -71 callsubr
          -19 callsubr
          -107 callsubr
          266 vlineto
          -102 -79 -68 -104 -110 vvcurveto
          -111 83 -74 110 88 73 45 66 27 vhcurveto
          -1 39 rlineto
          -20 -15 -29 -15 -34 hhcurveto
          -73 -59 85 111 67 16 61 27 39 hvcurveto
          235 39 hlineto
          -119 19 -21 23 88 vvcurveto
          endchar
        </CharString>
        <CharString name="Iotadieresisgreek">
          654 169 -57 callsubr
          -25 callsubr
          -6 callsubr
          -62 callsubr
          -27 -1400 -82 callsubr
          -83 callsubr
          -107 callsubr
          -84 callsubr
        </CharString>
        <CharString name="Iotagreek">
          654 459 -71 callsubr
          -19 callsubr
          -107 callsubr
          -84 callsubr
        </CharString>
        <CharString name="Iotatonosgreek">
          941 747 -71 callsubr
          20 23 119 19 vhcurveto
          39 -544 -39 vlineto
          120 -19 20 -23 -88 vvcurveto
          -1106 41 callsubr
          544 39 vlineto
          -119 19 -20 23 88 vvcurveto
          -696 915 137 callsubr
          endchar
        </CharString>
        <CharString name="Itilde">
          654 436 75 callsubr
          -44 hlineto
          -91 -5 -26 91 callsubr
          88 callsubr
          36 hvcurveto
          29 -19 rlineto
          -34 49 42 -22 51 hhcurveto
          23 -1386 -82 callsubr
          -83 callsubr
          -107 callsubr
          -84 callsubr
        </CharString>
        <CharString name="Itildebelow">
          654 459 -71 callsubr
          -19 callsubr
          -107 callsubr
          78 callsubr
          -24 -570 152 callsubr
        </CharString>
        <CharString name="J">
          654 459 255 rmoveto
          1020 vlineto
          88 -19 callsubr
          17 callsubr
        </CharString>
        <CharString name="Jacute">
          654 275 -86 callsubr
          -51 callsubr
          233 -1280 rmoveto
          1020 vlineto
          88 -19 callsubr
          17 callsubr
        </CharString>
        <CharString name="Jcircumflex">
          654 119 -39 callsubr
          6 callsubr
          388 -1279 rmoveto
          1020 vlineto
          88 -19 callsubr
          17 callsubr
        </CharString>
        <CharString name="Jecyrillic">
          654 459 255 rmoveto
          1020 vlineto
          88 -19 callsubr
          17 callsubr
        </CharString>
        <CharString name="K">
          1370 459 163 12 callsubr
        </CharString>
        <CharString name="Kaacutecyrillic">
          1370 669 -86 callsubr
          -51 callsubr
          -161 -1372 12 callsubr
        </CharString>
        <CharString name="Kacute">
          1370 669 -86 callsubr
          -51 callsubr
          -161 -1372 12 callsubr
        </CharString>
        <CharString name="Kacyrillic">
          1370 459 163 12 callsubr
        </CharString>
        <CharString name="Kappagreek">
          1370 459 163 12 callsubr
        </CharString>
        <CharString name="Kcaron">
          1370 951 -44 callsubr
          -55 callgsubr
          -539 -1665 12 callsubr
        </CharString>
        <CharString name="Kcommaaccent">
          149 callsubr
          272 -616 -9 callsubr
          -57 -39 -41 -27 hvcurveto
          -36 vlineto
          8 17 -41 callsubr
          9 callsubr
          81 callsubr
        </CharString>
        <CharString name="Kdotbelow">
          149 callsubr
          278 -344 -78 callsubr
        </CharString>
        <CharString name="Klinebelow">
          149 callsubr
          18 -510 -61 callsubr
        </CharString>
        <CharString name="L">
          22 callsubr
          endchar
        </CharString>
        <CharString name="Lacute">
          1137 277 25 callsubr
          853 -1535 rmoveto
          -13 callsubr
          14 callsubr
          endchar
        </CharString>
        <CharString name="Lambdagreek">
          1357 1175 246 rmoveto
          -428 1203 -138 0 -417 -1191 -60 -173 -41 -31 -98 -15 rlinecurve
          -39 384 39 vlineto
          -143 20 -18 42 52 162 rrcurveto
          308 932 321 -958 47 -143 -34 -38 -122 -17 rlinecurve
          -39 576 39 vlineto
          -90 15 -42 31 -57 161 rrcurveto
          endchar
        </CharString>
        <CharString name="Lcaron">
          1137 829 1115 rmoveto
          197 405 -192 0 -43 -405 rlineto
          289 -1115 rmoveto
          -13 callsubr
          14 callsubr
          endchar
        </CharString>
        <CharString name="Lcircumflexbelow">
          22 callsubr
          332 16 callgsubr
          -209 -325 rlineto
          endchar
        </CharString>
        <CharString name="Lcommaaccent">
          22 callsubr
          544 -453 122 callsubr
          61 45 -28 -49 -48 -44 -29 -63 -54 -50 19 25 80 callsubr
        </CharString>
        <CharString name="Ldot">
          22 callsubr
          773 693 rmoveto
          71 58 54 69 70 -58 54 -71 -24 callsubr
          endchar
        </CharString>
        <CharString name="Ldotbelow">
          22 callsubr
          551 -181 -47 callsubr
        </CharString>
        <CharString name="Ldotbelowmacron">
          1137 77 -66 callsubr
          1003 -1714 rmoveto
          -13 callsubr
          14 callsubr
          551 -181 -47 callsubr
        </CharString>
        <CharString name="Ljecyrillic">
          2045 11 callgsubr
          440 -1224 hlineto
          -89 -22 -22 -118 -19 vhcurveto
          -39 583 vlineto
          373 210 179 257 270 -223 150 -366 hvcurveto
          -173 405 hlineto
          97 21 29 130 18 vhcurveto
          39 -1104 -39 vlineto
          141 -19 42 -49 -18 callgsubr
          1676 306 rmoveto
          -221 -109 -148 -247 -9 vhcurveto
          -123 -4 0 761 117 -2 rlineto
          239 -5 123 -144 -228 vvcurveto
          endchar
        </CharString>
        <CharString name="Llinebelow">
          22 callsubr
          291 -347 -61 callsubr
        </CharString>
        <CharString name="Lslash">
          1137 55 634 rmoveto
          139 40 rlineto
          -505 vlineto
          -88 -19 -23 -120 -19 vhcurveto
          -39 1025 vlineto
          -13 callsubr
          rrcurveto
          -172 -7 0 704 347 100 0 55 -347 -99 rlineto
          456 vlineto
          97 20 28 -53 callgsubr
          -545 vlineto
          -139 -40 rlineto
          endchar
        </CharString>
        <CharString name="M">
          1797 481 1444 50 callsubr
        </CharString>
        <CharString name="Macute">
          1797 843 -86 callsubr
          -51 callsubr
          -313 -91 50 callsubr
        </CharString>
        <CharString name="Mdotaccent">
          1797 895 -53 callsubr
          90 callsubr
          -414 -123 50 callsubr
        </CharString>
        <CharString name="Mdotbelow">
          1797 481 1444 rmoveto
          -403 -39 hlineto
          106 -19 29 -37 -4 -105 rrcurveto
          -38 -992 -8 -157 -20 -38 -124 -18 rlinecurve
          -39 375 39 vlineto
          -127 19 -18 37 3 159 rrcurveto
          11 1028 484 -1282 114 0 81 256 380 1022 33 -1111 3 -90 -23 -22 -114 -16 rlinecurve
          -39 538 39 vlineto
          -119 17 -18 22 -3 91 rrcurveto
          -36 1106 -2 88 22 24 114 18 rlinecurve
          39 -412 vlineto
          -397 -1155 rlineto
          -104 -470 -47 callsubr
        </CharString>
        <CharString name="Mugreek">
          1797 481 1444 50 callsubr
        </CharString>
        <CharString name="N">
          1455 -42 callsubr
          endchar
        </CharString>
        <CharString name="Nacute">
          1455 705 -64 callgsubr
          -222 -91 13 callsubr
          endchar
        </CharString>
        <CharString name="Ncaron">
          1455 986 -23 callsubr
          32 callsubr
          -601 -384 13 callsubr
          endchar
        </CharString>
        <CharString name="Ncircumflexbelow">
          1455 -42 callsubr
          -729 -749 -38 callsubr
        </CharString>
        <CharString name="Ncommaaccent">
          1455 -42 callsubr
          -516 -754 83 callsubr
          -82 -56 98 callsubr
          -41 callsubr
          9 callsubr
          -31 hvcurveto
          -1 -37 rlineto
          -49 33 76 -38 89 hhcurveto
          endchar
        </CharString>
        <CharString name="Ndotaccent">
          1455 757 -53 callsubr
          30 callsubr
          -324 -123 13 callsubr
          endchar
        </CharString>
        <CharString name="Ndotbelow">
          1455 -42 callsubr
          -510 -482 -78 callsubr
        </CharString>
        <CharString name="Ngrave">
          1455 830 67 callsubr
          -65 -360 13 callsubr
          endchar
        </CharString>
        <CharString name="Njecyrillic">
          2130 459 163 rmoveto
          595 566 -595 vlineto
          -85 -20 -20 -111 -19 vhcurveto
          -39 575 vlineto
          375 208 169 243 256 -223 142 -367 hvcurveto
          -172 451 hlineto
          97 21 29 130 18 vhcurveto
          39 -547 -40 vlineto
          111 -18 20 -20 -85 vvcurveto
          -471 -566 471 40 callsubr
          -107 callsubr
          -43 callsubr
          1312 242 rmoveto
          -207 -110 -139 -247 -8 vhcurveto
          -124 -4 0 714 117 -2 rlineto
          240 -5 124 -135 -214 vvcurveto
          endchar
        </CharString>
        <CharString name="Nlinebelow">
          1455 -42 callsubr
          -769 -648 -2 callsubr
        </CharString>
        <CharString name="Ntilde">
          1455 866 1555 rmoveto
          93 142 callsubr
          -41 hhcurveto
          -28 69 callsubr
          88 callsubr
          36 hvcurveto
          29 -19 rlineto
          -34 50 41 -22 51 hhcurveto
          -433 -111 13 callsubr
          endchar
        </CharString>
        <CharString name="Nugreek">
          1455 -42 callsubr
          endchar
        </CharString>
        <CharString name="O">
          5 callsubr
          65 callsubr
          -104 callsubr
          -100 callsubr
        </CharString>
        <CharString name="OE">
          2041 91 718 rmoveto
          -436 341 -304 406 vhcurveto
          144 106 22 141 hhcurveto
          735 hlineto
          17 397 rlineto
          -37 hlineto
          -57 -270 -81 -58 -292 -14 rrcurveto
          -232 -9 0 671 251 -6 124 -5 27 -48 28 -151 rlinecurve
          35 465 -35 hlineto
          -30 -152 -27 -47 -122 -5 rrcurveto
          -251 -5 0 635 197 -8 277 -12 86 -62 55 -231 rlinecurve
          37 hlineto
          -15 359 rlineto
          -688 hlineto
          -174 -67 22 -148 hhcurveto
          -455 -296 -329 -419 hvcurveto
          289 9 rmoveto
          394 154 289 320 62 57 -9 -22 44 vhcurveto
          -1319 vlineto
          -18 -46 -58 -8 -59 hhcurveto
          -292 -182 289 404 hvcurveto
          endchar
        </CharString>
        <CharString name="Oacute">
          1651 769 25 callsubr
          -628 -814 -103 callsubr
          -104 callsubr
          -100 callsubr
        </CharString>
        <CharString name="Obreve">
          1651 820 1581 rmoveto
          163 89 122 124 16 -1 17 -3 15 hvcurveto
          -41 -4 hlineto
          -94 -86 62 callsubr
          95 callsubr
          -729 -860 -103 callsubr
          -104 callsubr
          -100 callsubr
        </CharString>
        <CharString name="Ocaron">
          1651 1050 -44 callsubr
          -10 callsubr
          -1007 -1107 -103 callsubr
          -104 callsubr
          -100 callsubr
        </CharString>
        <CharString name="Ocircumflex">
          1651 612 -39 callsubr
          -203 85 callsubr
          -474 -813 -103 callsubr
          -104 callsubr
          -100 callsubr
        </CharString>
        <CharString name="Ocircumflexacute">
          1651 1087 1821 -101 callgsubr
          1 -240 rmoveto
          -27 callsubr
          -462 -818 -103 callsubr
          -104 callsubr
          -100 callsubr
        </CharString>
        <CharString name="Ocircumflexdotbelow">
          1651 612 -39 callsubr
          -203 85 callsubr
          -474 -813 -103 callsubr
          -104 callsubr
          -388 93 callsubr
          82 callsubr
          307 -36 callgsubr
          68 callsubr
          446 -917 -78 callsubr
        </CharString>
        <CharString name="Ocircumflexgrave">
          1651 554 1821 -102 callgsubr
          -443 vmoveto
          -27 callsubr
          -462 -818 -103 callsubr
          -104 callsubr
          -100 callsubr
        </CharString>
        <CharString name="Ocircumflexhookabove">
          1651 1048 171 callsubr
          36 -23 -35 -36 -32 172 callsubr
          -494 -404 rmoveto
          -27 callsubr
          -462 -818 -103 callsubr
          -104 callsubr
          -100 callsubr
        </CharString>
        <CharString name="Ocircumflextilde">
          1651 935 77 callgsubr
          -28 -18 -47 -48 callgsubr
          -41 10 -47 hhcurveto
          -92 -62 -54 -106 -52 callgsubr
          72 callsubr
          -381 -269 rmoveto
          -27 callsubr
          -462 -818 -103 callsubr
          -104 callsubr
          -100 callsubr
        </CharString>
        <CharString name="Ocyrillic">
          5 callsubr
          65 callsubr
          -104 callsubr
          -100 callsubr
        </CharString>
        <CharString name="Odblgrave">
          1651 633 27 callsubr
          52 hlineto
          205 -68 callgsubr
          -931 -812 -103 callsubr
          -104 callsubr
          -100 callsubr
        </CharString>
        <CharString name="Odieresis">
          1651 662 1569 rmoveto
          -61 callgsubr
          -6 callsubr
          -25 callsubr
          -888 -848 -103 callsubr
          -104 callsubr
          -100 callsubr
        </CharString>
        <CharString name="Odieresismacron">
          1651 553 -38 callgsubr
          122 -351 -8 callsubr
          -49 -38 -33 -43 -45 38 -33 49 hvcurveto
          304 -4 callsubr
          -44 callgsubr
          -874 -841 -103 callsubr
          -104 callsubr
          -100 callsubr
        </CharString>
        <CharString name="Odotaccent">
          1651 820 -30 callsubr
          38 callsubr
          -729 -846 -103 callsubr
          -104 callsubr
          -100 callsubr
        </CharString>
        <CharString name="Odotaccentmacron">
          1651 553 1796 rmoveto
          535 94 -535 hlineto
          3 callgsubr
          -729 -836 -103 callsubr
          -104 callsubr
          -100 callsubr
        </CharString>
        <CharString name="Odotbelow">
          5 callsubr
          65 callsubr
          -104 callsubr
          -388 93 callsubr
          82 callsubr
          307 -36 callgsubr
          68 callsubr
          446 -917 -78 callsubr
        </CharString>
        <CharString name="Ograve">
          1651 894 133 callsubr
          -470 -1083 -103 callsubr
          -104 callsubr
          -100 callsubr
        </CharString>
        <CharString name="Ohookabove">
          1651 846 -31 callsubr
          -13 callgsubr
          -755 -1133 -103 callsubr
          -104 callsubr
          -100 callsubr
        </CharString>
        <CharString name="Ohorn">
          1664 91 721 -103 callsubr
          52 callsubr
        </CharString>
        <CharString name="Ohornacute">
          1664 768 -86 callsubr
          -51 callsubr
          -628 -814 -103 callsubr
          52 callsubr
        </CharString>
        <CharString name="Ohorndotbelow">
          1664 91 721 -103 callsubr
          329 -185 243 -250 108 vhcurveto
          -7 35 39 -5 40 hhcurveto
          172 118 60 120 92 -70 84 -100 39 hvcurveto
          -40 hlineto
          21 -25 16 -54 -53 vvcurveto
          -124 -85 -89 -164 vhcurveto
          -85 -87 24 -112 176 callsubr
          -36 callgsubr
          68 callsubr
          444 -917 -78 callsubr
        </CharString>
        <CharString name="Ohorngrave">
          1664 893 67 callsubr
          -470 -1083 -103 callsubr
          52 callsubr
        </CharString>
        <CharString name="Ohornhookabove">
          1664 846 -31 callsubr
          25 41 16 47 hhcurveto
          62 38 -29 -44 -49 -40 -44 -75 -47 hvcurveto
          43 hlineto
          154 -35 callgsubr
          -755 -1133 -103 callsubr
          52 callsubr
        </CharString>
        <CharString name="Ohorntilde">
          1664 930 1555 rmoveto
          92 142 callsubr
          -40 hhcurveto
          -29 69 callsubr
          51 callgsubr
          -25 -104 callgsubr
          -839 -834 -103 callsubr
          52 callsubr
        </CharString>
        <CharString name="Ohungarumlaut">
          1651 704 1810 rmoveto
          -59 -276 50 0 220 271 rlineto
          5 vlineto
          119 hmoveto
          -127 -276 53 0 301 271 rlineto
          5 vlineto
          -1170 -1089 -103 callsubr
          -104 callsubr
          -100 callsubr
        </CharString>
        <CharString name="Oinvertedbreve">
          1651 819 1875 rmoveto
          -163 -88 -69 callgsubr
          -62 callgsubr
          90 callgsubr
          -728 -1154 -103 callsubr
          -104 callsubr
          -100 callsubr
        </CharString>
        <CharString name="Omacron">
          1651 569 -66 callsubr
          -478 -993 -103 callsubr
          -104 callsubr
          -100 callsubr
        </CharString>
        <CharString name="Omacronacute">
          1651 1087 -3 callgsubr
          -462 -966 -103 callsubr
          -104 callsubr
          -100 callsubr
        </CharString>
        <CharString name="Omacrongrave">
          1651 554 -70 callgsubr
          -1 -374 rmoveto
          535 94 -535 hlineto
          -462 -966 -103 callsubr
          -104 callsubr
          -100 callsubr
        </CharString>
        <CharString name="Omegagreek">
          1584 86 hmoveto
          599 294 hlineto
          -229 58 callgsubr
          291 158 207 callsubr
          -428 -430 7 callgsubr
          -155 38 -75 171 rrcurveto
          -32 hlineto
          endchar
        </CharString>
        <CharString name="Omegatonosgreek">
          1695 197 hmoveto
          600 294 hlineto
          -230 58 callgsubr
          292 157 207 callsubr
          -427 -431 7 callgsubr
          -154 38 -76 171 rrcurveto
          -32 hlineto
          -97 715 137 callsubr
          endchar
        </CharString>
        <CharString name="Omicrongreek">
          5 callsubr
          65 callsubr
          -104 callsubr
          -100 callsubr
        </CharString>
        <CharString name="Omicrontonosgreek">
          1713 154 721 rmoveto
          -457 348 -286 388 442 291 332 414 -104 callsubr
          -388 -443 -289 -331 -414 vhcurveto
          -103 363 137 callsubr
          445 -348 rmoveto
          389 125 284 306 277 172 -296 -404 -389 -124 -285 -306 -278 -172 297 404 vhcurveto
          endchar
        </CharString>
        <CharString name="Oogonek">
          5 callsubr
          186 callsubr
        </CharString>
        <CharString name="Oogonekmacron">
          1651 569 -66 callsubr
          -478 -993 rmoveto
          186 callsubr
        </CharString>
        <CharString name="Oslash">
          5 callsubr
          180 callsubr
        </CharString>
        <CharString name="Oslashacute">
          1651 769 25 callsubr
          -628 -814 rmoveto
          180 callsubr
        </CharString>
        <CharString name="Otilde">
          1651 930 209 callsubr
          29 22 -12 -25 -104 callgsubr
          -839 -834 -103 callsubr
          -104 callsubr
          -100 callsubr
        </CharString>
        <CharString name="Otildeacute">
          1651 1087 1842 -101 callgsubr
          382 -196 84 callsubr
          -28 -19 -47 74 callsubr
          140 callsubr
          72 callsubr
          -844 -847 -103 callsubr
          -104 callsubr
          -100 callsubr
        </CharString>
        <CharString name="Otildedieresis">
          1651 675 -75 callgsubr
          -38 -32 -45 -44 38 -33 49 hvcurveto
          304 hmoveto
          50 38 33 44 45 -38 32 -50 hvcurveto
          -7 hlineto
          -50 -38 -32 -45 -44 38 -33 50 hvcurveto
          -30 -220 84 callsubr
          -28 -19 -47 74 callsubr
          140 callsubr
          72 callsubr
          -844 -847 -103 callsubr
          -104 callsubr
          -100 callsubr
        </CharString>
        <CharString name="Otildemacron">
          1651 553 -38 callgsubr
          382 -345 84 callsubr
          -28 -19 -47 74 callsubr
          140 callsubr
          72 callsubr
          -844 -847 -103 callsubr
          -104 callsubr
          -100 callsubr
        </CharString>
        <CharString name="P">
          1299 1218 1029 51 callsubr
        </CharString>
        <CharString name="Pacute">
          1299 558 -86 callsubr
          -60 callsubr
          710 -506 51 callsubr
        </CharString>
        <CharString name="Pdotaccent">
          1299 610 -53 callsubr
          30 callsubr
          608 -538 51 callsubr
        </CharString>
        <CharString name="Pecyrillic">
          1578 1384 -71 callsubr
          8 callsubr
          -1468 37 callsubr
          -107 callsubr
          -43 callsubr
          1231 660 -1231 vlineto
          -85 -21 -20 -112 -19 vhcurveto
          -39 537 39 vlineto
          96 callsubr
        </CharString>
        <CharString name="Phigreek">
          1836 79 721 rmoveto
          -327 291 -184 423 -12 vhcurveto
          -15 42 callsubr
          551 -91 callgsubr
          15 vlineto
          398 12 315 170 344 vvcurveto
          326 -294 184 -419 13 vhcurveto
          14 vlineto
          97 20 29 130 18 vhcurveto
          39 -551 -39 vlineto
          130 -18 20 -29 -97 vvcurveto
          -14 vlineto
          -395 -13 -319 -168 -345 vvcurveto
          1406 -3 rmoveto
          -275 -174 -176 -267 -19 vhcurveto
          949 vlineto
          287 -18 154 -181 -280 vvcurveto
          -1134 9 rmoveto
          275 173 176 269 19 vhcurveto
          -949 vlineto
          -286 18 -156 180 281 vvcurveto
          endchar
        </CharString>
        <CharString name="Pigreek">
          1549 1354 -71 callsubr
          8 callsubr
          -1438 37 callsubr
          -107 callsubr
          -43 callsubr
          1231 630 -1231 vlineto
          -85 -20 -20 -112 -19 vhcurveto
          -39 536 39 vlineto
          96 callsubr
        </CharString>
        <CharString name="Psigreek">
          1788 1019 183 rmoveto
          348 vlineto
          318 9 185 115 46 329 rrcurveto
          34 247 17 126 36 33 88 4 rlinecurve
          39 vlineto
          5 -30 -55 6 -52 hhcurveto
          -147 -78 -58 -184 -27 hvcurveto
          -36 -257 -36 -247 -81 -105 -182 -12 rlinecurve
          700 vlineto
          85 21 21 111 17 vhcurveto
          40 -515 -40 vlineto
          111 -17 22 -21 -85 vvcurveto
          -700 vlineto
          -182 12 -81 105 -36 247 -37 257 rcurveline
          184 -27 -78 58 -148 hhcurveto
          -50 -56 -6 -5 -30 hvcurveto
          -39 vlineto
          89 -4 35 -33 18 -126 rrcurveto
          33 -247 45 -329 186 -116 319 -8 rlinecurve
          -348 vlineto
          -97 -21 -29 -130 -18 vhcurveto
          -39 552 39 vlineto
          -131 18 -20 29 97 vvcurveto
          endchar
        </CharString>
        <CharString name="Q">
          5 callsubr
          -425 301 -277 354 -36 vhcurveto
          148 -133 rlineto
          -171 186 90 -37 118 hhcurveto
          100 95 35 48 78 hvcurveto
          36 vlineto
          -118 -17 -108 40 -190 151 -94 74 rcurveline
          314 92 195 284 339 vvcurveto
          -104 callsubr
          -387 -443 -290 -331 -414 82 callsubr
          305 278 173 -296 -404 -1 vhcurveto
          -389 -1 -124 -285 -305 hhcurveto
          -277 -172 297 404 hvcurveto
          endchar
        </CharString>
        <CharString name="R">
          1341 1200 1057 147 callsubr
          endchar
        </CharString>
        <CharString name="Racute">
          1341 582 25 callsubr
          668 -478 147 callsubr
          endchar
        </CharString>
        <CharString name="Rcaron">
          1341 863 -44 callsubr
          -55 callgsubr
          290 -771 147 callsubr
          endchar
        </CharString>
        <CharString name="Rcommaaccent">
          -63 callgsubr
          -251 -1494 83 callsubr
          -82 -56 98 callsubr
          -41 callsubr
          9 callsubr
          -31 hvcurveto
          -1 -37 rlineto
          -49 33 77 -38 88 hhcurveto
          endchar
        </CharString>
        <CharString name="Rdblgrave">
          1341 446 27 callsubr
          52 -71 callgsubr
          50 hlineto
          365 -476 147 callsubr
          endchar
        </CharString>
        <CharString name="Rdotaccent">
          1341 633 -30 callsubr
          38 callsubr
          567 -510 147 callsubr
          endchar
        </CharString>
        <CharString name="Rdotbelow">
          -63 callgsubr
          -245 -1222 -97 callgsubr
          49 47 59 59 -49 46 -61 hvcurveto
          endchar
        </CharString>
        <CharString name="Rdotbelowmacron">
          1341 382 1598 rmoveto
          503 116 -503 hlineto
          818 -657 147 callsubr
          -245 -1222 -97 callgsubr
          49 47 59 59 -49 46 -61 hvcurveto
          endchar
        </CharString>
        <CharString name="Rhogreek">
          1299 1218 1029 51 callsubr
        </CharString>
        <CharString name="Rinvertedbreve">
          1341 632 1875 rmoveto
          -164 -87 -69 callgsubr
          -62 callgsubr
          2 14 2 17 16 vvcurveto
          124 -90 123 -163 vhcurveto
          568 -818 147 callsubr
          endchar
        </CharString>
        <CharString name="Rlinebelow">
          -63 callgsubr
          -504 -1388 -2 callsubr
        </CharString>
        <CharString name="S">
          1177 569 -22 104 callsubr
          endchar
        </CharString>
        <CharString name="Sacute">
          1177 558 -86 callsubr
          -60 callsubr
          61 -1557 104 callsubr
          endchar
        </CharString>
        <CharString name="Sacutedotaccent">
          1177 609 1758 39 callgsubr
          267 -133 rmoveto
          124 vlineto
          -534 -167 rlineto
          -35 vlineto
          227 -1569 104 callsubr
          endchar
        </CharString>
        <CharString name="Scaron">
          1177 839 -44 callsubr
          -10 callsubr
          -318 -1850 104 callsubr
          endchar
        </CharString>
        <CharString name="Scarondotaccent">
          1177 609 1777 39 callgsubr
          275 -17 rmoveto
          -275 -86 -274 86 0 -36 258 -172 35 0 256 172 rlineto
          -315 -1746 104 callsubr
          endchar
        </CharString>
        <CharString name="Scedilla">
          1177 551 -453 rmoveto
          79 callsubr
          -13 -13 -1 -2 -12 hvcurveto
          68 90 rlineto
          271 12 217 164 254 vvcurveto
          205 -123 142 -248 87 vhcurveto
          -116 43 rlineto
          -176 63 -98 80 142 vvcurveto
          139 98 99 186 182 129 -128 -227 52 vhcurveto
          38 hlineto
          -12 321 rlineto
          48 -65 -136 43 -187 hhcurveto
          -294 -220 -145 -256 -201 131 -140 237 -83 hvcurveto
          118 -41 rlineto
          189 -68 86 -91 -141 vvcurveto
          -161 -118 -104 -173 -206 -174 134 263 -58 vhcurveto
          -37 hlineto
          14 -348 89 -57 154 -46 197 -2 rlinecurve
          -122 -156 1 -36 rlineto
          5 10 21 4 19 hhcurveto
          60 -92 callgsubr
          71 callsubr
          endchar
        </CharString>
        <CharString name="Schwa">
          1483 681 -22 rmoveto
          447 264 310 440 486 -327 253 -417 -235 -161 -44 -55 -80 hvcurveto
          -13 -348 rlineto
          37 hlineto
          236 52 150 155 235 hhcurveto
          296 172 -257 -422 hvcurveto
          -19 0 -18 -18 vvcurveto
          -1034 hlineto
          -4 -26 -2 -31 -30 vvcurveto
          -363 219 -249 401 vhcurveto
          -352 580 rmoveto
          21 0 24 2 21 vhcurveto
          767 5 rlineto
          -334 -19 -119 -260 -275 hhcurveto
          -273 -83 253 270 hvcurveto
          endchar
        </CharString>
        <CharString name="Scircumflex">
          1177 402 -1 callsubr
          -5 callsubr
          215 -1556 104 callsubr
          endchar
        </CharString>
        <CharString name="Scommaaccent">
          1177 569 -22 104 callsubr
          3 -431 122 callsubr
          60 46 -72 callgsubr
        </CharString>
        <CharString name="Sdotaccent">
          1177 609 -30 callsubr
          -60 -49 -45 -59 -59 49 -47 60 hvcurveto
          -40 -1589 104 callsubr
          endchar
        </CharString>
        <CharString name="Sdotbelow">
          1177 569 -22 104 callsubr
          10 -159 -47 callsubr
        </CharString>
        <CharString name="Sdotbelowdotaccent">
          1177 609 -30 callsubr
          -60 -49 -45 -59 -59 49 -47 60 hvcurveto
          -40 -1589 104 callsubr
          10 -159 -47 callsubr
        </CharString>
        <CharString name="Shacyrillic">
          2277 2083 -71 callsubr
          8 callsubr
          -536 119 callsubr
          -530 119 callsubr
          -537 37 callsubr
          -107 callsubr
          2167 39 vlineto
          96 callsubr
        </CharString>
        <CharString name="Shchacyrillic">
          2312 2267 85 callgsubr
          -536 119 callsubr
          -530 119 callsubr
          -537 37 callsubr
          -107 callsubr
          1845 vlineto
          209 44 -46 -286 79 hvcurveto
          43 hlineto
          endchar
        </CharString>
        <CharString name="Sigmagreek">
          1248 1115 1444 rmoveto
          -1067 -37 hlineto
          515 -723 -505 -554 rlineto
          -130 1102 vlineto
          16 440 rlineto
          -40 hlineto
          -213 -56 -77 -37 -297 hhcurveto
          -526 hlineto
          590 603 0 16 -415 590 286 -9 318 -13 78 -67 56 -224 rlinecurve
          36 hlineto
          endchar
        </CharString>
        <CharString name="Softsigncyrillic">
          1299 1221 177 callsubr
          20 29 -53 callgsubr
          43 callgsubr
          -282 -7 -20 callgsubr
        </CharString>
        <CharString name="T">
          1307 -45 callsubr
          -68 callsubr
          -54 callsubr
          -77 callsubr
          43 callsubr
          endchar
        </CharString>
        <CharString name="Taugreek">
          1307 -45 callsubr
          -68 callsubr
          -54 callsubr
          -77 callsubr
          43 callsubr
          endchar
        </CharString>
        <CharString name="Tbar">
          1307 249 714 rmoveto
          272 -531 hlineto
          -97 -20 -29 -130 -18 vhcurveto
          -39 -77 callsubr
          531 272 52 -272 632 100 callgsubr
          -15 359 -1196 0 -14 -68 callsubr
          -632 -272 vlineto
          endchar
        </CharString>
        <CharString name="Tcaron">
          1307 883 -44 callsubr
          -10 callsubr
          320 -384 rmoveto
          -1196 hlineto
          -14 -68 callsubr
          -54 callsubr
          -77 callsubr
          43 callsubr
          endchar
        </CharString>
        <CharString name="Tcedilla">
          1307 626 -453 -39 callgsubr
          -14 -14 -1 -3 -13 hvcurveto
          81 112 rlineto
          250 39 hlineto
          -131 18 -20 29 97 vvcurveto
          43 callsubr
          -15 359 -1196 0 -14 -68 callsubr
          -54 callsubr
          264 75 callgsubr
          -85 callgsubr
          -50 14 21 -27 hvcurveto
          -1 -38 rlineto
          -50 33 75 -36 90 hhcurveto
          endchar
        </CharString>
        <CharString name="Tcircumflexbelow">
          1307 -45 callsubr
          -68 callsubr
          -54 callsubr
          -77 callsubr
          43 callsubr
          -832 -1533 -38 callsubr
        </CharString>
        <CharString name="Tcommaaccent">
          1307 -45 callsubr
          -68 callsubr
          -54 callsubr
          -77 callsubr
          43 callsubr
          -619 -1538 -9 callsubr
          -56 98 callsubr
          -41 callsubr
          9 callsubr
          81 callsubr
        </CharString>
        <CharString name="Tdotaccent">
          1307 653 -30 callsubr
          38 callsubr
          598 -123 rmoveto
          -1196 hlineto
          -14 -68 callsubr
          -54 callsubr
          -77 callsubr
          43 callsubr
          endchar
        </CharString>
        <CharString name="Tdotbelow">
          1307 -45 callsubr
          -68 callsubr
          -54 callsubr
          -77 callsubr
          43 callsubr
          -613 -1266 -78 callsubr
        </CharString>
        <CharString name="Tecyrillic">
          1307 -45 callsubr
          -68 callsubr
          -54 callsubr
          -77 callsubr
          43 callsubr
          endchar
        </CharString>
        <CharString name="Thetagreek">
          1656 830 -22 rmoveto
          443 292 332 413 458 -351 285 -388 -445 -290 -331 -414 -457 351 -286 388 hvcurveto
          6 54 rmoveto
          -287 -175 294 410 395 128 281 317 287 176 -292 -411 -395 -129 -282 -317 hvcurveto
          -296 464 rmoveto
          33 hlineto
          137 22 42 64 156 hhcurveto
          69 hlineto
          155 43 -64 -137 21 hvcurveto
          34 449 -34 hlineto
          -134 -21 -43 -61 -155 hhcurveto
          -69 hlineto
          -156 -42 61 134 -22 hvcurveto
          -33 hlineto
          endchar
        </CharString>
        <CharString name="Thorn">
          1281 1219 750 rmoveto
          262 -236 125 -383 vhcurveto
          -141 124 hlineto
          97 20 29 131 18 vhcurveto
          39 -555 -39 vlineto
          120 -19 19 -23 -87 vvcurveto
          -1108 vlineto
          -87 -19 -23 -120 -19 vhcurveto
          -39 -28 callsubr
          156 141 vlineto
          357 262 140 271 hvcurveto
          -281 -17 rmoveto
          -211 -140 -125 -252 -9 vhcurveto
          -87 -3 0 707 87 -3 rlineto
          258 -9 134 -143 -204 vvcurveto
          endchar
        </CharString>
        <CharString name="Tlinebelow">
          1307 -45 callsubr
          -68 callsubr
          -54 callsubr
          -77 callsubr
          43 callsubr
          -873 -1432 -61 callsubr
        </CharString>
        <CharString name="Tsecyrillic">
          1613 1568 85 callgsubr
          -537 -40 vlineto
          112 -18 34 callgsubr
          18 vhcurveto
          40 -537 37 callsubr
          -107 callsubr
          1146 vlineto
          209 44 -46 -286 79 hvcurveto
          43 hlineto
          endchar
        </CharString>
        <CharString name="Tshecyrillic">
          1760 -45 callsubr
          -27 callgsubr
          513 vlineto
          42 70 88 20 108 hhcurveto
          203 100 -121 -239 hvcurveto
          -392 398 39 vlineto
          -112 19 -21 20 85 vvcurveto
          225 vlineto
          310 -203 130 -283 -150 -119 -34 -54 -79 vhcurveto
          657 76 callgsubr
        </CharString>
        <CharString name="U">
          1478 164 1281 -90 callsubr
        </CharString>
        <CharString name="Uacute">
          1478 759 -86 callsubr
          -60 callsubr
          -545 -254 -90 callsubr
        </CharString>
        <CharString name="Ubreve">
          1478 811 158 callsubr
          -3 -15 -1 -43 callgsubr
          -647 -300 -90 callsubr
        </CharString>
        <CharString name="Ubrevecyrillic">
          1400 791 201 callsubr
          -560 -1461 189 callsubr
        </CharString>
        <CharString name="Ucaron">
          1478 1040 -23 callsubr
          32 callsubr
          -924 -547 -90 callsubr
        </CharString>
        <CharString name="Ucircumflex">
          1478 603 -1 callsubr
          -5 callsubr
          -391 -253 -90 callsubr
        </CharString>
        <CharString name="Ucircumflexbelow">
          125 callsubr
          401 -1729 rmoveto
          220 172 217 -172 48 0 -209 325 -114 0 -208 -325 rlineto
          endchar
        </CharString>
        <CharString name="Ucyrillic">
          1400 231 121 189 callsubr
        </CharString>
        <CharString name="Udblgrave">
          1478 623 27 callsubr
          53 hlineto
          204 -68 callgsubr
          -848 -252 -90 callsubr
        </CharString>
        <CharString name="Udieresis">
          1478 653 -57 callsubr
          -62 callsubr
          -86 callgsubr
          -805 -288 -90 callsubr
        </CharString>
        <CharString name="Udieresisacute">
          1478 1077 1842 -101 callgsubr
          123 -202 rmoveto
          117 callsubr
          303 -4 callsubr
          -6 hlineto
          -50 -39 -33 -43 -45 39 -33 50 hvcurveto
          -792 -281 -90 callsubr
        </CharString>
        <CharString name="Udieresisbelow">
          125 callsubr
          424 -1672 5 callgsubr
          51 46 59 59 -51 45 -62 -63 -50 -45 -59 -59 50 -46 63 hvcurveto
          endchar
        </CharString>
        <CharString name="Udieresiscaron">
          1478 1077 1966 rmoveto
          -267 -84 -267 84 0 -35 250 -166 35 0 250 166 rlineto
          -412 -369 rmoveto
          117 callsubr
          303 -4 callsubr
          -6 hlineto
          -50 -39 -33 -43 -45 39 -33 50 hvcurveto
          -792 -281 -90 callsubr
        </CharString>
        <CharString name="Udieresisgrave">
          1478 544 1842 -102 callgsubr
          122 -405 rmoveto
          117 callsubr
          303 -4 callsubr
          -6 hlineto
          -50 -39 -33 -43 -45 39 -33 50 hvcurveto
          -792 -281 -90 callsubr
        </CharString>
        <CharString name="Udieresismacron">
          1478 543 -38 callgsubr
          123 -351 rmoveto
          117 callsubr
          303 -4 callsubr
          -6 hlineto
          -50 -39 -33 -43 -45 39 -33 50 hvcurveto
          -792 -281 -90 callsubr
        </CharString>
        <CharString name="Udotbelow">
          125 callsubr
          620 -1462 -78 callsubr
        </CharString>
        <CharString name="Ugrave">
          1478 884 133 callsubr
          -387 -523 -90 callsubr
        </CharString>
        <CharString name="Uhookabove">
          1478 837 -31 callsubr
          24 41 16 47 hhcurveto
          62 39 64 callsubr
          -673 -573 -90 callsubr
        </CharString>
        <CharString name="Uhorn">
          1600 174 549 49 callsubr
        </CharString>
        <CharString name="Uhornacute">
          1600 783 -86 callsubr
          -51 callsubr
          -560 -986 49 callsubr
        </CharString>
        <CharString name="Uhorndotbelow">
          1600 174 549 rmoveto
          -406 277 -165 307 360 198 222 335 3 vhcurveto
          7 883 rlineto
          -3 19 22 -3 20 hhcurveto
          144 83 61 102 89 -66 83 -97 40 hvcurveto
          -40 hlineto
          21 -25 16 -52 -54 vvcurveto
          -119 -88 -93 -185 vhcurveto
          -84 -39 hlineto
          144 -21 17 -22 1 -126 5 -693 rcurveline
          -295 2 -160 -177 -251 hhcurveto
          -240 -170 148 332 hvcurveto
          719 vlineto
          93 20 21 141 21 vhcurveto
          39 -573 -39 vlineto
          126 -21 21 -21 -93 vvcurveto
          635 -1451 -78 callsubr
        </CharString>
        <CharString name="Uhorngrave">
          1600 908 67 callsubr
          -402 -1255 49 callsubr
        </CharString>
        <CharString name="Uhornhookabove">
          1600 861 -31 callsubr
          25 41 16 47 hhcurveto
          62 38 64 callsubr
          -687 -1305 49 callsubr
        </CharString>
        <CharString name="Uhorntilde">
          1600 945 1555 rmoveto
          92 142 callsubr
          -40 hhcurveto
          -29 69 callsubr
          88 callsubr
          -104 callgsubr
          -771 -1006 49 callsubr
        </CharString>
        <CharString name="Uhungarumlaut">
          1478 694 1810 rmoveto
          -58 -276 50 0 219 271 rlineto
          5 vlineto
          119 hmoveto
          -126 -276 53 0 300 271 rlineto
          5 vlineto
          -1087 -529 -90 callsubr
        </CharString>
        <CharString name="Uinvertedbreve">
          1478 810 1875 rmoveto
          -164 -88 -123 -124 -16 1 -17 3 -14 hvcurveto
          41 4 hlineto
          94 86 160 callsubr
          -646 -594 -90 callsubr
        </CharString>
        <CharString name="Umacron">
          1478 559 -66 callsubr
          -395 -433 -90 callsubr
        </CharString>
        <CharString name="Umacrondieresis">
          1478 666 1788 rmoveto
          49 39 33 -76 callgsubr
          303 hmoveto
          50 38 33 44 45 -38 32 -50 hvcurveto
          -6 hlineto
          -50 -39 -32 -45 -44 39 -33 50 hvcurveto
          -393 -195 rmoveto
          495 94 -495 hlineto
          -399 -406 -90 callsubr
        </CharString>
        <CharString name="Uogonek">
          1478 801 -478 rmoveto
          87 74 45 66 27 hvcurveto
          -1 39 rlineto
          -20 -16 -28 -15 -35 hhcurveto
          -73 -59 82 106 61 15 57 25 38 hvcurveto
          318 28 169 219 5 319 rrcurveto
          8 637 3 164 19 39 119 17 rlinecurve
          40 -372 -39 vlineto
          130 -20 20 -37 2 211 callsubr
          -46 callgsubr
          7 7 0 1 7 vhcurveto
          -98 -77 -63 -96 -101 vvcurveto
          -109 83 -74 111 vhcurveto
          endchar
        </CharString>
        <CharString name="Upsilondieresisgreek">
          1331 585 -57 callsubr
          -62 callsubr
          -86 callgsubr
          -685 -369 -70 callsubr
        </CharString>
        <CharString name="Upsilongreek">
          1331 216 1200 -70 callsubr
        </CharString>
        <CharString name="Upsilontonosgreek">
          1652 537 1200 rmoveto
          317 -538 rlineto
          -479 42 callsubr
          -77 callsubr
          157 callsubr
          -239 -438 -270 471 -84 147 20 43 122 18 rlinecurve
          39 -568 -39 vlineto
          91 -16 35 -28 97 -161 rrcurveto
          -486 -116 137 callsubr
          endchar
        </CharString>
        <CharString name="Uring">
          1478 576 1721 rmoveto
          -102 107 -63 128 127 108 63 102 102 -107 65 -128 -129 -106 -65 -102 vhcurveto
          149 hmoveto
          73 34 53 52 50 36 -53 -73 -74 -36 -51 -50 -52 -34 51 74 vhcurveto
          -561 -440 -90 callsubr
        </CharString>
        <CharString name="Utilde">
          1478 920 75 callsubr
          -45 hlineto
          -91 -5 -25 91 callsubr
          -70 -66 -181 8 -60 callgsubr
          -103 callgsubr
          -756 -274 -90 callsubr
        </CharString>
        <CharString name="Utildeacute">
          1478 1077 1842 -101 callgsubr
          382 -196 84 callsubr
          -28 -19 -47 hhcurveto
          -28 -28 7 12 -41 hvcurveto
          -32 10 rlineto
          13 -43 -42 9 -47 hhcurveto
          -92 -61 -54 -105 -50 callgsubr
          -90 callgsubr
          41 -9 47 hhcurveto
          -761 -287 -90 callsubr
        </CharString>
        <CharString name="Utildebelow">
          125 callsubr
          728 -1682 144 callsubr
          222 callsubr
          35 hvcurveto
          28 -21 rlineto
          -34 50 40 -20 51 hhcurveto
          endchar
        </CharString>
        <CharString name="V">
          79 callgsubr
          endchar
        </CharString>
        <CharString name="Vdotbelow">
          79 callgsubr
          509 -1377 -78 callsubr
        </CharString>
        <CharString name="Vecyrillic">
          1347 1265 414 112 callsubr
        </CharString>
        <CharString name="Vtilde">
          1374 869 75 callsubr
          -44 hlineto
          -91 -5 -26 91 callsubr
          88 callsubr
          -103 callgsubr
          -689 -359 rmoveto
          198 callsubr
          endchar
        </CharString>
        <CharString name="W">
          2139 178 1196 11 callsubr
        </CharString>
        <CharString name="Wacute">
          2139 1085 -86 callsubr
          -51 callsubr
          -858 -339 11 callsubr
        </CharString>
        <CharString name="Wcircumflex">
          2139 929 -39 callsubr
          6 callsubr
          -703 -338 11 callsubr
        </CharString>
        <CharString name="Wdieresis">
          2139 979 -57 callsubr
          -25 callsubr
          -6 callsubr
          -62 callsubr
          -1118 -373 11 callsubr
        </CharString>
        <CharString name="Wdotaccent">
          2139 1137 -53 callsubr
          90 callsubr
          -959 -371 11 callsubr
        </CharString>
        <CharString name="Wdotbelow">
          2139 178 1196 rmoveto
          385 -1201 133 0 377 1195 366 -1195 134 0 375 1158 63 198 36 37 105 17 rlinecurve
          39 -385 -39 vlineto
          141 -20 13 -44 -53 -183 rrcurveto
          -259 -890 -266 930 -46 159 11 30 123 18 rlinecurve
          39 -539 -39 vlineto
          132 -22 18 -29 -49 -168 rrcurveto
          -262 -917 -275 927 -42 148 17 44 131 17 rlinecurve
          39 -573 -39 vlineto
          95 -15 42 -31 52 -163 rrcurveto
          894 -1377 -97 callgsubr
          49 47 59 59 -49 46 -61 hvcurveto
          endchar
        </CharString>
        <CharString name="Wgrave">
          2139 1210 67 callsubr
          -700 -608 11 callsubr
        </CharString>
        <CharString name="X">
          1364 283 294 48 callsubr
        </CharString>
        <CharString name="Xdieresis">
          1364 597 -57 callsubr
          -62 callsubr
          -86 callgsubr
          -630 -1275 48 callsubr
        </CharString>
        <CharString name="Xdotaccent">
          1364 755 167 callsubr
          -472 -1273 48 callsubr
        </CharString>
        <CharString name="Xigreek">
          1340 1245 1444 rmoveto
          -1150 hlineto
          -17 -382 rlineto
          36 hlineto
          172 52 81 34 263 hhcurveto
          319 hlineto
          264 80 -34 -172 51 hvcurveto
          38 hlineto
          -653 -357 rmoveto
          121 hlineto
          205 47 -50 -143 26 hvcurveto
          34 433 -34 hlineto
          -141 -27 -46 -47 -205 hhcurveto
          -121 63 callgsubr
          26 46 50 205 hhcurveto
          654 -705 rmoveto
          17 425 rlineto
          -37 hlineto
          -209 -54 -77 -33 -292 hhcurveto
          -300 hlineto
          -292 -78 33 209 -54 hvcurveto
          -36 hlineto
          17 -425 rlineto
          endchar
        </CharString>
        <CharString name="Xigreek.1">
          1340 610 705 rmoveto
          38 -522 -128 hlineto
          -292 -78 34 208 -53 hvcurveto
          -36 hlineto
          17 -425 1185 0 18 425 rlineto
          -38 hlineto
          -209 -53 -78 -33 -291 hhcurveto
          -129 522 39 hlineto
          205 47 -50 -143 25 hvcurveto
          35 433 -35 hlineto
          -141 -26 -46 -47 -205 hhcurveto
          -39 511 138 hlineto
          263 81 -34 -172 51 hvcurveto
          37 hlineto
          -16 382 -1150 0 -18 -382 rlineto
          37 hlineto
          172 51 81 34 264 hhcurveto
          137 -511 -38 63 callgsubr
          25 47 50 205 hhcurveto
          endchar
        </CharString>
        <CharString name="Y">
          1331 216 1200 -70 callsubr
        </CharString>
        <CharString name="Yacute">
          1331 691 -86 callsubr
          -60 callsubr
          -425 -335 -70 callsubr
        </CharString>
        <CharString name="Ycircumflex">
          1331 535 -1 callsubr
          -5 callsubr
          -271 -334 -70 callsubr
        </CharString>
        <CharString name="Ydieresis">
          1331 585 -57 callsubr
          -62 callsubr
          -86 callgsubr
          -685 -369 -70 callsubr
        </CharString>
        <CharString name="Ydotaccent">
          1331 743 167 callsubr
          -527 -367 -70 callsubr
        </CharString>
        <CharString name="Ydotbelow">
          1331 216 1200 rmoveto
          318 -538 rlineto
          -479 vlineto
          -97 -21 -29 -130 -18 vhcurveto
          -39 -77 callsubr
          157 callsubr
          -17 callgsubr
          458 -1381 -47 callsubr
        </CharString>
        <CharString name="Yericyrillic">
          1875 1221 177 callsubr
          20 29 -53 callgsubr
          43 callgsubr
          459 -267 -82 callsubr
          118 19 vhcurveto
          39 -543 -39 vlineto
          119 -19 20 -23 -88 vvcurveto
          -1106 vlineto
          -88 -20 -23 -119 -19 vhcurveto
          -39 543 39 vlineto
          -118 19 -21 23 88 vvcurveto
          -741 260 -20 callgsubr
        </CharString>
        <CharString name="Ygrave">
          1331 816 133 callsubr
          -267 -604 -70 callsubr
        </CharString>
        <CharString name="Yhookabove">
          1331 769 -31 callsubr
          24 41 16 47 hhcurveto
          62 39 64 callsubr
          -553 -654 -70 callsubr
        </CharString>
        <CharString name="Yicyrillic">
          654 169 -57 callsubr
          -25 callsubr
          -6 callsubr
          -62 callsubr
          -27 -1400 -82 callsubr
          -83 callsubr
          -107 callsubr
          -84 callsubr
        </CharString>
        <CharString name="Ymacron">
          1331 491 -66 callsubr
          -275 -514 -70 callsubr
        </CharString>
        <CharString name="Ytilde">
          1331 852 75 callsubr
          -45 hlineto
          -91 -5 -25 91 callsubr
          -70 -66 -181 8 -60 callgsubr
          -103 callgsubr
          -636 -355 -70 callsubr
        </CharString>
        <CharString name="Z">
          1261 1170 hmoveto
          18 callsubr
        </CharString>
        <CharString name="Zacute">
          1261 592 -86 callsubr
          -60 callsubr
          628 -1535 rmoveto
          18 callsubr
        </CharString>
        <CharString name="Zcaron">
          1261 873 -44 callsubr
          -10 callsubr
          249 -1828 rmoveto
          18 callsubr
        </CharString>
        <CharString name="Zcircumflex">
          1261 436 -1 callsubr
          -5 callsubr
          782 -1534 rmoveto
          18 callsubr
        </CharString>
        <CharString name="Zdotaccent">
          1261 643 -30 callsubr
          -60 -49 -45 -59 -59 49 -47 60 hvcurveto
          527 -1567 rmoveto
          18 callsubr
        </CharString>
        <CharString name="Zdotbelow">
          -19 callgsubr
          561 -186 -47 callsubr
        </CharString>
        <CharString name="Zecyrillic">
          1231 1149 415 rmoveto
          241 -221 104 -260 16 vhcurveto
          236 28 192 114 198 vvcurveto
          228 -195 122 -344 -189 -143 -50 -58 -78 vhcurveto
          -12 -301 rlineto
          36 hlineto
          217 52 122 135 199 hhcurveto
          204 76 -134 -183 -198 -114 -109 -205 hvcurveto
          -138 -49 138 hlineto
          237 129 -123 -215 -239 -134 -124 -221 -181 -141 115 243 -57 hvcurveto
          -36 hlineto
          14 -301 rlineto
          -60 83 152 -54 179 hhcurveto
          339 281 133 304 hvcurveto
          endchar
        </CharString>
        <CharString name="Zetagreek">
          1261 1170 hmoveto
          18 callsubr
        </CharString>
        <CharString name="Zhecyrillic">
          2031 344 hmoveto
          434 721 107 2 rlineto
          -560 vlineto
          -86 -20 -20 -113 -18 vhcurveto
          -39 516 39 vlineto
          -113 18 -20 20 86 vvcurveto
          559 vlineto
          107 -1 434 -721 rlineto
          359 37 hlineto
          -76 22 -46 43 -130 216 rrcurveto
          -358 599 259 282 126 134 73 51 108 21 rlinecurve
          39 -406 -39 vlineto
          139 -16 -4 -51 -95 -113 rrcurveto
          -383 -452 -107 -2 rlineto
          510 vlineto
          86 20 20 113 18 vhcurveto
          39 -516 -39 vlineto
          113 -18 20 -20 -86 vvcurveto
          -510 vlineto
          -107 2 -382 452 -95 113 -4 51 139 16 rlinecurve
          39 -406 -39 vlineto
          108 -21 71 -51 125 -134 rrcurveto
          267 -292 -351 -589 -131 -216 -47 -43 -77 -22 rlinecurve
          -37 vlineto
          endchar
        </CharString>
        <CharString name="Zlinebelow">
          -19 callgsubr
          301 -352 -2 callsubr
        </CharString>
        <CharString name="a">
          1066 362 -19 -99 callsubr
        </CharString>
        <CharString name="a.dnum">
          652 216 -10 rmoveto
          87 69 34 52 22 hvcurveto
          -55 11 54 -28 63 hhcurveto
          45 39 11 61 callgsubr
          240 vlineto
          119 -89 54 -147 -143 -93 -57 -70 -41 34 -29 42 43 32 31 41 32 -21 26 -29 9 vhcurveto
          9 22 27 5 29 hhcurveto
          82 48 -36 -92 hvcurveto
          -49 vlineto
          -109 -22 rlineto
          -160 -32 -61 -52 -76 vvcurveto
          -74 64 -50 92 vhcurveto
          8 151 rmoveto
          57 32 37 92 20 vhcurveto
          42 8 rlineto
          -164 vlineto
          -28 -16 -30 -14 -38 hhcurveto
          -47 -35 29 55 hvcurveto
          endchar
        </CharString>
        <CharString name="a.numr">
          633 216 700 187 callsubr
        </CharString>
        <CharString name="a.sups">
          652 216 867 187 callsubr
        </CharString>
        <CharString name="aacute">
          1066 436 135 callsubr
          -24 -1112 -99 callsubr
        </CharString>
        <CharString name="abreve">
          1066 497 161 callsubr
          -135 -97 169 callsubr
          -135 -1149 -99 callsubr
        </CharString>
        <CharString name="abreveacute">
          1066 758 70 callsubr
          260 -273 -21 callsubr
          -7 hvcurveto
          -43 103 callsubr
          -121 -90 40 61 -6 hvcurveto
          -43 hlineto
          -141 -7 110 -90 157 hhcurveto
          -135 -1102 -99 callsubr
        </CharString>
        <CharString name="abrevecyrillic">
          1066 497 1123 rmoveto
          182 102 113 114 67 -45 45 -61 -59 -43 -46 -57 -58 45 -43 53 11 10 2 3 10 hvcurveto
          -52 -38 -69 -38 -98 hhcurveto
          -97 -69 38 52 -38 hvcurveto
          -3 10 10 -2 11 hhcurveto
          53 45 43 58 57 -43 46 -59 -61 -45 -45 -67 -114 102 -113 181 hvcurveto
          -135 -1142 -99 callsubr
        </CharString>
        <CharString name="abrevedotbelow">
          1066 497 161 callsubr
          -135 -97 169 callsubr
          -135 -1149 47 callsubr
          217 -659 -69 callsubr
        </CharString>
        <CharString name="abrevegrave">
          1066 237 134 callsubr
          260 -512 -21 callsubr
          -7 hvcurveto
          -43 103 callsubr
          -121 -90 40 61 -6 hvcurveto
          -43 hlineto
          -141 -7 110 -90 157 hhcurveto
          -135 -1102 -99 callsubr
        </CharString>
        <CharString name="abrevehookabove">
          1066 490 1572 rmoveto
          -79 96 callgsubr
          36 -28 -41 -41 -32 71 callgsubr
          -76 46 -87 vhcurveto
          7 -489 -21 callsubr
          -7 hvcurveto
          -43 103 callsubr
          -121 -90 40 61 -6 hvcurveto
          -43 hlineto
          -141 -7 110 -90 157 hhcurveto
          -135 -1102 -99 callsubr
        </CharString>
        <CharString name="abrevetilde">
          212 callsubr
          -112 -298 -21 callsubr
          -7 hvcurveto
          -43 103 callsubr
          -121 -90 40 61 -6 hvcurveto
          -43 hlineto
          -141 -7 110 -90 157 hhcurveto
          -135 -1102 -99 callsubr
        </CharString>
        <CharString name="acaron">
          1066 733 0 callsubr
          127 callsubr
          -421 -1496 -99 callsubr
        </CharString>
        <CharString name="acircumflex">
          1066 262 29 callsubr
          150 -1112 -99 callsubr
        </CharString>
        <CharString name="acircumflexacute">
          1066 758 70 callsubr
          -282 vmoveto
          -33 callsubr
          125 -1136 -99 callsubr
        </CharString>
        <CharString name="acircumflexdotbelow">
          1066 262 29 callsubr
          150 -1112 47 callsubr
          217 -659 -69 callsubr
        </CharString>
        <CharString name="acircumflexgrave">
          1066 237 134 callsubr
          -521 vmoveto
          -33 callsubr
          125 -1136 -99 callsubr
        </CharString>
        <CharString name="acircumflexhookabove">
          1066 697 1572 rmoveto
          -78 -55 -40 -40 -30 hvcurveto
          -34 vlineto
          14 20 46 callgsubr
          124 25 66 41 80 vvcurveto
          78 -76 46 -88 vhcurveto
          -460 -498 rmoveto
          -33 callsubr
          125 -1136 -99 callsubr
        </CharString>
        <CharString name="acircumflextilde">
          212 callsubr
          -372 -307 rmoveto
          -33 callsubr
          125 -1136 -99 callsubr
        </CharString>
        <CharString name="acute">
          1024 450 -89 callsubr
          44 callsubr
          endchar
        </CharString>
        <CharString name="acutecmb">
          0 -62 -89 callsubr
          44 callsubr
          endchar
        </CharString>
        <CharString name="acutecmb.short">
          0 -52 1067 rmoveto
          330 271 rlineto
          6 -251 vlineto
          -128 -276 rlineto
          endchar
        </CharString>
        <CharString name="acutedotaccentcmb">
          -4 callgsubr
          -157 rmoveto
          146 -80 callgsubr
          endchar
        </CharString>
        <CharString name="acutedotaccentcmb.short">
          0 1758 41 callgsubr
          267 -133 rmoveto
          124 vlineto
          -535 -167 rlineto
          -35 vlineto
          endchar
        </CharString>
        <CharString name="acyrillic">
          1066 362 -19 -99 callsubr
        </CharString>
        <CharString name="adblgrave">
          1066 266 -12 callsubr
          32 callgsubr
          -335 -1112 -99 callsubr
        </CharString>
        <CharString name="adieresis">
          1066 287 -67 callsubr
          -85 callsubr
          -55 callsubr
          -85 callsubr
          -346 -1182 -99 callsubr
        </CharString>
        <CharString name="adieresismacron">
          1066 236 1405 101 callsubr
          -93 callgsubr
          35 callsubr
          63 callsubr
          -289 -1124 -99 callsubr
        </CharString>
        <CharString name="adotaccent">
          1066 497 28 callsubr
          -82 callgsubr
          -135 -1174 -99 callsubr
        </CharString>
        <CharString name="adotbelow">
          1066 362 -19 47 callsubr
          217 -659 -69 callsubr
        </CharString>
        <CharString name="adotmacron">
          1066 236 1394 101 callsubr
          261 -401 rmoveto
          56 44 41 55 55 -44 42 -56 -55 -44 -42 -55 -55 44 -41 55 hvcurveto
          -135 -1123 -99 callsubr
        </CharString>
        <CharString name="ae">
          1608 364 -19 145 callsubr
        </CharString>
        <CharString name="aeacute">
          1608 750 -89 callsubr
          -22 callsubr
          -337 -1112 145 callsubr
        </CharString>
        <CharString name="aemacron">
          1608 533 -7 callsubr
          -169 -1353 145 callsubr
        </CharString>
        <CharString name="agrave">
          1066 560 136 callsubr
          153 -1465 -99 callsubr
        </CharString>
        <CharString name="ahookabove">
          1066 531 1462 rmoveto
          -104 -3 callsubr
          45 19 53 hhcurveto
          68 44 -34 -53 -58 126 callsubr
          -169 -1481 -99 callsubr
        </CharString>
        <CharString name="ainvertedbreve">
          1066 497 -28 callgsubr
          -135 -1459 -99 callsubr
        </CharString>
        <CharString name="alphagreek">
          1256 454 -18 182 callsubr
        </CharString>
        <CharString name="alphatonosgreek">
          1256 594 1093 rmoveto
          219 353 rlineto
          8 -219 vlineto
          -48 -361 rlineto
          -92 -1111 182 callsubr
        </CharString>
        <CharString name="amacron">
          1066 218 -107 callgsubr
          144 -1353 -99 callsubr
        </CharString>
        <CharString name="ampersand">
          1595 503 -20 rmoveto
          189 140 90 169 143 hvcurveto
          240 -239 rlineto
          382 37 hlineto
          -73 23 -72 53 -143 140 rrcurveto
          -184 185 143 197 129 175 48 40 103 13 rlinecurve
          39 vlineto
          -403 -1 rlineto
          -39 vlineto
          132 -17 30 -49 -100 -153 rrcurveto
          -113 -174 -326 327 -16 15 -14 15 -14 14 rlinecurve
          208 78 127 108 150 vvcurveto
          160 -139 130 -250 -241 -161 -148 -186 -122 52 -98 125 -139 vhcurveto
          -240 -83 -126 -144 -181 vvcurveto
          -221 175 -164 249 vhcurveto
          -19 1242 rmoveto
          122 78 67 108 121 70 -107 -134 -123 -54 -105 -113 -72 vhcurveto
          -150 155 -60 87 110 vvcurveto
          -182 -746 rmoveto
          108 54 93 118 64 vhcurveto
          31 -32 34 -35 38 -38 372 -371 rcurveline
          -105 -96 -97 -46 -102 hhcurveto
          -190 -161 147 215 -1 hvcurveto
          endchar
        </CharString>
        <CharString name="anoteleiagreek">
          491 245 720 129 callsubr
          endchar
        </CharString>
        <CharString name="aogonek">
          1069 362 -19 rmoveto
          151 122 66 90 42 hvcurveto
          -98 19 84 -52 105 hhcurveto
          20 19 2 2 18 hvcurveto
          -6 -3 rlineto
          -187 -104 -74 -94 -102 vvcurveto
          -101 83 -65 104 94 74 41 61 35 vhcurveto
          -1 39 rlineto
          -19 -17 -33 -11 -36 hhcurveto
          -57 -49 40 77 92 53 86 130 103 hvcurveto
          36 vlineto
          -3 -11 -15 -3 -16 hhcurveto
          -59 -43 36 87 hvcurveto
          499 vlineto
          216 -156 96 -241 -237 -165 -100 -129 -66 54 -49 65 67 53 50 65 64 -49 49 -59 3 vhcurveto
          31 49 65 17 70 hhcurveto
          152 94 -70 -188 hvcurveto
          -105 vlineto
          -200 -42 rlineto
          -284 -60 -111 -94 -149 vvcurveto
          -144 119 -97 165 vhcurveto
          -41 281 rmoveto
          118 62 75 196 44 vhcurveto
          94 21 rlineto
          -347 vlineto
          -61 -36 -62 -32 -81 hhcurveto
          -98 -75 66 116 hvcurveto
          endchar
        </CharString>
        <CharString name="approxequal">
          1150 843 701 rmoveto
          -161 -160 254 2 callgsubr
          -254 186 hhcurveto
          145 99 106 225 hvcurveto
          -69 hlineto
          -177 -2 -71 -76 -99 hhcurveto
          -461 vmoveto
          -161 -160 253 -186 hhcurveto
          -146 -98 -104 -227 hvcurveto
          69 hlineto
          178 2 71 76 98 162 160 -254 18 callgsubr
        </CharString>
        <CharString name="aring">
          1066 238 216 callsubr
          -40 -1302 -99 callsubr
        </CharString>
        <CharString name="aringacute">
          1066 758 1450 rmoveto
          147 vlineto
          -521 -197 rlineto
          -42 vlineto
          54 callgsubr
          -48 hlineto
          -129 -88 -47 -73 -72 88 -47 129 hvcurveto
          41 -5 callgsubr
          -152 -1140 -99 callsubr
        </CharString>
        <CharString name="aringbelow">
          1066 362 -19 47 callsubr
          -43 -549 -16 callgsubr
          38 54 57 58 38 -54 -74 -78 -38 -50 -58 -57 -38 51 76 vhcurveto
          endchar
        </CharString>
        <CharString name="asciicircum">
          1150 555 1444 rmoveto
          -418 -572 53 -49 384 523 383 -524 56 50 -419 572 rlineto
          endchar
        </CharString>
        <CharString name="asciitilde">
          1150 843 486 rmoveto
          -161 -160 253 2 callgsubr
          -253 18 callgsubr
        </CharString>
        <CharString name="asterisk">
          726 353 1147 rmoveto
          20 hlineto
          59 200 rlineto
          73 25 -46 46 -48 hhcurveto
          -50 -44 -46 -73 25 hvcurveto
          87 -203 rmoveto
          8 -17 198 48 rlineto
          76 16 17 62 -25 41 -25 44 -62 16 -50 -59 rrcurveto
          -182 -168 rmoveto
          9 17 -137 151 rlineto
          -50 58 -63 -15 -25 -44 -24 -43 17 -60 76 -16 rrcurveto
          206 -73 rmoveto
          -9 17 -197 -48 rlineto
          -75 -16 -18 -62 24 -41 26 -44 63 -16 49 59 rrcurveto
          182 168 rmoveto
          -9 -16 137 -152 rlineto
          50 -58 62 15 25 44 26 43 -18 60 -75 16 rrcurveto
          -215 26 rmoveto
          -19 hlineto
          -60 -200 rlineto
          -72 -25 45 -47 49 hhcurveto
          50 45 46 73 -26 hvcurveto
          endchar
        </CharString>
        <CharString name="at">
          1973 557 364 rmoveto
          -194 77 -133 147 126 130 98 174 62 vhcurveto
          -1 -3 -10 -51 -3 vvcurveto
          -152 -22 79 -95 185 hhcurveto
          283 275 262 404 446 -361 288 -462 -500 -483 -380 -620 -502 366 -330 432 159 173 35 84 112 hvcurveto
          1 42 rlineto
          -82 -131 -148 -23 -154 hhcurveto
          -408 -339 303 479 581 455 357 466 425 333 -257 -426 -390 -260 -204 -180 -66 -55 38 131 27 hvcurveto
          154 719 -82 0 -149 -128 rlineto
          89 -32 -66 55 -108 hhcurveto
          -268 -182 -311 -301 hvcurveto
          220 -19 rmoveto
          241 109 320 178 71 45 -51 -82 12 vhcurveto
          -78 -368 rlineto
          -130 -28 -99 -140 -107 hhcurveto
          -77 -26 89 121 hvcurveto
          endchar
        </CharString>
        <CharString name="atilde">
          1066 614 163 callsubr
          -37 hvcurveto
          -31 22 rlineto
          37 -54 -43 23 -55 hhcurveto
          -97 -73 -71 -195 120 callsubr
          55 hhcurveto
          -252 -1171 -99 callsubr
        </CharString>
        <CharString name="austral">
          1388 225 271 rmoveto
          -64 -185 -36 -30 -104 -17 rrcurveto
          -39 381 39 vlineto
          -139 21 -23 36 56 173 rrcurveto
          42 127 543 0 50 -147 50 -149 -22 -43 -134 -18 rlinecurve
          -39 554 39 vlineto
          -94 15 -38 32 -58 162 -53 148 rcurveline
          243 39 -256 hlineto
          -86 241 rlineto
          342 39 -356 hlineto
          -262 735 -121 0 -259 -735 rlineto
          -360 -39 347 hlineto
          -85 -241 rlineto
          -262 -39 248 hlineto
          175 319 rmoveto
          163 493 167 -493 rlineto
          -423 -280 rmoveto
          80 241 356 0 81 -241 rlineto
          endchar
        </CharString>
        <CharString name="austral.tnum">
          1154 -6 434 rmoveto
          -39 211 vlineto
          -36 -125 -54 -185 -31 -32 -89 -14 rlinecurve
          -39 324 39 vlineto
          -116 16 -17 34 49 181 rrcurveto
          35 125 428 0 40 -144 43 -158 -16 -39 -112 -15 rlinecurve
          -39 506 39 vlineto
          -83 13 -30 34 -49 165 -43 144 rcurveline
          205 39 -216 hlineto
          -71 242 rlineto
          287 38 -299 hlineto
          -216 735 -133 0 -213 -735 rlineto
          -304 -38 293 hlineto
          -71 -242 rlineto
          140 280 rmoveto
          127 466 128 -466 rlineto
          -331 -280 rmoveto
          66 242 276 0 66 -242 rlineto
          endchar
        </CharString>
        <CharString name="b">
          -88 callgsubr
          107 callsubr
          endchar
        </CharString>
        <CharString name="backslash">
          680 544 -280 rmoveto
          90 hlineto
          -498 1860 rlineto
          -90 hlineto
          endchar
        </CharString>
        <CharString name="baht">
          1315 75 30 rmoveto
          534 hlineto
          12 13 0 1 12 hvcurveto
          -220 39 221 vlineto
          291 18 250 124 252 vvcurveto
          221 -192 120 -285 13 vhcurveto
          214 16 192 99 196 vvcurveto
          197 -174 109 -296 15 vhcurveto
          220 -39 -218 vlineto
          -12 -12 0 -13 hhcurveto
          -534 24 callgsubr
          382 1299 rmoveto
          99 -3 32 -1 30 -3 28 -5 rlinecurve
          -567 vlineto
          -1 -11 -12 -1 -11 hhcurveto
          -155 -1 rlineto
          449 284 rmoveto
          -164 -81 -90 -140 -23 vhcurveto
          555 vlineto
          158 -39 63 -104 -135 vvcurveto
          -449 -330 rmoveto
          155 -2 rlineto
          11 12 0 -1 11 hvcurveto
          -650 vlineto
          -28 -4 -31 -3 -31 -1 -99 -3 rcurveline
          509 339 rmoveto
          -172 -99 -111 -182 -38 vhcurveto
          639 vlineto
          182 -27 99 -121 -170 vvcurveto
          endchar
        </CharString>
        <CharString name="baht.tnum">
          1154 41 31 rmoveto
          500 hlineto
          9 8 1 9 hhcurveto
          -221 39 222 vlineto
          272 17 240 126 246 21 callgsubr
          190 -161 106 -283 14 vhcurveto
          221 -39 -220 vlineto
          -9 -8 1 -9 hhcurveto
          -500 13 callgsubr
          369 1295 rmoveto
          89 -1 24 -1 23 -2 21 -4 rlinecurve
          -571 vlineto
          -1 -9 -9 0 -9 hhcurveto
          -130 -1 rlineto
          399 292 rmoveto
          -162 -73 -98 -130 -25 vhcurveto
          558 vlineto
          139 -37 64 -101 -135 vvcurveto
          -399 -337 rmoveto
          130 -2 rlineto
          9 9 0 -1 9 hvcurveto
          -654 vlineto
          -22 -3 -23 -2 -23 -1 -89 -1 rcurveline
          457 336 rmoveto
          -173 -98 -111 -163 -37 vhcurveto
          642 vlineto
          168 -27 93 -123 -171 vvcurveto
          endchar
        </CharString>
        <CharString name="bar">
          680 295 -280 rmoveto
          90 1860 -90 hlineto
          endchar
        </CharString>
        <CharString name="bdotaccent">
          1193 276 1622 179 callsubr
          835 -1125 rmoveto
          107 callsubr
          endchar
        </CharString>
        <CharString name="bdotbelow">
          -88 callgsubr
          107 callsubr
          -246 -868 -58 callsubr
        </CharString>
        <CharString name="becyrillic">
          1216 1134 488 rmoveto
          300 -209 189 -296 -229 -163 -136 -187 -63 vhcurveto
          -6 38 -3 42 44 vvcurveto
          217 99 171 357 37 vhcurveto
          120 13 266 29 82 71 15 194 rlinecurve
          -41 hlineto
          -16 -53 -60 -13 -218 -23 -220 -24 -131 -54 -114 -105 rrcurveto
          -131 -122 -79 -207 -315 vvcurveto
          -369 177 -244 336 281 246 204 303 vhcurveto
          -261 -14 rmoveto
          -279 -90 -159 -167 -166 -91 186 262 273 88 167 170 163 93 -181 -269 vhcurveto
          endchar
        </CharString>
        <CharString name="betagreek">
          1196 133 -460 rmoveto
          251 hlineto
          -4 214 -3 187 -2 163 rrcurveto
          -71 53 107 -52 128 hhcurveto
          218 225 142 284 266 -178 167 -254 19 hvcurveto
          179 18 173 112 186 vvcurveto
          202 -164 121 -265 -255 -203 -134 -372 -1 vhcurveto
          230 129 rmoveto
          213 75 108 152 138 70 -114 -168 -177 -97 -108 -206 -6 vhcurveto
          -172 vlineto
          243 -4 135 -132 -216 vvcurveto
          -194 -116 -98 -151 -106 -89 44 62 -42 vhcurveto
          -7 505 1 273 184 vvcurveto
          endchar
        </CharString>
        <CharString name="bitcoin">
          1311 75 30 rmoveto
          421 -219 39 219 71 hlineto
          59 58 4 8 55 hvcurveto
          -231 39 238 vlineto
          229 44 177 121 212 vvcurveto
          221 -192 120 -285 13 vhcurveto
          215 16 192 99 196 vvcurveto
          165 -122 103 -214 38 vhcurveto
          235 -39 -229 vlineto
          7 -52 -58 4 -62 hhcurveto
          -71 218 -39 -218 -421 24 callgsubr
          828 1001 rmoveto
          -191 -109 -90 -185 -2 vhcurveto
          -152 -1 0 582 96 -3 rlineto
          253 -8 97 -120 -167 vvcurveto
          60 -655 rmoveto
          -209 -146 -118 -264 -9 vhcurveto
          -96 -3 0 664 152 -2 rlineto
          229 -2 125 -130 -191 vvcurveto
          endchar
        </CharString>
        <CharString name="bitcoin.tnum">
          1154 41 31 rmoveto
          388 -220 39 220 73 hlineto
          54 53 5 8 52 hvcurveto
          -233 38 240 vlineto
          213 44 167 121 206 21 callgsubr
          158 -112 100 -200 37 vhcurveto
          236 -39 -230 vlineto
          7 -48 -53 4 -57 hhcurveto
          -73 219 -39 -219 -388 13 callgsubr
          767 1006 rmoveto
          -188 -98 -102 -171 -1 vhcurveto
          -128 -1 0 581 87 -1 rlineto
          212 -8 98 -114 -166 vvcurveto
          58 -665 rmoveto
          -208 -142 -119 -226 -8 vhcurveto
          -87 -1 0 664 128 -2 rlineto
          209 -2 118 -132 -192 vvcurveto
          endchar
        </CharString>
        <CharString name="blinebelow">
          -88 callgsubr
          107 callsubr
          -506 -818 -61 callsubr
        </CharString>
        <CharString name="braceleft">
          680 432 989 rmoveto
          271 vlineto
          168 30 112 167 vhcurveto
          40 -40 vlineto
          -241 -123 -122 -234 hvcurveto
          -337 vlineto
          -154 -83 -64 -113 vhcurveto
          -35 vlineto
          113 83 -63 -157 hvcurveto
          -338 vlineto
          -234 123 -122 241 vhcurveto
          40 40 hlineto
          -167 -30 112 169 hvcurveto
          274 vlineto
          208 -99 103 -220 26 vhcurveto
          223 24 96 104 209 vvcurveto
          endchar
        </CharString>
        <CharString name="braceright">
          680 246 989 rmoveto
          -209 98 -104 222 -24 vhcurveto
          -219 -26 -101 -103 -208 vvcurveto
          -274 vlineto
          -169 -28 -112 -167 vhcurveto
          -40 39 vlineto
          242 123 122 234 hvcurveto
          338 vlineto
          157 83 63 112 vhcurveto
          35 vlineto
          -112 -83 64 154 hvcurveto
          337 vlineto
          234 -123 122 -242 vhcurveto
          -39 -40 hlineto
          167 28 -112 -168 hvcurveto
          endchar
        </CharString>
        <CharString name="bracketleft">
          680 185 -285 rmoveto
          422 5 0 41 -213 9 0 1760 213 9 0 41 -422 5 rlineto
          endchar
        </CharString>
        <CharString name="bracketright">
          680 494 1585 rmoveto
          -421 -5 0 -41 212 -9 0 -1760 -212 -9 0 -41 421 -5 rlineto
          endchar
        </CharString>
        <CharString name="breve">
          1024 512 1130 rmoveto
          -1 callgsubr
          99 callgsubr
        </CharString>
        <CharString name="breveacutecmb">
          131 callsubr
          260 -273 -21 callsubr
          118 callsubr
        </CharString>
        <CharString name="breveacutecmb.short">
          49 callgsubr
          268 -222 rmoveto
          162 -15 callgsubr
        </CharString>
        <CharString name="brevebelowcmb">
          0 -437 vmoveto
          -78 callgsubr
          -89 -65 -127 -126 -90 10 callgsubr
        </CharString>
        <CharString name="brevecmb">
          0 1130 vmoveto
          -1 callgsubr
          99 callgsubr
        </CharString>
        <CharString name="brevecmb.short">
          0 1114 vmoveto
          163 88 123 123 -98 callgsubr
          -85 62 callsubr
          -123 89 -123 163 vhcurveto
          endchar
        </CharString>
        <CharString name="brevecyrilliccmb">
          0 1123 vmoveto
          182 101 113 114 67 -44 45 -61 -60 -43 -46 -57 -58 45 -43 53 11 11 2 3 10 hvcurveto
          -52 -38 -70 62 callgsubr
          45 43 58 57 -43 46 -60 -61 -44 -45 -67 -114 101 -113 182 hvcurveto
          endchar
        </CharString>
        <CharString name="brevecyrilliccmb.short">
          0 1582 vmoveto
          180 109 108 116 65 -44 44 -59 -59 -42 -45 -56 -56 42 -43 54 10 10 2 3 9 hvcurveto
          -53 -41 -74 -37 -95 hhcurveto
          -96 -74 37 53 -40 hvcurveto
          -3 9 10 -2 10 hhcurveto
          53 43 43 56 56 -43 45 -58 -59 -44 -44 -65 -116 109 -108 180 hvcurveto
          endchar
        </CharString>
        <CharString name="brevegravecmb">
          0 -260 78 callgsubr
          260 -512 -21 callsubr
          118 callsubr
        </CharString>
        <CharString name="brevegravecmb.short">
          48 callgsubr
          267 -425 rmoveto
          162 -15 callgsubr
        </CharString>
        <CharString name="brevehookabovecmb">
          0 -8 1572 rmoveto
          -79 -55 -40 -40 -31 hvcurveto
          -34 vlineto
          14 20 40 14 42 hhcurveto
          59 37 -28 -41 -41 -32 -30 -63 -18 hvcurveto
          35 -26 rlineto
          123 25 67 41 80 vvcurveto
          78 -76 46 -87 vhcurveto
          8 -489 -21 callsubr
          118 callsubr
        </CharString>
        <CharString name="brevehookabovecmb.short">
          0 -8 25 callgsubr
          60 38 -23 -36 -36 -32 -25 -65 -16 hvcurveto
          35 -22 rlineto
          128 23 67 34 67 vvcurveto
          67 -76 40 -90 vhcurveto
          8 -416 rmoveto
          162 -15 callgsubr
        </CharString>
        <CharString name="brevetildecmb">
          214 callsubr
          -112 -298 -21 callsubr
          118 callsubr
        </CharString>
        <CharString name="brevetildecmb.short">
          0 115 1794 111 callsubr
          -7 -12 40 hvcurveto
          32 70 callgsubr
          -15 callgsubr
        </CharString>
        <CharString name="brokenbar">
          680 295 789 rmoveto
          90 791 -90 hlineto
          -1860 vmoveto
          90 791 -90 hlineto
          endchar
        </CharString>
        <CharString name="bullet">
          676 338 376 rmoveto
          107 88 88 108 109 -88 83 callgsubr
        </CharString>
        <CharString name="c">
          999 573 -19 19 callsubr
        </CharString>
        <CharString name="cacute">
          999 517 -89 callsubr
          -22 callsubr
          105 -1112 19 callsubr
        </CharString>
        <CharString name="caret">
          491 229 hmoveto
          -263 -352 42 -42 236 315 237 -317 45 43 -264 353 rlineto
          endchar
        </CharString>
        <CharString name="caron">
          1024 748 59 callsubr
          endchar
        </CharString>
        <CharString name="caroncmb">
          0 236 59 callsubr
          endchar
        </CharString>
        <CharString name="caroncmb.short">
          0 230 1361 rmoveto
          -219 -141 -218 141 -50 0 203 -275 127 0 204 275 rlineto
          endchar
        </CharString>
        <CharString name="carondotaccentcmb">
          -4 callgsubr
          -21 rmoveto
          -260 -102 -260 102 0 -42 244 -204 33 0 243 204 rlineto
          endchar
        </CharString>
        <CharString name="carondotaccentcmb.short">
          0 1777 41 callgsubr
          274 -17 rmoveto
          -274 -86 -274 86 0 -36 257 -172 35 0 256 172 rlineto
          endchar
        </CharString>
        <CharString name="caronslovak">
          1024 432 1059 -58 callgsubr
        </CharString>
        <CharString name="caronslovakcmb">
          0 57 1059 -47 callgsubr
          endchar
        </CharString>
        <CharString name="ccaron">
          999 815 0 callsubr
          -235 55 callgsubr
          -292 -1496 19 callsubr
        </CharString>
        <CharString name="ccedilla">
          999 555 80 callgsubr
          72 93 152 9 123 63 61 90 rlinecurve
          151 callsubr
          -299 203 -199 270 -8 hvcurveto
          94 callsubr
          11 21 4 18 hhcurveto
          61 -92 callgsubr
          71 callsubr
          endchar
        </CharString>
        <CharString name="ccedillaacute">
          999 517 -89 callsubr
          -22 callsubr
          87 -1546 rmoveto
          79 callsubr
          -13 -13 -1 -2 -13 hvcurveto
          72 93 152 9 123 63 61 90 rlinecurve
          151 callsubr
          -299 203 -199 270 -8 hvcurveto
          94 callsubr
          11 21 4 18 hhcurveto
          61 -92 callgsubr
          71 callsubr
          endchar
        </CharString>
        <CharString name="ccircumflex">
          999 343 33 callsubr
          51 0 -225 360 -87 callgsubr
          279 -1112 19 callsubr
        </CharString>
        <CharString name="cdotaccent">
          999 579 -11 callsubr
          -24 callsubr
          -6 -1174 19 callsubr
        </CharString>
        <CharString name="cedi">
          1332 770 -189 rmoveto
          38 202 hlineto
          3 3 0 3 hhcurveto
          177 178 44 57 75 hvcurveto
          13 298 rlineto
          -36 hlineto
          -246 -60 -142 -97 -195 -6 -6 0 -7 hhcurveto
          1306 vlineto
          7 6 1 6 hhcurveto
          209 129 -118 -224 55 hvcurveto
          36 hlineto
          -13 298 rlineto
          56 -81 -140 43 -208 hhcurveto
          -6 201 -38 -202 hlineto
          -395 -19 -277 -271 -408 vvcurveto
          -428 280 -270 392 -20 vhcurveto
          -407 737 rmoveto
          360 152 231 255 30 vhcurveto
          -1300 vlineto
          -265 37 -142 290 352 vvcurveto
          endchar
        </CharString>
        <CharString name="cedi.tnum">
          1154 676 -189 rmoveto
          38 203 hlineto
          154 1 140 39 68 43 13 299 rcurveline
          -37 hlineto
          -233 -54 -117 -95 -159 hhcurveto
          -2 -3 0 1 -3 hvcurveto
          1306 vlineto
          1 4 4 0 4 hhcurveto
          157 110 -114 -211 48 hvcurveto
          37 hlineto
          -12 298 rlineto
          43 -73 -116 38 -163 hhcurveto
          202 -38 -202 vlineto
          -351 -18 -248 -274 -407 vvcurveto
          -444 252 -258 347 -15 vhcurveto
          -336 736 rmoveto
          361 124 230 212 31 vhcurveto
          -1300 vlineto
          -221 34 -115 277 367 vvcurveto
          endchar
        </CharString>
        <CharString name="cedilla">
          1024 484 -453 rmoveto
          114 105 62 112 105 -90 66 -107 -15 -14 -1 -3 -13 hvcurveto
          81 112 rlineto
          21 -36 vlineto
          -149 -198 1 -36 rlineto
          5 10 21 86 callsubr
          -62 -47 -50 14 21 -26 hvcurveto
          -1 -38 rlineto
          -50 31 76 -36 90 hhcurveto
          endchar
        </CharString>
        <CharString name="cedillacmb">
          0 -28 -453 rmoveto
          57 callgsubr
          78 103 rlineto
          21 -36 vlineto
          -149 -190 1 -36 rlineto
          5 10 21 86 callsubr
          -62 -47 -50 15 20 -26 hvcurveto
          -1 -38 rlineto
          -50 31 76 -36 90 hhcurveto
          endchar
        </CharString>
        <CharString name="cent">
          1008 604 hmoveto
          216 vlineto
          160 7 127 64 64 92 -1 40 rcurveline
          -56 -56 -89 -38 -109 hhcurveto
          -34 92 callgsubr
          66 58 -18 -31 43 hvcurveto
          -61 -51 -49 -65 -66 51 -52 67 64 53 51 68 126 -127 97 -217 1 hvcurveto
          215 -39 -216 vlineto
          -282 -17 -201 -208 -284 vvcurveto
          -301 208 52 callgsubr
          89 144 144 43 vhcurveto
          -803 vlineto
          -137 57 -96 146 216 vvcurveto
          endchar
        </CharString>
        <CharString name="cent.1">
          998 602 14 callgsubr
          -204 -163 165 281 235 124 161 192 68 57 -18 -31 41 73 callgsubr
          54 52 69 125 -121 97 -211 2 hvcurveto
          215 -38 -216 vlineto
          -280 -14 -202 -209 -284 vvcurveto
          -302 207 -201 275 -3 vhcurveto
          -215 vlineto
          endchar
        </CharString>
        <CharString name="cent.1.tnum">
          1154 654 14 callgsubr
          -205 -162 165 281 235 124 161 192 68 56 -18 -31 42 73 callgsubr
          53 52 69 125 -121 97 -210 2 hvcurveto
          215 -38 -216 vlineto
          -280 -14 -203 -209 -284 vvcurveto
          -302 208 -201 275 -3 vhcurveto
          -215 vlineto
          endchar
        </CharString>
        <CharString name="cent.tnum">
          1154 651 hmoveto
          216 vlineto
          159 7 128 64 63 92 -1 40 rcurveline
          -56 -55 -89 -38 -110 hhcurveto
          -33 92 callgsubr
          67 57 -18 -31 43 hvcurveto
          -61 -51 -49 -65 -66 50 -52 67 65 52 51 68 126 -126 97 -217 1 hvcurveto
          215 -39 -216 vlineto
          -282 -16 -202 -209 -284 vvcurveto
          -301 209 52 callgsubr
          88 144 145 43 vhcurveto
          -803 vlineto
          -137 56 -96 147 216 vvcurveto
          endchar
        </CharString>
        <CharString name="checyrillic">
          1209 157 693 rmoveto
          -215 136 -98 198 114 110 34 41 64 vhcurveto
          -321 vlineto
          -65 -21 -16 -126 -14 vhcurveto
          -39 519 39 vlineto
          -109 13 -19 17 65 vvcurveto
          708 vlineto
          66 19 17 109 12 vhcurveto
          40 -489 -40 vlineto
          101 -11 16 -17 -63 vvcurveto
          -349 vlineto
          -21 -41 -75 -19 -66 hhcurveto
          -129 -69 65 156 hvcurveto
          168 vlineto
          63 18 18 99 10 vhcurveto
          40 -486 -40 vlineto
          108 -12 19 -17 -66 vvcurveto
          endchar
        </CharString>
</ttFont>
